<svg width="94" height="123" viewBox="0 0 94 123" fill="none" xmlns="http://www.w3.org/2000/svg">
<g filter="url(#filter0_d_29_5949)">
<rect x="4.5" width="85" height="115" rx="4" fill="#00595F"/>
<path d="M43.5 43.75C46.3995 43.75 48.75 41.3995 48.75 38.5C48.75 35.6005 46.3995 33.25 43.5 33.25C40.6005 33.25 38.25 35.6005 38.25 38.5C38.25 41.3995 40.6005 43.75 43.5 43.75Z" stroke="white" stroke-width="2" stroke-linecap="round" stroke-linejoin="round"/>
<path d="M52.3289 40.5737C53.156 40.8821 53.892 41.3941 54.4689 42.0623C55.0457 42.7305 55.4448 43.5334 55.6291 44.3967C55.8135 45.26 55.7771 46.1558 55.5235 47.0013C55.2699 47.8469 54.8072 48.6148 54.1781 49.2341C53.5491 49.8535 52.774 50.3042 51.9246 50.5446C51.0752 50.785 50.1789 50.8073 49.3186 50.6095C48.4583 50.4117 47.6617 50.0002 47.0026 49.413C46.3435 48.8258 45.843 48.0818 45.5476 47.25" stroke="white" stroke-width="2" stroke-linecap="round" stroke-linejoin="round"/>
<path d="M42.625 36.75H43.5V40.25" stroke="white" stroke-width="2" stroke-linecap="round" stroke-linejoin="round"/>
<path d="M51.1214 43.645L51.7339 44.2663L49.2664 46.7338" stroke="white" stroke-width="2" stroke-linecap="round" stroke-linejoin="round"/>
<path d="M49.1875 77.8125L39.125 67.75V65.125H41.75L51.8125 75.1875" stroke="white" stroke-width="2" stroke-linecap="round" stroke-linejoin="round"/>
<path d="M47.875 79.125L53.125 73.875" stroke="white" stroke-width="2" stroke-linecap="round" stroke-linejoin="round"/>
<path d="M50.5 76.5L54 80" stroke="white" stroke-width="2" stroke-linecap="round" stroke-linejoin="round"/>
<path d="M53.125 80.875L54.875 79.125" stroke="white" stroke-width="2" stroke-linecap="round" stroke-linejoin="round"/>
<path d="M49.1875 68.1875L52.25 65.125H54.875V67.75L51.8125 70.8125" stroke="white" stroke-width="2" stroke-linecap="round" stroke-linejoin="round"/>
<path d="M40.875 74.75L44.375 78.25" stroke="white" stroke-width="2" stroke-linecap="round" stroke-linejoin="round"/>
<path d="M42.625 77.375L40 80" stroke="white" stroke-width="2" stroke-linecap="round" stroke-linejoin="round"/>
<path d="M39.125 79.125L40.875 80.875" stroke="white" stroke-width="2" stroke-linecap="round" stroke-linejoin="round"/>
</g>
<defs>
<filter id="filter0_d_29_5949" x="0.5" y="0" width="93" height="123" filterUnits="userSpaceOnUse" color-interpolation-filters="sRGB">
<feFlood flood-opacity="0" result="BackgroundImageFix"/>
<feColorMatrix in="SourceAlpha" type="matrix" values="0 0 0 0 0 0 0 0 0 0 0 0 0 0 0 0 0 0 127 0" result="hardAlpha"/>
<feOffset dy="4"/>
<feGaussianBlur stdDeviation="2"/>
<feComposite in2="hardAlpha" operator="out"/>
<feColorMatrix type="matrix" values="0 0 0 0 0 0 0 0 0 0 0 0 0 0 0 0 0 0 0.25 0"/>
<feBlend mode="normal" in2="BackgroundImageFix" result="effect1_dropShadow_29_5949"/>
<feBlend mode="normal" in="SourceGraphic" in2="effect1_dropShadow_29_5949" result="shape"/>
</filter>
</defs>
</svg>
