<svg width="28" height="29" viewBox="0 0 28 29" fill="none" xmlns="http://www.w3.org/2000/svg">
<path d="M10.4999 15.6667C11.1443 15.6667 11.6666 15.1444 11.6666 14.5C11.6666 13.8557 11.1443 13.3334 10.4999 13.3334C9.85559 13.3334 9.33325 13.8557 9.33325 14.5C9.33325 15.1444 9.85559 15.6667 10.4999 15.6667Z" stroke="#00AAB5" stroke-width="2" stroke-linecap="round" stroke-linejoin="round"/>
<path d="M17.4999 15.6667C18.1443 15.6667 18.6666 15.1444 18.6666 14.5C18.6666 13.8557 18.1443 13.3334 17.4999 13.3334C16.8556 13.3334 16.3333 13.8557 16.3333 14.5C16.3333 15.1444 16.8556 15.6667 17.4999 15.6667Z" stroke="#00AAB5" stroke-width="2" stroke-linecap="round" stroke-linejoin="round"/>
<path d="M9.33325 23.8334V26.1667H18.6666V23.8334" stroke="#00AAB5" stroke-width="2" stroke-linecap="round" stroke-linejoin="round"/>
<path d="M14.5834 20.3333L14.0001 19.1666L13.4167 20.3333H14.5834Z" stroke="#00AAB5" stroke-width="2" stroke-linecap="round" stroke-linejoin="round"/>
<path d="M18.6668 23.8333C19.1062 23.833 19.5367 23.7087 19.9086 23.4745C20.2805 23.2403 20.5787 22.9059 20.7688 22.5097C20.959 22.1135 21.0334 21.6716 20.9835 21.235C20.9336 20.7984 20.7614 20.3847 20.4868 20.0416C21.8237 18.7493 22.7442 17.0871 23.1302 15.2681C23.5161 13.4492 23.3499 11.5564 22.653 9.83251C21.956 8.10862 20.76 6.6322 19.2183 5.59259C17.6766 4.55298 15.8595 3.99756 14.0001 3.99756C12.1406 3.99756 10.3236 4.55298 8.78187 5.59259C7.24019 6.6322 6.04417 8.10862 5.3472 9.83251C4.65023 11.5564 4.48406 13.4492 4.87002 15.2681C5.25597 17.0871 6.17645 18.7493 7.51342 20.0416C7.23875 20.3847 7.06654 20.7984 7.01664 21.235C6.96673 21.6716 7.04115 22.1135 7.23132 22.5097C7.4215 22.9059 7.7197 23.2403 8.09159 23.4745C8.46348 23.7087 8.89394 23.833 9.33342 23.8333" stroke="#00AAB5" stroke-width="2" stroke-linecap="round" stroke-linejoin="round"/>
</svg>
