<svg width="157" height="184" viewBox="0 0 157 184" fill="none" xmlns="http://www.w3.org/2000/svg">
<path d="M112.344 20.2539C129.188 31.3264 140.243 49.6034 144.344 69.1289C147.569 88.1551 142.334 105.291 131.969 121.098C119.401 137.769 99.9202 146.117 80 150C80 152.63 80.9913 153.554 82.5 155.688C85.0153 159.639 85.7035 162.251 85 167C83.604 170.3 81.9863 173.021 80 176C75.2974 176.385 71.1089 176.583 67 174C65.3125 171.063 65.3125 171.063 64 168C63.34 167.01 62.68 166.02 62 165C61.4359 159.98 61.9888 154.93 63 150C61.7419 149.814 60.4838 149.629 59.1875 149.438C52.2353 147.908 45.8433 143.917 40.8906 138.836C38.2702 136.291 35.482 135.977 32 135C22.0526 129.032 17.1594 116.302 14.0274 105.711C9.52915 86.8394 10.1077 65.6538 19.457 48.3359C22.4728 43.7703 26.2027 39.9166 30 36C30.5427 35.3722 31.0854 34.7445 31.6445 34.0977C51.6264 11.7889 86.9135 5.60229 112.344 20.2539Z" fill="#25201E"/>
<path d="M73 17C87.7651 15.5466 100.472 20.8258 112 30C121.685 37.9895 131.958 46.784 136 59C136.66 59 137.32 59 138 59C138.485 60.3729 138.963 61.7485 139.438 63.125C139.704 63.8907 139.971 64.6564 140.246 65.4453C142.956 74.6282 142.644 84.7573 141.438 94.1875C141.059 97.4896 141.093 98.9696 142 102C141.01 102 140.02 102 139 102C138.346 103.394 138.346 103.394 137.68 104.816C134.42 111.63 131.334 117.536 126 123C126 119.507 126.609 118.864 128.625 116.125C135.912 105.584 139.183 95.973 139.25 83.375C139.271 82.4275 139.291 81.4801 139.312 80.5039C139.347 74.1294 138.892 67.798 136 62C135.01 61.67 134.02 61.34 133 61C132.086 59.2227 132.086 59.2227 131.375 57.0625C130.663 54.9519 129.997 52.9943 129 51C129.144 51.5685 129.289 52.137 129.438 52.7227C132.306 64.654 132.306 64.654 129.867 69.0352C126.766 73.3782 123.31 76.8657 119 80C118.34 80 117.68 80 117 80C117 80.66 117 81.32 117 82C109.471 85.501 102.223 87.0204 94 88C94.495 88.99 94.495 88.99 95 90C89.39 89.67 83.78 89.34 78 89C77.67 86.03 77.34 83.06 77 80C76.34 80.99 75.68 81.98 75 83C74.2776 77.0538 73.8022 71.551 74.8086 65.6289C75.1074 62.8201 75.1074 62.8201 74.4727 59.3399C73.9078 55.066 73.4863 51.1171 75 47C79.4281 41.349 85.9067 37.6242 92 34C92.622 33.6257 93.2439 33.2514 93.8848 32.8657C96.8599 31.1045 99.8748 29.4782 103 28C93.9878 22.856 93.9878 22.856 84 21C81.6285 21.8058 81.6285 21.8058 80 23C80 22.34 80 21.68 80 21C77.36 20.34 74.72 19.68 72 19C72.33 18.34 72.66 17.68 73 17ZM84.0938 44.2656C82 46 82 46 79 48C78.5313 51.2176 78.5313 51.2176 78.6016 55.0195C78.5987 55.7151 78.5958 56.4107 78.5929 57.1274C78.5908 58.601 78.5964 60.0746 78.6089 61.5481C78.6249 63.7938 78.6091 66.0376 78.5898 68.2832C78.5918 69.7162 78.5957 71.1491 78.6016 72.582C78.6049 73.8838 78.6083 75.1855 78.6118 76.5266C79.0542 80.4845 80.1643 83.1644 83 86C92.0574 86.8909 99.4338 84.2788 106.812 78.9805C113.035 73.6933 118.529 68.1951 119.293 59.7656C119.31 56.8234 119.223 53.9329 119 51C120.98 50.34 122.96 49.68 125 49C125 48.34 125 47.68 125 47C119.288 47.4154 115.028 48.6414 109.883 51.1602C108 52 108 52 106 52C109.287 48.187 112.397 46.7703 117 45C116.724 40.4494 114.732 37.7097 111.723 34.4727C109.913 32.7705 109.913 32.7705 106.812 31.6875C97.894 32.4185 90.7369 38.7009 84.0938 44.2656Z" fill="#141111"/>
<path d="M124 32C135.333 39.6501 141.309 55.1761 144.312 68C145.982 77.8269 145.581 88.3619 143 98C142.01 98.99 142.01 98.99 141 100C139.615 96.1524 140.431 92.981 141 89C142.083 70.112 136.781 53.1148 124.348 38.6992C123 37 123 37 122 34C122.66 34 123.32 34 124 34C124 33.34 124 32.68 124 32Z" fill="#1A1413"/>
<path d="M137 59C143.682 69.0236 142.853 82.711 141.438 94.1875C141.059 97.4896 141.093 98.9696 142 102C141.01 102 140.02 102 139 102C138.564 102.929 138.129 103.859 137.68 104.816C134.42 111.63 131.334 117.536 126 123C126 119.507 126.609 118.864 128.625 116.125C135.865 105.652 139.207 96.0313 139.25 83.5C139.254 82.5149 139.258 81.5298 139.262 80.5149C139.209 73.9285 138.578 68.2401 136.559 61.9492C136.374 61.306 136.19 60.6627 136 60C136.33 59.67 136.66 59.34 137 59Z" fill="#462E2D"/>
<path d="M139 62C139.66 62 140.32 62 141 62C146.644 69.6753 145.616 80.4034 144.621 89.4414C143.37 97.6304 143.37 97.6304 141 100C140.026 97.2939 140.044 95.6945 140.461 92.7969C141.932 82.4389 141.127 72.1999 139 62Z" fill="#252020"/>
<path d="M142 88C144 90 144 90 144.047 91.875C143.9 92.9269 143.9 92.9269 143.75 94C143.618 95.0519 143.618 95.0519 143.484 96.125C143 98 143 98 141 100C139.625 96.18 140.259 92.9247 141 89C141.33 88.67 141.66 88.34 142 88Z" fill="#1C1617"/>
<path d="M102 19C102.865 19.4395 103.73 19.8791 104.621 20.332C117.834 27.9067 127.939 39.6745 135 53C135.418 53.7193 135.835 54.4386 136.266 55.1797C137 57 137 57 136 60C135.741 59.3915 135.482 58.7831 135.215 58.1562C126.004 39.0014 108.964 27.1373 90 19C86.4396 17.8132 83.5619 17.9031 79.8125 17.9375C78.5402 17.9465 77.2679 17.9555 75.9571 17.9648C74.9812 17.9764 74.0054 17.988 73 18C77.455 18.99 77.455 18.99 82 20C81.34 20.33 80.68 20.66 80 21C82.9177 21.1327 82.9177 21.1327 85.3125 20.3633C88.8199 19.8892 90.7725 20.7837 94 22.1875C95.0107 22.6142 96.0213 23.0408 97.0625 23.4804C100.055 25.0282 102.45 26.8107 105 29C103.996 29.4615 102.992 29.9229 101.957 30.3984C97.5646 32.4652 93.2646 34.6815 89 37C88.3289 37.3638 87.6578 37.7277 86.9663 38.1025C82.6074 40.5791 79.1336 43.0487 76 47C75.2058 50.9488 75.3735 54.5161 75.7188 58.4883C77.542 80.011 70.0979 110.356 56.4453 127.305C53.7799 130.243 51.7524 131.723 48 133C45.8164 132.062 45.8164 132.062 44 131C44.7619 130.58 44.7619 130.58 45.5391 130.152C50.2079 127.433 53.4919 124.654 56.7735 120.355C57.1782 119.908 57.583 119.461 58 119C58.66 119 59.32 119 60 119C61.76 113.808 63.4695 108.601 65.125 103.375C65.4576 102.331 65.7902 101.287 66.1328 100.211C67.7475 94.2324 68.1661 88.2649 68.3164 82.0976C68.3372 81.3751 68.358 80.6525 68.3794 79.908C68.4442 77.6263 68.5035 75.3444 68.5625 73.0625C68.6058 71.5045 68.6494 69.9466 68.6934 68.3887C68.7998 64.5925 68.9013 60.7963 69 57C68.01 57.495 68.01 57.495 67 58C67.33 58.99 67.66 59.98 68 61C69.7233 81.0423 67.2197 107.133 54.125 123.437C51.5793 125.954 49.4396 127.64 45.9375 128.5C41.1275 127.889 39.5498 126.422 36.3477 122.957C34.959 120.94 34.4194 119.394 34 117C35.2994 118.237 35.2994 118.237 36.625 119.5C38.9696 121.431 39.9841 121.997 43.0625 122.625C46.9799 121.792 48.8081 120.214 51 117C58.3478 104.027 59.4486 90.714 59.1875 76.1875C59.1724 74.7051 59.1588 73.2226 59.1465 71.7402C59.1139 68.1598 59.0624 64.58 59 61C58.01 61.495 58.01 61.495 57 62C57.495 63.7325 57.495 63.7325 58 65.5C60.106 74.9248 59.5799 85.5207 58 95C57.01 95.33 56.02 95.66 55 96C54.505 97.485 54.505 97.485 54 99C52.7213 99.1444 51.4425 99.2887 50.125 99.4375C47.7431 99.7064 46.1555 99.9222 44 101C42.5628 94.2268 41.4329 87.446 40.4649 80.5898C40.2685 78.0781 40.2685 78.0781 39 77C38.7065 71.2127 39.3899 66.2645 40.875 60.6875C41.0491 59.9856 41.2231 59.2837 41.4024 58.5605C42.2536 55.2534 43.0883 52.8675 45 50C49.7518 50.432 51.92 51.3277 55 55C53.0825 51.3567 51.8429 49.5111 48 48C42.9806 47.2131 39.143 47.353 34.6875 49.875C26.4844 58.1013 24.5982 70.2673 24.5625 81.375C24.5587 82.227 24.5548 83.079 24.5508 83.9568C24.6945 92.1022 26.5521 99.4962 28.9063 107.254C30 111 30 111 30 114C27.9976 113.681 25.9979 113.346 24 113C22.9772 112.927 22.9772 112.927 21.9336 112.852C20 112 20 112 18.7696 109.27C18.4537 108.129 18.1379 106.988 17.8125 105.812C17.489 104.685 17.1654 103.557 16.8321 102.395C12.2295 83.6167 13.4981 63.6901 23.3125 46.875C27.0073 41.5762 31.0067 36.9205 37.5078 35.4219C40 35.125 40 35.125 44 35C41.03 35 38.06 35 35 35C50.5861 18.5174 80.982 8.18236 102 19Z" fill="#2B2D2D"/>
<path d="M129 50C132.15 53.4235 132.562 56.4426 133 61C133.624 61.0747 134.249 61.1494 134.892 61.2263C137 62 137 62 138.031 63.9006C139.823 70.3242 140.511 76.2755 140.438 82.9375C140.429 83.9068 140.421 84.8761 140.412 85.8748C140.245 92.945 139.36 98.6996 136 105C135.421 106.133 134.842 107.266 134.246 108.434C132.006 112.74 129.694 116.959 127 121C131.716 114.612 135.67 108.213 139 101C139.66 101 140.32 101 141 101C139.462 112.972 131.061 124.226 121.801 131.668C108.907 141.465 95.7749 146.925 80 150C80 152.63 80.9913 153.554 82.5 155.688C85.0153 159.639 85.7035 162.251 85 167C83.6039 170.3 81.9863 173.021 80 176C75.4377 176.368 71.9276 176.618 68 174C68 173.34 68 172.68 68 172C71.3 172 74.6 172 78 172C79.8637 169.204 81.0985 167.089 80.7891 163.668C80.109 160.618 79.4006 157.801 78 155C77.34 155 76.68 155 76 155C76.3506 155.577 76.7012 156.155 77.0625 156.75C78.1492 159.358 77.9307 160.394 77 163C76.34 161.02 75.68 159.04 75 157C74.01 157 73.02 157 72 157C72 153.7 72 150.4 72 147C78.93 145.68 85.86 144.36 93 143C90.2134 143 88.1358 143.392 85.4375 144C73.7458 146.109 62.0052 146.951 51.4375 140.801C47.9454 138.221 45.5343 135.52 43 132C44.2375 132.186 44.2375 132.186 45.5 132.375C50.7491 131.813 53.4975 129.923 57 126C66.9256 110.203 70.4525 92.0544 74 74C74.33 74 74.66 74 75 74C75.495 76.97 75.495 76.97 76 80C76.33 77.03 76.66 74.06 77 71C77.33 71 77.66 71 78 71C78 76.94 78 82.88 78 89C82.29 89 86.58 89 91 89C91 89.33 91 89.66 91 90C86.05 90 81.1 90 76 90C76.0413 91.6294 76.0825 93.2587 76.125 94.9375C76.2583 100.203 75.2529 104.921 74 110C93.1982 110.405 109.36 110.363 127 102C128.104 101.505 128.104 101.505 129.23 101C132.142 99.5591 133.767 98.5068 135.141 95.5195C136.273 90.8799 136.462 86.385 136.625 81.625C136.664 80.6982 136.702 79.7713 136.742 78.8164C136.836 76.5445 136.922 74.2725 137 72C136.34 72 135.68 72 135 72C134.505 73.485 134.505 73.485 134 75C131.668 76.6027 129.403 78.0074 126.938 79.375C126.224 79.7713 125.511 80.1676 124.777 80.5759C114.67 85.995 103.649 90.2601 92 89C94.6726 86.3274 96.5297 86.5084 100.25 86.0625C105.109 85.3929 108.697 84.4271 113 82C114.32 82 115.64 82 117 82C117 81.34 117 80.68 117 80C118.442 79.0613 119.885 78.1253 121.34 77.207C125.021 74.531 127.498 70.7535 130 67C130.402 61.981 129.59 57.6394 128.34 52.8203C128.172 51.9193 128.172 51.9193 128 51C128.33 50.67 128.66 50.34 129 50Z" fill="#0C0A0D"/>
<path d="M43 36C43.7954 36.0851 44.5907 36.1701 45.4102 36.2578C52.8859 37.3439 58.6722 40.6721 64 46C63.625 48.125 63.625 48.125 63 50C62.01 49.34 61.02 48.68 60 48C60.6536 48.7103 61.3071 49.4205 61.9805 50.1523C65.4073 55.3144 64.453 61.6201 64.3125 67.5625C64.298 69.3617 64.298 69.3617 64.2832 71.1973C64.1358 83.0716 63.704 94.367 60.125 105.75C59.8685 106.637 59.612 107.524 59.3477 108.437C57.8787 113.251 57.8787 113.251 57 115C56.01 115.33 55.02 115.66 54 116C52.7912 118 52.7912 118 52 120C51.01 119.505 51.01 119.505 50 119C50.3984 118.212 50.7967 117.425 51.2071 116.613C51.7369 115.524 52.2667 114.435 52.8125 113.312C53.3346 112.257 53.8567 111.201 54.3946 110.113C59.0731 99.0217 59.3996 87.9877 59.1875 76.1875C59.1724 74.7051 59.1588 73.2227 59.1465 71.7402C59.1139 68.1598 59.0624 64.58 59 61C58.01 61.495 58.01 61.495 57 62C57.33 63.155 57.66 64.31 58 65.5C60.106 74.9248 59.5799 85.5207 58 95C57.01 95.33 56.02 95.66 55 96C54.67 96.99 54.34 97.98 54 99C52.7213 99.1444 51.4425 99.2887 50.125 99.4375C47.7431 99.7064 46.1555 99.9222 44 101C42.5628 94.2268 41.4329 87.446 40.4649 80.5898C40.2685 78.0781 40.2685 78.0781 39 77C38.7065 71.2127 39.3899 66.2645 40.875 60.6875C41.0491 59.9856 41.2231 59.2837 41.4024 58.5605C42.2536 55.2535 43.0883 52.8675 45 50C49.7518 50.432 51.92 51.3277 55 55C53.0825 51.3567 51.8429 49.5111 48 48C42.9806 47.2131 39.143 47.353 34.6875 49.875C26.4844 58.1013 24.5982 70.2673 24.5625 81.375C24.5587 82.227 24.5548 83.079 24.5508 83.9568C24.6945 92.1022 26.5521 99.4962 28.9063 107.254C30 111 30 111 30 114C27.9976 113.681 25.9979 113.346 24 113C22.9772 112.927 22.9772 112.927 21.9336 112.852C20 112 20 112 18.7696 109.27C18.4537 108.129 18.1379 106.988 17.8125 105.812C17.489 104.685 17.1654 103.557 16.8321 102.395C12.2295 83.6167 13.4981 63.6901 23.3125 46.875C28.4336 39.5259 33.5885 34.5839 43 36Z" fill="#E0A176"/>
<path d="M47.9999 47C52.1896 48.6937 54.1474 50.8831 56 55C55.67 55.99 55.3399 56.98 54.9999 58C54.1956 56.546 54.1956 56.546 53.3749 55.0625C51.3016 51.714 51.3016 51.714 47.8515 51.3086C46.44 51.1559 46.44 51.1559 44.9999 51C44.351 53.0615 43.7059 55.1243 43.0624 57.1875C42.7028 58.3361 42.3432 59.4846 41.9726 60.668C40.3224 66.3211 39.7206 71.1335 39.9999 77C40.3106 77.5608 40.6213 78.1215 40.9414 78.6992C42.5699 82.2388 42.7356 85.9013 43.1249 89.75C43.2113 90.5428 43.2977 91.3356 43.3867 92.1524C43.5979 94.1008 43.7999 96.0503 43.9999 98C47.7705 99.2569 50.1385 98.8275 53.9999 98C56.0195 97.064 56.0195 97.064 57 95C59.5014 83.4023 58.439 70.4986 56 59C56.495 59.99 56.495 59.99 57 61C57.66 61 58.32 61 59 61C60.3685 66.9788 60.2234 72.8933 60.25 79C60.2706 80.1563 60.2912 81.3126 60.3125 82.5039C60.3618 93.5467 58.6528 103.762 53.5624 113.625C52.9862 114.772 52.41 115.92 51.8164 117.102C50.0654 119.896 48.831 121.37 45.9999 123C41.9774 123.599 40.4982 123.347 37.1249 121C36.4237 120.34 35.7224 119.68 34.9999 119C37.0894 121.984 39.2204 124.632 41.9999 127C46.3163 127.694 46.3163 127.694 49.9999 126C61.0037 116.841 65.1082 98.9607 66.7978 85.3164C67.6323 75.7535 68.0807 65.4102 66 56C66.99 56.33 67.98 56.66 69 57C69.0753 61.4433 69.1291 65.8863 69.1647 70.3301C69.1796 71.835 69.2 73.3399 69.2263 74.8447C69.4478 87.8611 68.035 99.867 63.125 112.063C62.6532 113.27 62.1814 114.478 61.6953 115.723C59.8768 119.238 57.9292 121.366 54.9999 124C54.4031 124.571 53.8063 125.142 53.1914 125.73C49.6386 128.908 46.7389 130.844 41.9999 132C37.144 127.522 32.9716 122.957 29.9999 117C29.9999 116.34 29.9999 115.68 29.9999 115C28.6799 114.67 27.3599 114.34 25.9999 114C27.3199 114 28.6399 114 29.9999 114C29.6506 112.831 29.3013 111.662 28.9414 110.457C28.4816 108.909 28.022 107.361 27.5624 105.813C27.3324 105.044 27.1023 104.275 26.8652 103.482C24.7145 96.22 23.8181 89.8297 23.8124 82.25C23.8002 81.3941 23.788 80.5381 23.7753 79.6563C23.7514 69.1355 25.9491 59.481 32.5312 51.0352C37.1334 46.4221 41.701 45.9306 47.9999 47Z" fill="#161A1C"/>
<path d="M110 33C114.112 36.5154 116.201 39.6101 117 45C116.29 45.3261 115.58 45.6522 114.848 45.9883C113.929 46.4252 113.01 46.8622 112.063 47.3125C111.146 47.7417 110.23 48.171 109.285 48.6133C106.69 49.8508 106.69 49.8508 106 53C106.496 52.7344 106.993 52.4689 107.504 52.1953C113.229 49.2187 118.435 47 125 47C125 47.66 125 48.32 125 49C123.02 49.66 121.04 50.32 119 51C119.058 51.7618 119.116 52.5236 119.176 53.3086C119.596 62.9174 117.276 68.5718 110.938 75.6875C104.923 81.3831 95.8596 86.0828 87.5001 86.25C86.7266 86.2758 85.9532 86.3015 85.1563 86.3281C82.4537 85.9168 81.6443 85.1455 80.0001 83C76.8664 73.5991 75.8369 54.8457 80.1031 45.6128C83.2973 41.6634 87.395 39.925 92.0001 38C93.9626 36.7775 95.9213 35.5489 97.8751 34.3125C102.319 32.0553 105.179 31.0149 110 33Z" fill="#BDEBEC"/>
<path d="M127.125 105.875C128.074 105.916 129.022 105.957 130 106C129.25 110.75 129.25 110.75 127 113C126.835 114.031 126.67 115.062 126.5 116.125C124.982 121.87 119.78 124.974 115 128C111.942 129.192 110.147 129.686 107 130C105.277 130.195 105.277 130.195 103.52 130.395C95.982 131.083 89.3027 131.079 82 129C91.0084 132.861 101.221 133.847 110.629 130.84C112.692 129.949 114.734 129.006 116.742 127.996C117.487 127.667 118.232 127.339 119 127C119.66 127.33 120.32 127.66 121 128C112.938 134.929 106.686 138.393 96 140C95.2266 140.177 94.4531 140.353 93.6562 140.535C82.9396 142.411 72.8243 142.003 63.1875 136.703C60.918 134.936 60.0171 133.658 59 131C59.9281 130.278 60.8562 129.556 61.8125 128.812C64.0535 126.971 65.1554 125.741 66.6875 123.188C67.1206 122.466 67.5538 121.744 68 121C68.99 121 69.98 121 71 121C70.34 120.34 69.68 119.68 69 119C69.327 116.384 69.8204 114.359 71 112C72.7112 112.24 72.7112 112.24 74.457 112.484C85.405 113.842 96.2742 113.682 106.949 110.793C111.134 109.705 115.358 109.122 119.637 108.527C123.086 107.758 123.359 106.026 127.125 105.875Z" fill="#0D1C2D"/>
<path d="M135 72C135.66 72 136.32 72 137 72C137.088 75.1873 137.141 78.3743 137.188 81.5625C137.213 82.4578 137.238 83.353 137.264 84.2754C137.326 89.9728 137.069 94.1176 134 99C131.671 100.838 129.2 102.042 126.5 103.25C125.786 103.587 125.072 103.924 124.336 104.272C118.723 106.85 113.075 108.818 107 110C106.149 110.184 105.298 110.369 104.422 110.559C99.4054 111.206 94.4273 111.144 89.375 111.125C87.8204 111.131 87.8204 111.131 86.2344 111.137C85.2366 111.135 84.2389 111.134 83.2109 111.133C82.3065 111.132 81.4021 111.131 80.4702 111.129C78 111 78 111 74 110C74.66 103.4 75.32 96.8 76 90C78.8256 89.8969 81.6512 89.7938 84.5625 89.6875C102.503 88.7974 119.181 84.5852 134 74C134.33 73.34 134.66 72.68 135 72Z" fill="#59292C"/>
<path d="M59 37C62.9241 36.5215 65.3742 36.9141 68.625 39.0625C73.1438 42.6896 75.64 46.0423 76.3438 51.8242C77.0663 77.2644 71.5705 110.633 54 130C50.9375 132 50.9375 132 48 133C45.8164 132.063 45.8164 132.063 44 131C44.5079 130.72 45.0158 130.441 45.5391 130.152C50.2078 127.433 53.4919 124.655 56.7734 120.355C57.1782 119.908 57.583 119.461 58 119C58.66 119 59.32 119 60 119C61.76 113.808 63.4695 108.601 65.125 103.375C65.4576 102.331 65.7902 101.287 66.1328 100.211C67.7475 94.2324 68.1661 88.2649 68.3164 82.0977C68.3372 81.3751 68.358 80.6526 68.3794 79.9081C68.4442 77.6263 68.5034 75.3445 68.5625 73.0625C68.6058 71.5046 68.6494 69.9466 68.6934 68.3887C68.7998 64.5926 68.9012 60.7964 69 57C68.01 57.495 68.01 57.495 67 58C67.495 59.485 67.495 59.485 68 61C69.7233 81.0423 67.2196 107.133 54.125 123.438C51.5793 125.954 49.4395 127.64 45.9375 128.5C41.1275 127.889 39.5498 126.422 36.3477 122.957C34.959 120.94 34.4194 119.394 34 117C35.2994 118.238 35.2994 118.238 36.625 119.5C39.0721 121.542 39.8939 121.985 43.1875 122.438C46.1991 122.171 46.1991 122.171 49 120C49.99 120 50.98 120 52 120C52.66 118.35 53.32 116.7 54 115C54.66 115 55.32 115 56 115C57.0028 111.945 57.9725 108.88 58.9375 105.813C59.2153 104.968 59.4931 104.123 59.7793 103.252C63.3845 91.6545 63.2154 79.6138 63.3125 67.5625C63.3415 66.336 63.3705 65.1094 63.4004 63.8457C63.4893 55.1195 63.4893 55.1195 59 48C59.33 47.34 59.66 46.68 60 46C60.99 46.99 61.98 47.98 63 49C63.66 48.34 64.32 47.68 65 47C66.485 48.98 66.485 48.98 68 51C65.9094 47.6705 64.0806 45.0788 61.25 42.3125C59 40 59 40 59 37Z" fill="#D69A70"/>
<path d="M45 50C48.6477 50.2487 50.4695 50.4534 53.0625 53.125C60.9521 64.8322 60.2181 81.6915 58 95C56.515 95.495 56.515 95.495 55 96C54.67 96.99 54.34 97.98 54 99C52.7212 99.1444 51.4425 99.2887 50.125 99.4375C47.743 99.7064 46.1554 99.9223 44 101C42.5628 94.2268 41.4328 87.446 40.4648 80.5898C40.2684 78.0781 40.2684 78.0781 39 77C38.7065 71.2127 39.3899 66.2645 40.875 60.6875C41.049 59.9856 41.223 59.2837 41.4023 58.5605C42.2535 55.2535 43.0883 52.8676 45 50Z" fill="#7198A2"/>
<path d="M21 113C24.2547 113.159 27.0172 113.657 30 115C31.7137 117.208 32.8645 119.53 34.1641 122.004C40.0227 131.565 50.0571 141.089 61 144C70.7266 145.326 80.4457 144.128 89.9619 141.981C93.1904 141.255 94.785 140.928 98 142C89.5377 145.385 80.9967 146.122 72 147C72 150.3 72 153.6 72 157C72.99 157 73.98 157 75 157C75.66 157.66 76.32 158.32 77 159C76.34 157.35 75.68 155.7 75 154C76.8867 154.27 76.8867 154.27 79 155C81.2936 158.469 82.0329 162.146 81.875 166.25C80.9427 169.18 80.1438 170.804 78 173C75.5195 173.172 75.5195 173.172 72.8125 172.75C71.9114 172.621 71.0104 172.492 70.082 172.359C69.395 172.241 68.7079 172.122 68 172C67.505 172.99 67.505 172.99 67 174C66.3194 172.608 66.3194 172.608 65.625 171.188C64.0578 167.961 64.0578 167.961 62 165C61.4358 159.98 61.9887 154.93 63 150C61.1128 149.722 61.1128 149.722 59.1875 149.438C52.2409 147.91 45.8387 143.923 40.8984 138.836C38.9805 136.69 38.9805 136.69 35.4375 136C31.7752 134.935 30.8352 134.239 29 131C29.66 130.34 30.32 129.68 31 129C30.2884 127.422 30.2884 127.422 29.5625 125.812C28.3068 122.898 27.4777 120.153 27 117C26.3813 116.897 25.7625 116.794 25.125 116.688C23 116 23 116 21 113Z" fill="#211717"/>
<path d="M43.9999 49C43.9999 49.66 43.9999 50.32 43.9999 51C43.3399 51 42.6799 51 41.9999 51C41.902 51.5362 41.804 52.0725 41.7031 52.625C40.6264 58.2683 39.361 63.8571 37.9999 69.4375C37.834 70.1355 37.668 70.8336 37.497 71.5527C36.6809 74.8462 35.903 77.1454 33.9999 80C34.2106 84.5291 35.8186 87.7393 37.8789 91.6484C40.6395 97.4391 42.9999 103.563 42.9999 110C43.9899 110 44.9799 110 45.9999 110C47.0677 111.965 48.0655 113.969 48.9999 116C48.6699 116.66 48.3399 117.32 47.9999 118C42.4916 117.46 38.4082 116.865 34.7226 112.48C26.15 100.104 25.6698 85.5149 26.9999 71C28.3889 63.4076 31.4017 56.4583 36.9999 51C39.6696 49.3836 40.8131 49 43.9999 49Z" fill="#658992"/>
<path d="M119 51C119.735 60.6502 118.418 66.2895 112.531 73.8984C107.141 79.949 98.0222 85.4327 89.8438 86.2031C89.0703 86.2186 88.2969 86.2341 87.5 86.25C86.7266 86.2758 85.9531 86.3016 85.1562 86.3281C83 86 83 86 81.2812 84.9219C79.4022 82.1033 79.3134 79.3222 79 76C79.941 75.7577 80.882 75.5153 81.8516 75.2656C83.0968 74.9305 84.342 74.5953 85.625 74.25C87.4696 73.7627 87.4696 73.7627 89.3516 73.2656C95.8074 71.0261 100.073 67.5635 104 62C104.227 60.8244 104.454 59.6488 104.688 58.4375C106.494 53.7052 109.152 52.8413 113.59 50.75C116 50 116 50 119 51Z" fill="#7DB7BC"/>
<path d="M135 73C135 76 135 76 132.438 78.6875C128.123 82.2461 123.218 84.6953 118.244 87.196C114.987 88.8485 112.549 90.431 110 93C107.62 94.3747 105.251 95.6771 102.812 96.9375C102.139 97.2901 101.466 97.6428 100.772 98.0061C98.851 99.0097 96.9259 100.005 95 101C93.7006 101.681 93.7006 101.681 92.375 102.375C87.4883 104.892 87.4883 104.892 84.8555 105.473C84.2432 105.647 83.6309 105.821 83 106C82.67 106.66 82.34 107.32 82 108C91.24 108 100.48 108 110 108C103.888 112.074 96.4755 111.152 89.375 111.125C87.8204 111.131 87.8204 111.131 86.2344 111.137C85.2366 111.135 84.2389 111.134 83.2109 111.133C82.3065 111.132 81.4021 111.131 80.4702 111.129C78 111 78 111 74 110C74.66 103.4 75.32 96.8 76 90C78.8256 89.8969 81.6512 89.7938 84.5625 89.6875C103.058 88.7698 120.049 84.3378 135 73Z" fill="#A5573C"/>
<path d="M68 121C71.4791 122.271 74.2609 123.762 77.25 125.938C86.3643 132.039 96.1661 133.58 107 132C110.432 130.903 113.526 129.613 116.742 127.996C117.487 127.667 118.232 127.339 119 127C119.66 127.33 120.32 127.66 121 128C112.938 134.929 106.686 138.393 96 140C95.2266 140.177 94.4531 140.353 93.6562 140.535C82.9396 142.411 72.8243 142.003 63.1875 136.703C60.918 134.936 60.0171 133.658 59 131C59.9281 130.278 60.8562 129.556 61.8125 128.812C64.5884 126.516 66.3383 124.231 68 121Z" fill="#5D292C"/>
<path d="M44.4375 41.25C45.1787 41.317 45.9199 41.384 46.6836 41.4531C49.6892 42.1627 51.5519 43.0959 54 45C55.582 48.0312 55.582 48.0312 56.8125 51.5C57.2314 52.6447 57.6504 53.7894 58.082 54.9687C59 58 59 58 59 61C58.34 61 57.68 61 57 61C57 60.34 57 59.68 57 59C56.34 58.67 55.68 58.34 55 58C54.8762 57.2369 54.7525 56.4737 54.625 55.6875C53.8538 52.3711 52.5623 51.174 50 49C46.2571 47.1285 42.0763 47.4724 38 48C31.5945 51.6257 28.4095 58.0311 26.4314 65.0044C25.0996 70.4759 24.5805 75.7515 24.5625 81.375C24.5586 82.227 24.5548 83.079 24.5508 83.9568C24.6945 92.1022 26.5521 99.4962 28.9062 107.254C30 111 30 111 30 114C27.9976 113.681 25.9979 113.346 24 113C22.981 112.923 22.981 112.923 21.9414 112.844C20 112 20 112 18.6992 109.34C16.7418 102.757 15.4129 97.7453 17 91C17.33 92.32 17.66 93.64 18 95C18.66 95 19.32 95 20 95C19.9843 94.4173 19.9686 93.8347 19.9524 93.2344C19.6614 80.7389 20.0672 69.1852 23 57C23.66 57.33 24.32 57.66 25 58C27.3591 53.7363 27.3591 53.7363 28 49C29.32 48.67 30.64 48.34 32 48C31.34 46.68 30.68 45.36 30 44C39.5557 40.7423 39.5557 40.7423 44.4375 41.25Z" fill="#B5674B"/>
<path d="M139 101C139.66 101 140.32 101 141 101C139.462 112.972 131.061 124.226 121.801 131.668C108.907 141.465 95.7749 146.925 80 150C80 152.63 80.9913 153.554 82.5 155.688C85.0153 159.639 85.7035 162.251 85 167C83.6039 170.3 81.9863 173.021 80 176C75.4377 176.368 71.9276 176.618 68 174C68 173.34 68 172.68 68 172C71.3 172 74.6 172 78 172C79.8637 169.204 81.0985 167.089 80.7891 163.668C80.109 160.618 79.4006 157.801 78 155C77.34 155 76.68 155 76 155C76.3506 155.577 76.7012 156.155 77.0625 156.75C78.1492 159.358 77.9307 160.394 77 163C76.34 161.02 75.68 159.04 75 157C74.01 157 73.02 157 72 157C72 153.7 72 150.4 72 147C78.93 145.68 85.86 144.36 93 143C90.0641 143 87.2344 143.225 84.3125 143.5C83.3186 143.593 82.3248 143.686 81.3008 143.781C80.1619 143.89 80.1619 143.89 79 144C78.34 143.01 77.68 142.02 77 141C77.825 140.963 78.65 140.925 79.5 140.887C95.2022 139.993 107.796 138.741 120 128C121.34 126.338 122.673 124.672 124 123C125.249 122.037 125.249 122.037 126.523 121.055C129.39 118.676 130.817 116.37 132.625 113.125C133.48 111.613 133.48 111.613 134.352 110.07C135.96 107.074 137.497 104.051 139 101Z" fill="#171112"/>
<path d="M126 49C130.587 56.6939 130.587 56.6939 131 60C131.144 61.0725 131.289 62.145 131.438 63.25C130.688 69.6725 126.503 73.8555 121.75 78C119 80 119 80 117 80C117 80.66 117 81.32 117 82C115.484 82.656 113.962 83.2993 112.438 83.9375C111.591 84.2972 110.744 84.6568 109.871 85.0274C104.003 87.0155 98.2116 87.1169 92.0625 87.0625C91.3787 87.058 90.6948 87.0535 89.9902 87.0489C88.3268 87.0372 86.6634 87.0193 85 87C85 86.67 85 86.34 85 86C85.5827 85.9253 86.1653 85.8505 86.7656 85.7735C98.7223 83.8559 107.863 78.8454 115 69C118.784 63.5073 118.696 57.4831 119 51C118.34 50.67 117.68 50.34 117 50C120.196 48.9346 122.657 48.9257 126 49Z" fill="#25445E"/>
<path d="M92.8765 21.7466C94.7606 22.6357 96.6001 23.5806 98.4375 24.5625C99.0737 24.8918 99.7098 25.2212 100.365 25.5605C101.915 26.3645 103.458 27.181 105 28C102.074 29.9507 99.1328 31.4698 96 33.0625C89.2639 36.646 83.7297 40.9363 78 46C77.233 45.2227 76.466 44.4454 75.6758 43.6445C73.2307 41.228 70.719 39.0975 68 37C69.4599 31.6469 72.9891 28.5797 77 25C77.5839 24.4741 78.1679 23.9481 78.7695 23.4062C79.3406 22.9422 79.9116 22.4781 80.5 22C81.0053 21.5875 81.5106 21.175 82.0312 20.75C85.7104 19.3484 89.2999 20.3236 92.8765 21.7466Z" fill="#E19D71"/>
<path d="M102 19C102.865 19.4395 103.73 19.8791 104.621 20.332C117.834 27.9067 127.939 39.6745 135 53C135.418 53.7193 135.835 54.4386 136.266 55.1797C137 57 137 57 136 60C135.741 59.3915 135.482 58.7831 135.215 58.1562C126.004 39.0014 108.964 27.1373 90 19C79.6815 15.5605 69.2618 18.3158 59.8579 22.9892C54.3691 25.9753 48.42 29.58 44 34C42.4853 34.2319 40.9625 34.4121 39.4375 34.5625C38.1981 34.6882 38.1981 34.6882 36.9336 34.8164C36.2955 34.877 35.6574 34.9376 35 35C50.586 18.5174 80.982 8.18236 102 19Z" fill="#E4C3A9"/>
<path d="M42 51C42.66 51 43.32 51 44 51C43.7113 52.2066 43.4225 53.4131 43.125 54.6562C42.7495 56.2707 42.3746 57.8853 42 59.5C41.8092 60.2915 41.6184 61.083 41.4219 61.8984C39.8768 68.6305 38.6863 74.6628 42 81C42.5399 83.8986 42.8284 86.8178 43.125 89.75C43.2114 90.5428 43.2977 91.3355 43.3867 92.1523C43.598 94.1008 43.7999 96.0503 44 98C47.7316 99.2439 50.1802 98.7781 54 98C54.33 97.34 54.66 96.68 55 96C55.66 96 56.32 96 57 96C55.4355 101.614 53.836 106.868 51 112C48 111 48 111 46.3125 107.938C45.8794 106.968 45.4462 105.999 45 105C45 106.65 45 108.3 45 110C44.34 110 43.68 110 43 110C42.6971 108.961 42.3941 107.922 42.082 106.852C39.2619 97.3564 39.2619 97.3564 35.125 88.375C33.5501 85.4084 33 84.245 33 80.8125C34 78 34 78 35.4297 74.8711C37.1984 70.7723 38.176 66.6001 39.125 62.25C40.916 54.252 40.916 54.252 42 51Z" fill="#2E373B"/>
<path d="M77 114C77.7013 114.144 78.4025 114.289 79.125 114.438C80.5481 114.716 80.5481 114.716 82 115C82.883 115.174 83.766 115.348 84.6758 115.527C88.4878 116.069 92.2219 116.149 96.0625 116.125C96.8026 116.123 97.5427 116.121 98.3052 116.119C104.048 116.075 109.74 115.74 115.461 115.219C118 115 118 115 121 115C120.875 116.75 120.875 116.75 120 119C113.519 124.484 104.923 126.705 96.5117 126.414C88.7317 125.132 82.5588 120.317 77 115C77 114.67 77 114.34 77 114Z" fill="#275063"/>
<path d="M45 50C48.7715 50.1676 50.5088 50.5225 53.25 53.1875C56.7823 58.8645 57.2247 63.4829 57 70C49.7384 70.4923 49.7384 70.4923 46 68C45.34 67.34 44.68 66.68 44 66C43.01 67.98 42.02 69.96 41 72C40.67 72 40.34 72 40 72C39.4097 64.4745 41.4244 58.0441 44 51C44.33 50.67 44.66 50.34 45 50Z" fill="#BCE4E9"/>
<path d="M21 113C24.2547 113.159 27.0172 113.657 30 115C31.7137 117.208 32.8645 119.53 34.1641 122.004C40.0227 131.565 50.0571 141.089 61 144C70.7266 145.326 80.4457 144.128 89.9619 141.981C93.1904 141.255 94.785 140.928 98 142C89.5377 145.385 80.9967 146.122 72 147C72 150.3 72 153.6 72 157C72.99 157 73.98 157 75 157C76.4783 159.957 76.0603 162.742 76 166C74.68 166 73.36 166 72 166C70.1932 161.376 69.7816 157.575 69.875 152.625C69.893 151.38 69.9111 150.135 69.9297 148.852C69.9529 147.911 69.9761 146.97 70 146C69.322 146.046 68.6439 146.093 67.9453 146.141C59.3577 146.474 52.9902 144.713 45.875 139.875C44 138 44 138 44 136C43.4238 135.758 42.8476 135.515 42.2539 135.266C36.3538 131.953 31.3782 125.243 29 119C29 118.01 29 117.02 29 116C27.02 116.33 25.04 116.66 23 117C22.34 115.68 21.68 114.36 21 113Z" fill="#703E33"/>
<path d="M44 49C44 49.66 44 50.32 44 51C43.34 51 42.68 51 42 51C41.9021 51.5362 41.8041 52.0725 41.7032 52.625C40.6279 58.2608 39.3884 63.8561 38.0625 69.4375C37.9049 70.1355 37.7474 70.8336 37.585 71.5527C36.7122 75.1452 36.0314 77.7286 33 80C33.33 78.35 33.66 76.7 34 75C32.68 74.34 31.36 73.68 30 73C29.07 76.7201 28.9732 80.171 29.0313 83.9961C28.9887 86.725 28.5343 89.3289 28 92C27.67 92 27.34 92 27 92C26.4663 77.3931 26.0555 64.6079 35.4375 52.5234C38.1554 49.8735 40.2059 49 44 49Z" fill="#ABD0D9"/>
<path d="M29 45C29.99 45.33 30.98 45.66 32 46C32 46.99 32 47.98 32 49C30.68 49.33 29.36 49.66 28 50C28.33 50.99 28.66 51.98 29 53C27.125 56.1875 27.125 56.1875 25 59C24.67 59 24.34 59 24 59C20.7608 70.9383 20.3025 82.6961 20 95C19.34 95 18.68 95 18 95C17.34 95.66 16.68 96.32 16 97C14.4391 91.7325 14.8157 86.3212 14.8125 80.875C14.8003 79.7651 14.788 78.6552 14.7754 77.5117C14.7735 76.4534 14.7715 75.3951 14.7695 74.3047C14.7654 73.3352 14.7613 72.3656 14.7571 71.3667C15 69 15 69 17 67C17.508 65.5793 17.9605 64.1382 18.375 62.6875C19.634 58.7069 21.2515 56.1779 24 53C25.0156 51.0079 26.0179 49.0088 27 47C27.66 46.34 28.32 45.68 29 45Z" fill="#E49F6E"/>
<path d="M79 21C76.1109 24.555 73.2595 27.9237 69.6875 30.8125C66.9692 32.7187 66.9692 32.7187 66 35C60.2141 35.1048 54.7069 34.9925 49 34C55.5296 24.843 67.9576 20.4479 79 21Z" fill="#A8C8D1"/>
<path d="M66 56C66.99 56.33 67.98 56.66 69 57C69.0754 61.4433 69.1292 65.8863 69.1648 70.3301C69.1797 71.835 69.2 73.3399 69.2263 74.8447C69.4479 87.8611 68.035 99.867 63.125 112.062C62.4173 113.874 62.4173 113.874 61.6953 115.723C59.8769 119.238 57.9292 121.366 55 124C54.4032 124.571 53.8063 125.142 53.1914 125.73C49.6387 128.908 46.7389 130.844 42 132C32.091 122.335 32.091 122.335 31.8125 118.25C31.8744 117.507 31.9363 116.765 32 116C33.6955 117.609 35.1465 119.197 36.543 121.078C39.5229 125.014 40.9222 126.829 45.9375 127.625C50.7103 126.388 53.3027 123.134 56.1133 119.258C66.4991 101.324 70.4701 76.2164 66 56Z" fill="#2C1A19"/>
<path d="M59 37C62.9241 36.5215 65.3742 36.9141 68.625 39.0625C72.1023 41.8537 74.7667 44.6464 76 49C76.5531 55.7796 76.2512 62.317 75 69C71.865 65.5047 70.9295 61.6758 69.75 57.25C68.0281 51.2086 66.155 46.9529 61.4531 42.5782C59.7751 40.7558 59.3991 39.4157 59 37Z" fill="#E2B08F"/>
<path d="M75 154C76.8867 154.27 76.8867 154.27 79 155C81.2936 158.469 82.0329 162.146 81.875 166.25C80.9427 169.18 80.1438 170.804 78 173C75.5195 173.172 75.5195 173.172 72.8125 172.75C71.9114 172.621 71.0104 172.492 70.082 172.359C69.395 172.241 68.7079 172.122 68 172C67.67 172.66 67.34 173.32 67 174C66.3194 172.608 66.3194 172.608 65.625 171.188C64.0578 167.961 64.0578 167.961 62 165C61.8047 162.738 61.8047 162.738 61.875 160.312C61.893 159.504 61.9111 158.696 61.9297 157.863C61.9529 157.248 61.9761 156.634 62 156C62.99 155.67 63.98 155.34 65 155C65.125 160.75 65.125 160.75 64 163C65.65 163 67.3 163 69 163C69.33 162.01 69.66 161.02 70 160C70.33 160 70.66 160 71 160C71.66 161.98 72.32 163.96 73 166C73.66 166 74.32 166 75 166C76.1074 159.956 76.1074 159.956 75 154Z" fill="#332B2C"/>
<path d="M135 73C135 76 135 76 132.375 78.75C118.697 89.7688 100.288 94.2426 83 94.0625C81.8656 94.0535 80.7313 94.0445 79.5625 94.0352C78.7169 94.0236 77.8712 94.012 77 94C77 92.68 77 91.36 77 90C78.1254 89.9626 79.2507 89.9252 80.4102 89.8867C100.391 89.0938 118.75 85.3228 135 73Z" fill="#E4A575"/>
<path d="M121 49C121.767 52.7494 122.106 55.3492 121 59C120.897 60.0519 120.794 61.1037 120.688 62.1875C119.052 71.2591 114.181 80.1548 107 86C102 86.9976 97.1499 87.1075 92.0625 87.0625C91.3787 87.058 90.6948 87.0535 89.9902 87.0488C88.3268 87.0372 86.6634 87.0193 85 87C85 86.67 85 86.34 85 86C85.5827 85.9252 86.1653 85.8505 86.7656 85.7734C98.7223 83.8559 107.863 78.8454 115 69C118.784 63.5073 118.696 57.483 119 51C118.34 50.67 117.68 50.34 117 50C120 49 120 49 121 49Z" fill="#38566F"/>
<path d="M43 36C43.7979 36.0825 44.5959 36.165 45.418 36.25C52.0853 37.2423 56.6955 39.9255 62 44C58.9451 44 56.8408 43.4561 53.9375 42.5625C53.0596 42.2957 52.1818 42.0288 51.2773 41.7539C49 41 49 41 47 40C40.3908 38.8961 36.3214 40.4816 30.9453 44.2969C26.923 47.8184 24.5396 52.3576 22 57C21.4638 57.9694 20.9275 58.9387 20.375 59.9375C18.7327 63.5952 17.8763 67.0905 17 71C16.67 71 16.34 71 16 71C16.2912 59.0351 20.7729 48.6862 29 40C33.5518 36.0293 37.1331 35.3331 43 36Z" fill="#E7CAAA"/>
<path d="M69 61C69.33 61 69.66 61 70 61C70.33 67.6 70.66 74.2 71 81C71.66 81 72.32 81 73 81C70.9644 96.768 66.669 118.855 54.1875 129.938C51 132 51 132 48 133C45.8125 132.062 45.8125 132.062 44 131C44.5079 130.72 45.0158 130.441 45.5391 130.152C50.2078 127.433 53.4919 124.654 56.7734 120.355C57.1782 119.908 57.583 119.461 58 119C58.66 119 59.32 119 60 119C61.76 113.808 63.4695 108.601 65.125 103.375C65.4576 102.331 65.7902 101.287 66.1328 100.211C67.6716 94.5131 68.1334 88.8558 68.3164 82.9727C68.3583 81.6868 68.4002 80.401 68.4434 79.0762C68.4832 77.7383 68.5229 76.4004 68.5625 75.0625C68.6058 73.6973 68.6494 72.332 68.6934 70.9668C68.799 67.6446 68.9011 64.3224 69 61Z" fill="#5A3C34"/>
<path d="M63 89C63.66 89 64.32 89 65 89C66.1461 101.034 61.8355 112.915 54.625 122.5C51.9528 125.432 49.7877 127.67 45.875 128.625C41.1795 127.868 39.499 126.367 36.3477 122.957C34.959 120.94 34.4194 119.394 34 117C34.8662 117.825 35.7325 118.65 36.625 119.5C39.0721 121.542 39.8939 121.985 43.1875 122.438C46.1991 122.171 46.1991 122.171 49 120C49.99 120 50.98 120 52 120C52.66 118.35 53.32 116.7 54 115C54.66 115 55.32 115 56 115C56.9853 111.794 57.9621 108.585 58.9375 105.375C59.2153 104.471 59.4931 103.568 59.7793 102.637C61.1516 98.1066 62.3821 93.7084 63 89Z" fill="#AC593F"/>
<path d="M71 112C73.64 112.33 76.28 112.66 79 113C79 113.99 79 114.98 79 116C81.0489 117.859 81.0489 117.859 83.6875 119.562C84.5576 120.162 85.4278 120.761 86.3242 121.379C88.8336 122.899 91.2471 124.003 94 125C94 125.66 94 126.32 94 127C95.65 127 97.3 127 99 127C99 127.33 99 127.66 99 128C92.1706 128.455 87.1877 127.31 80.7969 124.875C78.0572 123.863 78.0572 123.863 75.2891 124.012C73 124 73 124 70.625 121.812C69 119 69 119 69.1875 116.312C70 114 70 114 71 112Z" fill="#0F2132"/>
<path d="M131 63C133.219 66.3281 133 67.2049 133 71C133.66 71.99 134.32 72.98 135 74C121.465 82.798 108.522 89.6094 92 89C94.6726 86.3274 96.5297 86.5084 100.25 86.0625C105.109 85.3929 108.697 84.4271 113 82C114.32 82 115.64 82 117 82C117 81.34 117 80.68 117 80C118.445 79.0591 119.891 78.12 121.344 77.1914C126.421 73.539 128.852 68.6522 131 63Z" fill="#15161E"/>
<path d="M63 66C63.33 66 63.66 66 64 66C64.0616 71.3347 64.0534 76.6653 64 82C63.9961 83.0738 63.9923 84.1476 63.9883 85.2539C63.7184 92.392 62.1112 98.9252 60.125 105.75C59.8683 106.645 59.6116 107.54 59.3472 108.462C59.0908 109.294 58.8344 110.127 58.5703 110.984C58.341 111.734 58.1117 112.484 57.8755 113.257C57 115 57 115 54 116C52.7912 118 52.7912 118 52 120C51.34 119.67 50.68 119.34 50 119C50.3983 118.212 50.7966 117.425 51.207 116.613C58.3853 101.855 59.5852 88.1572 60 72C60.66 72 61.32 72 62 72C62.33 70.02 62.66 68.04 63 66Z" fill="#D59C7C"/>
<path d="M48 47C52.1896 48.6937 54.1474 50.8832 56 55C55.67 55.99 55.34 56.98 55 58C54.4844 57.0307 53.9687 56.0613 53.4375 55.0625C51.2356 51.6461 51.2356 51.6461 47.25 51.125C45.6412 51.0632 45.6412 51.0632 44 51C44 50.34 44 49.68 44 49C36.2701 52.1444 33.3542 55.5922 30.0664 63.1446C27.2251 71.1245 27.2819 79.6203 27 88C26.67 88 26.34 88 26 88C25.9394 87.264 25.8788 86.5279 25.8164 85.7696C25.7326 84.7937 25.6488 83.8179 25.5625 82.8125C25.4813 81.8496 25.4001 80.8867 25.3164 79.8946C25.0563 77.0325 25.0563 77.0325 24.4258 74.3985C23.1155 67.0179 27.1369 59.0721 31 53C35.6934 46.9776 40.5515 45.7354 48 47Z" fill="#25201F"/>
<path d="M78 49C78.33 49 78.66 49 79 49C79.0146 49.9129 79.0292 50.8258 79.0442 51.7664C79.1054 55.168 79.1796 58.5688 79.2624 61.97C79.2956 63.4393 79.3237 64.9087 79.3464 66.3782C79.3801 68.4961 79.4325 70.613 79.4883 72.7305C79.5145 74.003 79.5406 75.2756 79.5676 76.5867C80.0242 80.1907 80.8254 82.1222 83 85C85.2963 86.1481 87.077 86.3077 89.625 86.5625C90.4423 86.6463 91.2595 86.7301 92.1016 86.8164C93.0413 86.9073 93.0413 86.9073 94 87C94.33 87.99 94.66 88.98 95 90C89.39 89.67 83.78 89.34 78 89C77.67 86.03 77.34 83.06 77 80C76.01 81.485 76.01 81.485 75 83C74.1614 76.0981 73.9841 69.8858 75 63C75.33 63 75.66 63 76 63C76.0606 62.2407 76.1212 61.4815 76.1836 60.6992C76.3093 59.2084 76.3093 59.2084 76.4375 57.6875C76.5187 56.7014 76.5999 55.7152 76.6836 54.6992C77 52 77 52 78 49Z" fill="#372F33"/>
<path d="M20 78C20.33 78 20.66 78 21 78C21.1096 79.1602 21.2192 80.3203 21.3321 81.5156C22.6858 97.9935 22.6858 97.9935 29 113C25.1268 114.291 23.6374 113.773 20 112C16.407 105.377 15.2847 98.2901 17 91C17.33 92.32 17.66 93.64 18 95C18.66 95 19.32 95 20 95C20 89.39 20 83.78 20 78Z" fill="#A56F5B"/>
<path d="M103 32C106.428 32.0686 109.048 32.2184 111.766 34.4492C114.848 37.8977 116.312 40.3586 117 45C115.952 45.5066 115.952 45.5066 114.883 46.0234C113.973 46.4695 113.063 46.9155 112.125 47.375C111.22 47.8159 110.315 48.2567 109.383 48.7109C106.905 49.905 106.905 49.905 105 52C105.023 50.9636 105.046 49.9272 105.07 48.8594C105.089 47.4896 105.107 46.1198 105.125 44.75C105.142 44.0681 105.159 43.3862 105.176 42.6836C105.212 38.9118 105.025 36.2204 103 33C103 32.67 103 32.34 103 32Z" fill="#9DCED3"/>
<path d="M100 21C108.268 22.0335 114.344 26.639 120 32.4375C120.602 33.0464 121.205 33.6553 121.825 34.2827C127.28 39.9708 131.314 46.0444 135 53C135.418 53.7193 135.835 54.4386 136.266 55.1797C137 57 137 57 136 60C135.611 59.0873 135.611 59.0873 135.215 58.1562C127.975 43.1017 114.225 29.8112 99 23C99.33 22.34 99.66 21.68 100 21Z" fill="#A56456"/>
<path d="M107 30C104.101 32.2986 101.168 34.0121 97.875 35.6875C92.8097 38.3967 88.49 41.583 84.0937 45.2656C82 47 82 47 79 49C77.8948 52.3155 77.6789 55.2041 77.4375 58.6875C77.3537 59.867 77.2699 61.0465 77.1836 62.2617C77.123 63.1654 77.0624 64.069 77 65C76.67 65 76.34 65 76 65C74.6046 59.0512 73.313 53.0052 75 47C79.1887 41.1246 85.8523 37.5312 92 34C93.0506 33.3593 94.1012 32.7187 95.1836 32.0586C99.6546 29.5611 101.935 28.6364 107 30Z" fill="#2D231D"/>
<path d="M76.9999 71C77.3299 71 77.6599 71 77.9999 71C77.9999 76.94 77.9999 82.88 77.9999 89C82.2899 89 86.5799 89 90.9999 89C90.9999 89.33 90.9999 89.66 90.9999 90C89.9519 90.0606 88.9039 90.1212 87.8242 90.1836C86.4452 90.268 85.0663 90.3527 83.6874 90.4375C82.9971 90.4768 82.3069 90.5161 81.5956 90.5566C78.5283 90.7493 75.9303 91.0232 72.9999 92C72.951 92.6033 72.902 93.2066 72.8515 93.8281C72.7394 95.027 72.7394 95.027 72.6249 96.25C72.5553 97.0389 72.4857 97.8278 72.414 98.6406C71.9849 101.086 71.2139 102.848 69.9999 105C68.2804 102.418 67.9779 101.2 68.3237 98.0674C68.7164 96.4021 68.7164 96.4021 69.1171 94.7031C69.3943 93.4979 69.6714 92.2926 69.957 91.0508C70.2599 89.7965 70.5628 88.5423 70.8749 87.25C71.1701 85.9803 71.4653 84.7105 71.7695 83.4023C72.5007 80.2651 73.2446 77.1315 73.9999 74C74.3299 74 74.6599 74 74.9999 74C75.3299 75.98 75.6599 77.96 75.9999 80C76.3299 77.03 76.6599 74.06 76.9999 71Z" fill="#24100E"/>
<path d="M44.4375 41.25C45.1787 41.317 45.9199 41.384 46.6836 41.4531C49.6892 42.1627 51.5519 43.0959 54 45C55.582 48.0312 55.582 48.0312 56.8125 51.5C57.2314 52.6447 57.6504 53.7894 58.082 54.9687C59 58 59 58 59 61C58.34 61 57.68 61 57 61C57 60.34 57 59.68 57 59C56.34 58.67 55.68 58.34 55 58C54.4369 55.7565 54.1077 53.5123 53.7578 51.2265C52.7672 48.316 51.6695 47.4794 49 46C44.1368 45.1092 40.09 45.4447 35.6875 47.6875C32.9853 50.0126 30.4476 52.4084 28 55C27.67 53.35 27.34 51.7 27 50C27.99 49.34 28.98 48.68 30 48C30.33 47.67 30.66 47.34 31 47C30.67 46.01 30.34 45.02 30 44C39.5557 40.7423 39.5557 40.7423 44.4375 41.25Z" fill="#A26C49"/>
<path d="M18 112C20.875 111.875 20.875 111.875 24 112C24.66 112.66 25.32 113.32 26 114C24.68 114 23.36 114 22 114C24.6194 115.746 26.0382 116.387 29 117C28.67 117.33 28.34 117.66 28 118C28.205 118.615 28.4099 119.23 28.6211 119.863C29.7474 123.242 30.8737 126.621 32 130C30.02 130.99 30.02 130.99 28 132C18.9514 120.114 18.9514 120.114 17 114C17.33 113.34 17.66 112.68 18 112Z" fill="#201B1A"/>
<path d="M27 117C27.66 117 28.32 117 29 117C29.3519 117.713 29.7038 118.426 30.0664 119.16C33.3358 125.503 36.6301 130.322 42 135C42.7335 135.654 43.467 136.307 44.2227 136.98C46.135 138.67 48.06 140.342 50 142C49.67 142.66 49.34 143.32 49 144C45.7041 142.964 44.0386 142.041 41.625 139.5C38.5254 136.548 36.0634 136.129 32 135C30.0625 132.875 30.0625 132.875 29 131C29.66 130.34 30.32 129.68 31 129C30.5256 127.948 30.0513 126.896 29.5625 125.812C28.3068 122.898 27.4777 120.153 27 117Z" fill="#1A1614"/>
<path d="M77 150C81.0799 152.867 83.2507 155.304 85 160C85.7145 166.669 83.6218 170.567 80 176C75.4377 176.368 71.9276 176.618 68 174C68 173.34 68 172.68 68 172C71.3 172 74.6 172 78 172C79.8637 169.204 81.0985 167.089 80.7891 163.668C80.109 160.618 79.4006 157.801 78 155C76.68 155 75.36 155 74 155C74 154.01 74 153.02 74 152C74.99 152 75.98 152 77 152C77 151.34 77 150.68 77 150Z" fill="#2D2729"/>
<path d="M24 74C26.3217 77.4825 26.502 80.2769 26.875 84.3125C27.5986 91.0596 29.049 97.2805 31.0469 103.781C32.3363 108.136 33.2173 112.53 34 117C33.01 117.66 32.02 118.32 31 119C30.67 117.68 30.34 116.36 30 115C28.68 114.67 27.36 114.34 26 114C27.32 114 28.64 114 30 114C29.6507 112.831 29.3013 111.662 28.9414 110.457C28.4817 108.909 28.022 107.361 27.5625 105.812C27.2174 104.659 27.2174 104.659 26.8652 103.482C24.7496 96.3383 23.861 90.1409 23.9375 82.6875C23.942 81.8515 23.9465 81.0156 23.9512 80.1543C23.9629 78.1028 23.9808 76.0514 24 74Z" fill="#322424"/>
<path d="M12 76C12.99 76.33 13.98 76.66 15 77C15.0258 77.9578 15.0515 78.9155 15.0781 79.9023C15.408 88.4025 16.4964 96.2782 18.7158 104.502C20.0948 109.715 20.0948 109.715 19 113C18.01 113.495 18.01 113.495 17 114C16.3473 111.981 15.7032 109.96 15.0625 107.938C14.7028 106.812 14.3432 105.687 13.9726 104.527C12.1265 97.8323 11.8653 91.4492 11.9375 84.5625C11.942 83.7356 11.9465 82.9086 11.9511 82.0566C11.9628 80.0377 11.9807 78.0189 12 76Z" fill="#191412"/>
<path d="M44 49C44 49.66 44 50.32 44 51C43.34 51 42.68 51 42 51C41.8788 51.6407 41.7577 52.2813 41.6328 52.9414C40.6432 58.0493 39.5149 63.0225 38 68C37.67 67.34 37.34 66.68 37 66C36.34 66 35.68 66 35 66C35 65.34 35 64.68 35 64C33.68 64 32.36 64 31 64C31.3701 57.8314 32.7578 55.2422 37 51C39.7149 49.2433 40.7143 49 44 49Z" fill="#CBE6EF"/>
<path d="M98 142C89.5377 145.385 80.9967 146.122 72 147C72 150.3 72 153.6 72 157C72.99 157 73.98 157 75 157C76.4783 159.957 76.0603 162.742 76 166C74.68 166 73.36 166 72 166C70.1386 161.295 69.749 157.124 69.875 152.125C69.8885 151.092 69.8885 151.092 69.9023 150.039C69.9256 148.359 69.9615 146.68 70 145C70.5796 144.914 71.1593 144.829 71.7566 144.74C74.4004 144.349 77.0439 143.956 79.6875 143.563C81.0555 143.36 81.0555 143.36 82.4511 143.154C83.3374 143.022 84.2236 142.89 85.1367 142.754C85.9484 142.633 86.7601 142.513 87.5964 142.389C89.2806 142.116 90.9548 141.778 92.6164 141.39C95 141 95 141 98 142Z" fill="#48302F"/>
<path d="M56 59C56.33 59.66 56.66 60.32 57 61C57.66 61 58.32 61 59 61C60.3685 66.9788 60.2235 72.8932 60.25 79C60.2706 80.1563 60.2912 81.3126 60.3125 82.5039C60.3643 94.1008 58.2764 104.635 53 115C52.34 115 51.68 115 51 115C51 114.34 51 113.68 51 113C50.34 112.67 49.68 112.34 49 112C49.66 112 50.32 112 51 112C51.1818 111.443 51.3635 110.886 51.5508 110.312C52.8149 106.475 54.1126 102.685 55.625 98.9375C60.1748 86.7174 58.651 71.4975 56 59Z" fill="#2C2626"/>
<path d="M73 17C87.5211 15.5706 97.7668 20.8653 110 28C109.67 29.65 109.34 31.3 109 33C107.68 32.34 106.36 31.68 105 31C105 30.01 105 29.02 105 28C104.299 27.7254 103.598 27.4509 102.875 27.168C100.922 26.3745 98.9843 25.5421 97.0625 24.6758C96.0519 24.2259 95.0412 23.776 94 23.3125C92.4841 22.6261 92.4841 22.6261 90.9375 21.9258C86.6878 20.5864 84.1141 21.6287 80 23C80 22.34 80 21.68 80 21C77.36 20.34 74.72 19.68 72 19C72.33 18.34 72.66 17.68 73 17Z" fill="#36241E"/>
<path d="M81 12C81 12.33 81 12.66 81 13C83.475 13.495 83.475 13.495 86 14C86 14.33 86 14.66 86 15C84.9617 15.0039 84.9617 15.0039 83.9023 15.0078C75.4171 15.3432 68.5423 17.8455 60.8813 21.1817C57.854 22.4985 54.8102 23.761 51.75 25C50.7136 25.4331 49.6772 25.8663 48.6094 26.3125C47.3177 26.6528 47.3177 26.6528 46 27C45.01 26.34 44.02 25.68 43 25C51.1364 21.343 59.3017 17.776 67.625 14.5625C68.2747 14.3039 68.9244 14.0453 69.5938 13.7788C73.5351 12.2876 76.7954 11.7348 81 12Z" fill="#221F1F"/>
<path d="M55 96C55.66 96 56.32 96 57 96C55.4355 101.614 53.836 106.868 51 112C48 111 48 111 46.832 108.715C46.4956 107.798 46.1591 106.882 45.8125 105.938C45.4683 105.018 45.1241 104.099 44.7695 103.152C44.5156 102.442 44.2616 101.732 44 101C46.312 98.688 46.9321 98.7272 50.0625 98.5C52.0116 98.2525 52.0116 98.2525 54 98C54.33 97.34 54.66 96.68 55 96Z" fill="#537078"/>
<path d="M76 91C76.2499 97.6505 75.7396 103.57 74 110C75.32 110.33 76.64 110.66 78 111C73.25 111.125 73.25 111.125 71 110C68.9807 110.606 66.9775 111.269 65 112C65.99 109.03 66.98 106.06 68 103C68.66 103.33 69.32 103.66 70 104C70.1934 103.145 70.3867 102.291 70.5859 101.41C70.8463 100.305 71.1067 99.2007 71.375 98.0625C71.6302 96.9604 71.8855 95.8582 72.1484 94.7227C72.4295 93.8242 72.7105 92.9257 73 92C75 91 75 91 76 91Z" fill="#1D0E0F"/>
<path d="M15 69C15.99 69 16.98 69 18 69C18 73.62 18 78.24 18 83C18.66 83 19.32 83 20 83C20 86.96 20 90.92 20 95C19.34 95 18.68 95 18 95C17.34 95.66 16.68 96.32 16 97C15.0178 93.7237 14.8842 90.7721 14.9024 87.3594C14.9056 86.2895 14.9088 85.2195 14.9121 84.1172C14.9205 83.006 14.9289 81.8948 14.9375 80.75C14.9421 79.6234 14.9466 78.4967 14.9512 77.3359C14.963 74.5572 14.9794 71.7786 15 69Z" fill="#D99D7B"/>
<path d="M121 49C121.767 52.7494 122.106 55.3492 121 59C120.959 60.0519 120.918 61.1037 120.875 62.1875C119.625 67.6328 116.664 70.8845 113 75C112.012 76.1118 112.012 76.1118 111.004 77.2461C106.058 82.5008 102.014 85.7811 94.5625 86.1875C93.2941 86.0947 93.2941 86.0947 92 86C94.8494 84.1004 97.572 82.8377 100.688 81.4375C108.083 77.7756 112.326 72.8815 116.938 66.1875C118.589 61.2343 118.756 56.1913 119 51C118.34 50.67 117.68 50.34 117 50C120 49 120 49 121 49Z" fill="#446D83"/>
<path d="M107 113C107 113.99 107 114.98 107 116C103.794 117.603 100.331 117.185 96.8125 117.188C96.0694 117.2 95.3262 117.212 94.5605 117.225C89.6601 117.238 85.6488 116.558 81 115C81 114.67 81 114.34 81 114C82.0854 113.939 83.1708 113.879 84.2891 113.816C85.7344 113.732 87.1797 113.647 88.625 113.563C89.3379 113.523 90.0507 113.484 90.7852 113.443C94.0353 113.25 97.1577 112.974 100.375 112.438C102.994 112.001 104.518 112.141 107 113Z" fill="#162330"/>
<path d="M115 37C117.908 39.2193 119.953 40.9297 122 44C121.988 46.0547 121.988 46.0547 121 48C118.418 49.1953 118.418 49.1953 115.188 50.125C111.602 51.182 108.286 52.2019 105 54C105.438 51.75 105.438 51.75 107 49C109.883 47.3501 112.886 46.1468 116 45C115.835 44.2369 115.67 43.4737 115.5 42.6875C115 40 115 40 115 37Z" fill="#202A2E"/>
<path d="M68 61C68.3404 73.7378 68.2405 85.6169 65 98C64.67 98 64.34 98 64 98C63.7549 89.1356 64.1005 80.4532 64.9375 71.625C65.0244 70.6915 65.1112 69.758 65.2007 68.7961C65.9832 61 65.9832 61 68 61Z" fill="#C67956"/>
<path d="M44 34C47.96 34 51.92 34 56 34C56 34.66 56 35.32 56 36C57.32 36.33 58.64 36.66 60 37C60.0928 37.5788 60.1856 38.1576 60.2812 38.7539C61.3995 42.2483 63.8913 44.3101 66.4062 46.9023C68.2185 49.2876 68.6315 51.0573 69 54C68.4431 53.2266 68.4431 53.2266 67.875 52.4375C67.2563 51.6331 66.6375 50.8288 66 50C65.6094 49.456 65.2188 48.912 64.8164 48.3516C60.0584 42.1783 53.6434 38.3378 45.875 37.1875C44.9262 37.1256 43.9775 37.0637 43 37C43.33 36.01 43.66 35.02 44 34Z" fill="#63534B"/>
<path d="M62 152C62.8678 154.944 63.0339 157.382 62.875 160.438C62.8149 164.513 63.5976 166.637 66 170C66.6875 172.312 66.6875 172.312 67 174C62.5503 171.775 60.2636 169.443 58 165C57.1646 160.697 57.519 157.722 60 154C60.66 153.34 61.32 152.68 62 152Z" fill="#B0CAD4"/>
<path d="M49 45C52.1602 46.8059 53.5772 47.8292 54.8125 51.25C54.8743 51.8275 54.9362 52.405 55 53C54.2162 52.3606 53.4325 51.7212 52.625 51.0625C48.4826 47.8078 45.7164 47.5824 40.5351 47.6719C37.4996 48.0648 35.4933 49.0737 33.3086 51.2461C29.3812 56.5099 26.8173 62.7221 25 69C23.4514 64.558 24.8468 61.783 26.625 57.6094C31.7149 47.95 38.0511 43.5472 49 45Z" fill="#D6C6B3"/>
<path d="M69 61C69.33 61 69.66 61 70 61C70.33 67.6 70.66 74.2 71 81C71.66 81 72.32 81 73 81C71.9492 88.3065 70.5432 95.0639 68 102C67.67 102 67.34 102 67 102C67.0657 101.311 67.1313 100.621 67.199 99.9111C67.9524 91.5287 68.3047 83.1608 68.5625 74.75C68.6058 73.4075 68.6495 72.0651 68.6934 70.7227C68.7983 67.4818 68.9004 64.241 69 61Z" fill="#94604A"/>
<path d="M65 155C65.125 160.75 65.125 160.75 64 163C64.99 163.33 65.98 163.66 67 164C67.99 165.485 67.99 165.485 69 167C72.0656 167.733 72.0656 167.733 75 168C75 168.66 75 169.32 75 170C73.02 170 71.04 170 69 170C69.99 170.66 70.98 171.32 72 172C70.68 172 69.36 172 68 172C67.67 172.66 67.34 173.32 67 174C66.3194 172.608 66.3194 172.608 65.625 171.188C64.0578 167.961 64.0578 167.961 62 165C61.8047 162.738 61.8047 162.738 61.875 160.312C61.893 159.504 61.9111 158.696 61.9297 157.863C61.9529 157.248 61.9761 156.634 62 156C64 155 64 155 65 155Z" fill="#404244"/>
<path d="M63 55C63.66 55 64.32 55 65 55C67.3393 58.509 67.154 59.4699 66.793 63.5508C66.7008 64.642 66.6086 65.7332 66.5137 66.8574C66.406 67.9976 66.2984 69.1378 66.1875 70.3125C66.0915 71.4411 65.9954 72.5696 65.8965 73.7324C65.446 78.8686 64.8934 83.9195 64 89C63.67 89 63.34 89 63 89C63 77.78 63 66.56 63 55Z" fill="#DD9063"/>
<path d="M76 123C77.4715 123.429 77.4715 123.429 78.9727 123.867C83.1048 125.048 87.2658 126.094 91.4375 127.125C92.169 127.307 92.9006 127.489 93.6543 127.676C95.4359 128.118 97.2179 128.559 99 129C99 129.33 99 129.66 99 130C92.0622 131.577 84.3633 131.129 77.8945 127.973C76.25 126.875 76.25 126.875 74 125C74.66 124.34 75.32 123.68 76 123Z" fill="#0F141E"/>
<path d="M59 37C60.98 37 62.96 37 65 37C65.2475 37.6806 65.495 38.3612 65.75 39.0625C66.7505 41.4137 67.7951 43.3448 69.125 45.5C70.9138 48.8392 71.4451 50.3278 71 54C70.34 54 69.68 54 69 54C68.4638 52.8038 67.9275 51.6075 67.375 50.375C65.8487 47.2729 64.2665 45.0549 61.75 42.6875C60.8425 41.8006 59.935 40.9137 59 40C59 39.01 59 38.02 59 37Z" fill="#DC9A70"/>
<path d="M34 117C34.7837 117.825 35.5675 118.65 36.375 119.5C39.3566 122.054 41.3678 122.271 45.25 122.125C46.5262 122.005 46.5262 122.005 47.8281 121.883C48.5448 121.921 49.2616 121.96 50 122C50.99 123.485 50.99 123.485 52 125C49.5829 126.657 47.4687 127.877 44.625 128.625C40.3443 127.606 37.6081 124.449 35 121C34.2969 118.766 34.2969 118.766 34 117Z" fill="#994C37"/>
<path d="M75 154C76.8867 154.27 76.8867 154.27 79 155C81.2936 158.469 82.0329 162.146 81.875 166.25C80.9372 169.197 80.3116 170.928 78 173C74.8125 173.25 74.8125 173.25 72 173C72.8044 172.34 73.6087 171.68 74.4375 171C77.5527 167.353 78.3612 164.752 78 160C76.7101 156.58 76.7101 156.58 75 154Z" fill="#573A3A"/>
<path d="M21 113C24.2616 113.159 27.0184 113.636 30 115C31.9204 117.386 33.2459 119.805 34.6484 122.523C35.8858 124.791 36.9863 126.218 38.875 127.938C39.5763 128.618 40.2775 129.299 41 130C41 130.99 41 131.98 41 133C37.6623 131.598 35.9825 130.049 33.875 127.125C33.3774 126.447 32.8798 125.769 32.3672 125.07C30.2624 121.883 29 119.876 29 116C27.02 116.33 25.04 116.66 23 117C22.34 115.68 21.68 114.36 21 113Z" fill="#AC604C"/>
<path d="M66 56C66.99 56.33 67.98 56.66 69 57C69.0249 61.5715 69.0429 66.143 69.0549 70.7146C69.0599 72.2673 69.0667 73.8201 69.0754 75.3728C69.0877 77.6144 69.0933 79.856 69.0977 82.0977C69.1028 82.7834 69.108 83.4691 69.1133 84.1756C69.1138 88.5639 68.7091 92.684 68 97C67.01 96.67 66.02 96.34 65 96C65.2166 94.9752 65.2166 94.9752 65.4375 93.9297C66.8236 86.4025 67.1925 79.1431 67.1875 71.5C67.1881 70.5446 67.1888 69.5893 67.1895 68.605C67.1555 64.2461 66.9511 60.2694 66 56Z" fill="#3D1D13"/>
<path d="M61 22C61.66 22.99 62.32 23.98 63 25C62.3129 25.3261 61.6259 25.6523 60.918 25.9883C60.0169 26.4253 59.1159 26.8623 58.1875 27.3125C57.2942 27.7418 56.4009 28.171 55.4805 28.6133C53.2107 29.8822 51.7075 31.0656 50 33C51.65 33.33 53.3 33.66 55 34C55 34.33 55 34.66 55 35C50.6574 35.167 47.7904 35.13 44 33C45.7041 31.7235 47.4135 30.454 49.125 29.1875C50.0763 28.4798 51.0277 27.7721 52.0078 27.043C54.9122 25.06 57.8216 23.4949 61 22Z" fill="#442C2A"/>
<path d="M82 164C82.33 164 82.66 164 83 164C84.1075 167.876 84.1654 169.612 82.5625 173.375C79.8653 176.138 79.583 176.406 76 176.5C72.9497 176.272 70.5865 175.724 68 174C68 173.34 68 172.68 68 172C71.3 172 74.6 172 78 172C79.32 169.36 80.64 166.72 82 164Z" fill="#25262A"/>
<path d="M36 71C36.75 72.6875 36.75 72.6875 37 75C35.0625 77.75 35.0625 77.75 33 80C33.33 78.35 33.66 76.7 34 75C32.68 74.34 31.36 73.68 30 73C29.07 76.7201 28.9732 80.171 29.0312 83.9961C28.9887 86.725 28.5342 89.3289 28 92C27.67 92 27.34 92 27 92C27 85.07 27 78.14 27 71C32.625 69.875 32.625 69.875 36 71Z" fill="#8BB0B9"/>
<path d="M20 78C20.33 78 20.66 78 21 78C21.1096 79.1602 21.2192 80.3203 21.3321 81.5156C22.6858 97.9935 22.6858 97.9935 29 113C27.02 112.34 25.04 111.68 23 111C21.0088 99.882 19.501 89.3295 20 78Z" fill="#451E14"/>
<path d="M89 15C95.7542 16.1793 101.329 18.0508 107 22C107.33 22.66 107.66 23.32 108 24C107.299 23.67 106.598 23.34 105.875 23C103.083 21.8291 103.083 21.8291 100.312 22.125C95.4363 21.941 91.4212 19.9572 87 18C87.66 17.67 88.32 17.34 89 17C89 16.34 89 15.68 89 15Z" fill="#D7A080"/>
<path d="M72 84C72.99 84 73.98 84 75 84C74.3476 90.7847 73.1662 97.5221 71 104C70.34 104.33 69.68 104.66 69 105C68.0417 101.955 68.0057 99.9773 68.7774 96.8906C68.961 96.1365 69.1447 95.3824 69.334 94.6055C69.6327 93.4395 69.6327 93.4395 69.9375 92.25C70.1328 91.4572 70.3281 90.6645 70.5293 89.8477C71.0113 87.8964 71.5045 85.9479 72 84Z" fill="#3B191A"/>
<path d="M27 61C27.66 61 28.32 61 29 61C30.0386 63.7002 30.0629 64.826 29.0625 67.5938C27.7699 71.7377 27.5505 75.5618 27.375 79.875C27.3364 80.6587 27.2977 81.4425 27.2578 82.25C27.1644 84.1663 27.0811 86.0831 27 88C26.67 88 26.34 88 26 88C25.9394 87.2639 25.8789 86.5279 25.8164 85.7695C25.7326 84.7937 25.6489 83.8179 25.5625 82.8125C25.4813 81.8496 25.4001 80.8866 25.3164 79.8945C25.0608 77.0361 25.0608 77.0361 24.4102 74.4297C23.9556 71.7368 24.2213 69.9498 24.875 67.3125C25.0581 66.5455 25.2411 65.7785 25.4297 64.9883C26 63 26 63 27 61Z" fill="#2D3232"/>
<path d="M109 29C115.533 31.9602 120.818 37.2495 125 43C124.01 43.495 124.01 43.495 123 44C122.649 43.4019 122.299 42.8037 121.938 42.1875C119.371 39.2895 116.542 38.4914 113 37C110.562 35.0625 110.562 35.0625 109 33C109 31.68 109 30.36 109 29Z" fill="#1F110D"/>
<path d="M40 59C39.34 61.97 38.68 64.94 38 68C37.67 67.34 37.34 66.68 37 66C36.34 66 35.68 66 35 66C35 65.34 35 64.68 35 64C33.68 64 32.36 64 31 64C31 62.35 31 60.7 31 59C35.5 56.75 35.5 56.75 40 59Z" fill="#BCE0EA"/>
<path d="M27.0001 55C28.0001 57 28.0001 57 27.2579 59.2422C26.884 60.111 26.5102 60.9798 26.1251 61.875C24.1798 66.4321 22.9317 70.3679 22.6836 75.3281C22.6418 76.1273 22.5999 76.9266 22.5567 77.75C22.5174 78.575 22.4781 79.4 22.4376 80.25C22.3944 81.0905 22.3512 81.9309 22.3067 82.7969C22.201 84.8644 22.1 86.9322 22.0001 89C21.6701 89 21.3401 89 21.0001 89C19.758 77.7469 20.4067 68.0182 23.0001 57C23.6601 57.33 24.3201 57.66 25.0001 58C25.6601 57.01 26.3201 56.02 27.0001 55Z" fill="#8C4B30"/>
<path d="M134 61C137 62 137 62 137.943 63.8765C139.94 70.5782 140.369 76.6578 140.188 83.625C140.174 84.6292 140.16 85.6334 140.146 86.668C140.112 89.1126 140.063 91.556 140 94C139.67 94 139.34 94 139 94C138.939 92.796 138.879 91.592 138.816 90.3516C138.732 88.776 138.647 87.2005 138.562 85.625C138.523 84.8309 138.484 84.0369 138.443 83.2188C138.311 78.974 138.311 78.974 137 75C136.93 73.4598 136.915 71.9167 136.938 70.375C136.947 69.5577 136.956 68.7405 136.965 67.8984C136.976 67.272 136.988 66.6455 137 66C136.34 66 135.68 66 135 66C134.67 64.35 134.34 62.7 134 61Z" fill="#1B0D0D"/>
<path d="M59 100C59.66 100.33 60.32 100.66 61 101C60.5471 102.751 60.0874 104.501 59.625 106.25C59.3698 107.225 59.1145 108.199 58.8516 109.203C58.104 111.658 57.2288 113.756 56 116C55.34 116 54.68 116 54 116C53.34 117.32 52.68 118.64 52 120C51.34 119.67 50.68 119.34 50 119C50.9575 116.916 51.9161 114.833 52.875 112.75C53.4087 111.59 53.9423 110.43 54.4922 109.234C55.6265 106.801 56.7821 104.392 58 102C58.33 101.34 58.66 100.68 59 100Z" fill="#C4917B"/>
<path d="M83 21C83.66 21.33 84.32 21.66 85 22C83.7103 23.3756 82.3731 24.7077 81 26C80.34 26 79.68 26 79 26C79 26.66 79 27.32 79 28C78.34 28 77.68 28 77 28C76.7319 28.5981 76.4638 29.1963 76.1875 29.8125C75.0015 31.9972 73.7794 33.2947 72 35C71.01 36.485 71.01 36.485 70 38C69.34 37.67 68.68 37.34 68 37C70.0258 29.5722 76.7085 24.8363 83 21Z" fill="#E8D6BE"/>
<path d="M64 38C69.1736 39.0828 71.2527 41.0358 74.2148 45.1484C75.2058 47.4853 74.8325 48.6524 74 51C69.8733 49.5108 68.7027 47.1916 66.75 43.375C66.2292 42.3721 65.7084 41.3692 65.1719 40.3359C64.5918 39.1796 64.5918 39.1796 64 38Z" fill="#EBBD95"/>
<path d="M23 67C25 69 25 69 25.1353 71.4302C25.0829 72.4252 25.0305 73.4202 24.9766 74.4453C24.8992 76.0599 24.8992 76.0599 24.8203 77.707C24.7559 78.835 24.6914 79.9629 24.625 81.125C24.5683 82.2607 24.5116 83.3963 24.4531 84.5664C24.3114 87.3782 24.1599 90.1892 24 93C23.34 93.33 22.68 93.66 22 94C21.9709 90.25 21.9532 86.5001 21.9375 82.75C21.9291 81.6865 21.9207 80.623 21.9121 79.5273C21.9089 78.5025 21.9057 77.4777 21.9023 76.4219C21.8971 75.4792 21.8919 74.5366 21.8865 73.5654C21.9903 71.2188 22.3329 69.2436 23 67Z" fill="#BA7F55"/>
<path d="M100 21C106.103 21.7629 111.375 24.2129 115.5 28.75C115.995 29.4925 116.49 30.235 117 31C110.35 29.5223 104.875 26.3786 99 23C99.33 22.34 99.66 21.68 100 21Z" fill="#BF7157"/>
<path d="M81 12C81 12.33 81 12.66 81 13C83.475 13.495 83.475 13.495 86 14C86 14.33 86 14.66 86 15C84.8746 15.0561 84.8746 15.0561 83.7266 15.1133C76.7637 15.5605 70.5817 16.6848 64 19C63.34 18.34 62.68 17.68 62 17C64.0364 16.154 66.0794 15.3237 68.125 14.5C69.262 14.036 70.3989 13.5719 71.5703 13.0938C74.9472 12.0169 77.4861 11.7864 81 12Z" fill="#322F2D"/>
<path d="M36 130C45.2851 136.705 45.2851 136.705 49 141C49 141.99 49 142.98 49 144C43.8534 142.553 39.3375 139.132 36 135C35.7695 132.27 35.7695 132.27 36 130Z" fill="#141211"/>
<path d="M135 73C135 76 135 76 133.574 77.5352C132.952 78.0392 132.329 78.5432 131.688 79.0625C131.073 79.5691 130.458 80.0757 129.824 80.5977C126.535 83.1263 124.412 84.2685 120.312 84.625C119.504 84.6998 118.696 84.7745 117.863 84.8516C116.941 84.925 116.941 84.925 116 85C119.491 82.2039 123.295 80.0503 127.188 77.875C131.341 75.7687 131.341 75.7687 135 73Z" fill="#E0A87B"/>
<path d="M41 36C49.4702 36.8313 55.3292 38.6431 62 44C59.0185 44 57.0718 43.5101 54.25 42.625C51.1585 41.6564 48.0838 40.7687 44.9375 40C43.9681 39.67 42.9987 39.34 42 39C41.67 38.01 41.34 37.02 41 36Z" fill="#E6C5A8"/>
<path d="M21 114C21.8662 114.464 21.8662 114.464 22.75 114.938C24.8429 115.926 26.7454 116.517 29 117C28.67 117.33 28.34 117.66 28 118C28.2525 119.698 28.5765 121.385 28.9375 123.062C29.2295 124.441 29.2295 124.441 29.5273 125.848C29.6833 126.558 29.8393 127.268 30 128C25.2513 124.834 23.0217 121.218 21 116C21 115.34 21 114.68 21 114Z" fill="#61453F"/>
<path d="M59 46C60.32 46.99 61.64 47.98 63 49C63.66 48.34 64.32 47.68 65 47C68 51.75 68 51.75 68 54C68.66 54 69.32 54 70 54C70 55.98 70 57.96 70 60C69.67 59.01 69.34 58.02 69 57C67.68 57 66.36 57 65 57C63.2969 55.1016 63.2969 55.1016 61.75 52.625C61.2292 51.8129 60.7084 51.0008 60.1719 50.1641C59 48 59 48 59 46Z" fill="#B7805C"/>
<path d="M77 90C83.27 90 89.54 90 96 90C92.0852 91.9574 89.2737 92.4355 85 93C84.67 93.33 84.34 93.66 84 94C81.667 94.0409 79.3329 94.0424 77 94C77 92.68 77 91.36 77 90Z" fill="#E9B482"/>
<path d="M73 17C75.2916 16.9731 77.5833 16.9536 79.875 16.9375C81.1512 16.9259 82.4273 16.9143 83.7422 16.9023C87 17 87 17 89 18C89 18.66 89 19.32 89 20C86 21 83 22 80 23C80 22.34 80 21.68 80 21C77.36 20.34 74.72 19.68 72 19C72.33 18.34 72.66 17.68 73 17Z" fill="#2A201F"/>
<path d="M41 36C41.33 36.99 41.66 37.98 42 39C33.5714 42.2857 33.5714 42.2857 29 43C32.1854 37.2358 34.3662 35.7052 41 36Z" fill="#EAD3B7"/>
<path d="M49 25C49.66 25.33 50.32 25.66 51 26C50.01 26.33 49.02 26.66 48 27C47.2827 28.6455 46.6167 30.3142 46 32C43.6024 34.3976 42.6673 34.3428 39.375 34.625C38.5577 34.6998 37.7405 34.7745 36.8984 34.8516C36.272 34.9005 35.6455 34.9495 35 35C37.8047 32.0062 40.6118 29.8006 44.125 27.6875C44.9938 27.1551 45.8627 26.6227 46.7578 26.0742C47.4977 25.7197 48.2377 25.3652 49 25Z" fill="#E5DBC4"/>
<path d="M81 128C81.7992 128.144 82.5984 128.289 83.4219 128.438C91.0303 129.723 98.2896 130.25 106 130C102.76 133.24 98.8435 132.754 94.418 133.039C89.9208 132.988 85.9604 132.182 82 130C81.67 129.34 81.34 128.68 81 128Z" fill="#0D0F13"/>
<path d="M66 100C67.1328 101.605 67.1328 101.605 68 104C67.2422 106.988 67.2422 106.988 65.875 110.312C65.4045 111.457 64.934 112.602 64.4492 113.781C62.8359 117.364 61.0879 120.675 59 124C58 122 58 122 58.5132 120.184C58.8053 119.466 59.0974 118.748 59.3984 118.008C59.713 117.22 60.0275 116.433 60.3516 115.621C60.8582 114.386 60.8582 114.386 61.375 113.125C62.0308 111.503 62.6845 109.881 63.3359 108.258C63.6303 107.537 63.9247 106.817 64.228 106.075C64.9752 104.067 65.5234 102.087 66 100Z" fill="#6A453A"/>
<path d="M37 78C37.99 78.33 38.98 78.66 40 79C40.33 84.61 40.66 90.22 41 96C37.7871 91.1807 35.8011 86.2683 36.3125 80.4375C36.5394 79.6331 36.7663 78.8288 37 78Z" fill="#82959A"/>
<path d="M118 51C118.33 51 118.66 51 119 51C119.642 59.4344 118.932 65.0241 114 72C113.01 72 112.02 72 111 72C111.33 71.01 111.66 70.02 112 69C112.66 69 113.32 69 114 69C115.825 64.3774 116.39 60.0799 116.754 55.1719C117 53 117 53 118 51Z" fill="#60929D"/>
<path d="M79 80C79.6187 80.8044 80.2375 81.6087 80.875 82.4375C83.7135 85.8604 85.3567 86.1357 89.625 86.5625C90.4423 86.6463 91.2595 86.7301 92.1015 86.8164C92.728 86.877 93.3545 86.9376 94 87C94.33 87.99 94.66 88.98 95 90C92.7076 89.9401 90.4159 89.8514 88.125 89.75C86.8488 89.7036 85.5726 89.6572 84.2578 89.6094C81 89 81 89 79.5625 87.125C78.9132 84.6723 78.8596 82.5265 79 80Z" fill="#333740"/>
<path d="M24 74C26.533 77.7994 26.5226 81.1419 26.75 85.5625C26.8055 86.343 26.8609 87.1236 26.918 87.9277C27.0331 89.9487 27.025 91.9759 27 94C26.34 94.66 25.68 95.32 25 96C24.1857 93.1484 23.8812 90.6337 23.9024 87.6719C23.9072 86.473 23.9072 86.473 23.9122 85.25C23.9205 84.425 23.9289 83.6 23.9375 82.75C23.9421 81.9095 23.9466 81.0691 23.9512 80.2031C23.963 78.1354 23.9809 76.0677 24 74Z" fill="#15110F"/>
<path d="M82 119C85.96 120.98 89.92 122.96 94 125C94 125.66 94 126.32 94 127C95.65 127 97.3 127 99 127C99 127.33 99 127.66 99 128C97.5421 128.054 96.0836 128.093 94.625 128.125C93.8129 128.148 93.0008 128.171 92.1641 128.195C90 128 90 128 88 126C85.9313 125.357 85.9313 125.357 84 125C84 124.01 84 123.02 84 122C83.34 122 82.68 122 82 122C82 121.01 82 120.02 82 119Z" fill="#162B3C"/>
<path d="M44 63C47 66.75 47 66.75 47 69C46.0409 69.3713 46.0409 69.3713 45.0625 69.75C42.887 70.795 42.887 70.795 42.25 72.75C41.9428 75.5145 41.9368 78.221 42 81C40.096 79.096 39.0648 77.6657 38.8008 74.9531C38.8113 72.9677 38.9008 70.983 39 69C39.99 69.495 39.99 69.495 41 70C41.99 67.69 42.98 65.38 44 63Z" fill="#8AB4BC"/>
<path d="M42.5 38.75C43.2528 38.7448 44.0056 38.7397 44.7812 38.7344C47.2953 39.0354 48.8861 39.6092 51 41C51.33 41.99 51.66 42.98 52 44C51.0306 43.6494 50.0612 43.2988 49.0625 42.9375C43.6241 41.3647 38.2963 42.2346 33 44C34 41 34 41 35.7812 39.8281C38.1749 38.9347 39.953 38.7326 42.5 38.75Z" fill="#DB976A"/>
<path d="M113 85C106.502 89.3322 99.5541 89.2786 92 89C94.7043 86.2957 96.7422 86.4322 100.5 85.9375C111.304 84.4913 111.304 84.4913 113 85Z" fill="#261A18"/>
<path d="M65 19C65 19.66 65 20.32 65 21C64.2034 21.3867 63.4067 21.7734 62.5859 22.1719C57.1572 24.84 51.9086 27.4549 47 31C46.67 30.34 46.34 29.68 46 29C46.66 29 47.32 29 48 29C48 28.34 48 27.68 48 27C50.4055 23.8736 53.4735 22.7647 57.0625 21.3125C58.126 20.8755 59.1895 20.4385 60.2852 19.9883C63 19 63 19 65 19Z" fill="#DDB48C"/>
<path d="M75 157C76.4783 159.957 76.0603 162.742 76 166C72 166 72 166 71 165C71.8571 157 71.8571 157 75 157Z" fill="#B8C7CF"/>
<path d="M44 102C49 109.5 49 109.5 49 113C49.66 113 50.32 113 51 113C51.75 114.75 51.75 114.75 52 117C50.0625 119.25 50.0625 119.25 48 121C48.2682 120.34 48.5363 119.68 48.8125 119C49.066 114.945 47.3863 113.262 45.1485 110.004C43.585 107.276 43.6157 105.075 44 102Z" fill="#17181A"/>
<path d="M52 102C53.1875 103.625 53.1875 103.625 54 106C52.625 109.25 52.625 109.25 51 112C50.01 111.67 49.02 111.34 48 111C47.67 109.35 47.34 107.7 47 106C48.65 104.68 50.3 103.36 52 102Z" fill="#435A64"/>
<path d="M63 150C64.32 150.33 65.64 150.66 67 151C67 152.65 67 154.3 67 156C67.66 156 68.32 156 69 156C68.67 157.65 68.34 159.3 68 161C67.01 161 66.02 161 65 161C62.6741 157.366 62.8374 154.229 63 150Z" fill="#251F20"/>
<path d="M42 91C42.33 91 42.66 91 43 91C43.66 97.27 44.32 103.54 45 110C44.34 110 43.68 110 43 110C40.5757 102.909 39.4378 98.1473 42 91Z" fill="#425053"/>
<path d="M75 63C77.6398 65.6398 77.6438 67.3147 78 71C77.6601 74.2109 77.6601 74.2109 77.0625 77.375C76.8678 78.4346 76.6732 79.4942 76.4726 80.5859C76.3167 81.3826 76.1607 82.1792 76 83C75.67 83 75.34 83 75 83C74.1614 76.0981 73.9841 69.8858 75 63Z" fill="#4F2C27"/>
<path d="M46 27C44.4421 28.1314 42.8785 29.2548 41.3125 30.375C40.4424 31.0015 39.5723 31.628 38.6758 32.2735C36.164 33.8942 33.807 34.9986 31 36C39.701 25.0864 39.701 25.0864 46 27Z" fill="#1F1F1E"/>
<path d="M125 114C125.812 115.688 125.812 115.688 126 118C123.938 120.438 123.938 120.438 121 123C120.471 123.472 119.943 123.944 119.398 124.43C115.304 128 115.304 128 113 128C113 127.34 113 126.68 113 126C114.645 124.668 114.645 124.668 116.812 123.188C120.141 120.788 122.178 118.751 124 115C124.33 114.67 124.66 114.34 125 114Z" fill="#0D1421"/>
<path d="M49 45C52.1603 46.8059 53.5772 47.8293 54.8125 51.25C54.8744 51.8275 54.9363 52.405 55 53C54.2163 52.3607 53.4325 51.7213 52.625 51.0625C48.8622 48.106 47.101 47.8826 42.375 47.9375C40.8707 47.9511 40.8707 47.9511 39.3359 47.9649C38.1796 47.9823 38.1796 47.9823 37 48C37 47.34 37 46.68 37 46C40.7026 44.1488 44.9587 44.5362 49 45Z" fill="#DCD4CB"/>
<path d="M61 161C61.4022 161.835 61.4022 161.835 61.8125 162.688C62.9948 165.07 62.9948 165.07 64.5625 167.5C65.8517 169.742 66.5335 171.481 67 174C63.5181 172.118 60.9682 170.499 59 167C59.6667 165 60.3333 163 61 161Z" fill="#7F9097"/>
<path d="M121 49C121.767 52.7494 122.106 55.3492 121 59C120.856 60.2169 120.711 61.4338 120.562 62.6875C120.377 63.7806 120.191 64.8737 120 66C119.34 66.33 118.68 66.66 118 67C118.33 61.72 118.66 56.44 119 51C118.34 50.67 117.68 50.34 117 50C120 49 120 49 121 49Z" fill="#375E74"/>
<path d="M57 36C57.99 36.33 58.98 36.66 60 37C60.3434 38.3308 60.6751 39.6646 61 41C62.6949 43.0896 64.5334 44.9719 66.4062 46.9023C68.2185 49.2876 68.6315 51.0573 69 54C68.4431 53.2266 68.4431 53.2266 67.875 52.4375C66.289 50.3757 64.6718 48.367 63 46.375C62.505 45.7846 62.01 45.1942 61.5 44.5859C59.8898 42.7652 59.8898 42.7652 57 41C56.8125 38.375 56.8125 38.375 57 36Z" fill="#865942"/>
<path d="M39.125 33.75C39.9938 33.7448 40.8627 33.7397 41.7578 33.7344C44 34 44 34 46 36C45.2639 36.0374 44.5279 36.0748 43.7695 36.1133C36.3959 36.5298 36.3959 36.5298 30 40C30 38.68 30 37.36 30 36C33.1497 34.1541 35.4888 33.7283 39.125 33.75Z" fill="#352A25"/>
<path d="M81 114C86.28 114 91.56 114 97 114C96.67 114.99 96.34 115.98 96 117C90.4732 117.194 86.2439 116.748 81 115C81 114.67 81 114.34 81 114Z" fill="#1C323E"/>
<path d="M116 47C115.01 47.495 115.01 47.495 114 48C114 48.66 114 49.32 114 50C111.03 51.32 108.06 52.64 105 54C105.985 50.3544 106.689 49.1982 109.938 47.125C113 46 113 46 116 47Z" fill="#3D4E51"/>
<path d="M54 115C54.66 115.33 55.32 115.66 56 116C54.125 121.75 54.125 121.75 53 124C50.03 123.505 50.03 123.505 47 123C47.66 122.01 48.32 121.02 49 120C49.99 120 50.98 120 52 120C52.66 118.35 53.32 116.7 54 115Z" fill="#B3644A"/>
<path d="M92 108C97.94 108 103.88 108 110 108C106.823 110.118 105.282 110.434 101.562 110.812C100.141 110.977 100.141 110.977 98.6914 111.145C96 111 96 111 92 108Z" fill="#85453A"/>
<path d="M112 36C115.254 38.8343 116.521 40.6861 117 45C115.02 45.66 113.04 46.32 111 47C111.072 46.3735 111.144 45.747 111.219 45.1016C111.312 44.2843 111.404 43.467 111.5 42.625C111.593 41.8129 111.686 41.0008 111.781 40.1641C112.034 38.0309 112.034 38.0309 112 36Z" fill="#629198"/>
<path d="M113 90C110.632 92.6172 108.104 94.3286 105 96C104.34 96 103.68 96 103 96C103 95.01 103 94.02 103 93C103.66 93 104.32 93 105 93C105 92.34 105 91.68 105 91C108.067 89.1376 109.597 88.7848 113 90Z" fill="#9A4B32"/>
<path d="M130 60C130.33 60 130.66 60 131 60C131.457 65.7166 130.523 68.4865 127 73C125.68 72.67 124.36 72.34 123 72C123.422 71.5527 123.843 71.1054 124.277 70.6445C128.538 66.016 128.538 66.016 130 60Z" fill="#1A364B"/>
<path d="M76 46C78.0625 46.4375 78.0625 46.4375 80 47C79.5243 48.0267 79.5243 48.0267 79.0391 49.0742C77.8588 52.3975 77.588 55.2975 77.375 58.8125C77.3002 59.9739 77.2255 61.1354 77.1484 62.332C77.0995 63.2125 77.0505 64.0929 77 65C76.67 65 76.34 65 76 65C75.8062 62.0211 75.6196 59.0421 75.4375 56.0625C75.3814 55.2124 75.3254 54.3622 75.2676 53.4863C75.1951 52.273 75.1951 52.273 75.1211 51.0352C75.074 50.2863 75.0268 49.5374 74.9783 48.7659C75 47 75 47 76 46Z" fill="#281410"/>
<path d="M111 37C111.66 37.33 112.32 37.66 113 38C113.25 40.75 113.25 40.75 113 44C111 46.375 111 46.375 109 48C108.75 40.375 108.75 40.375 111 37Z" fill="#88BEC5"/>
<path d="M108.188 133.938C110.075 133.968 110.075 133.968 112 134C107.692 137.938 107.692 137.938 104.188 138.25C103.105 138.126 103.105 138.126 102 138C101.67 137.01 101.34 136.02 101 135C103.751 134.083 105.359 133.891 108.188 133.938Z" fill="#4C2126"/>
<path d="M112 30C115.017 30.1403 117.238 30.2935 119.512 32.4023C120.733 33.889 121.872 35.4413 123 37C118.662 37 118.255 36.7914 115.25 34.0625C114.636 33.5172 114.023 32.972 113.391 32.4102C112 31 112 31 112 30Z" fill="#BB6A50"/>
<path d="M27 93C28.6439 95.9591 29.7387 98.6026 30 102C28.5117 103.652 28.5117 103.652 27 105C26.6094 103.567 26.238 102.128 25.875 100.688C25.6662 99.887 25.4574 99.0865 25.2422 98.2617C25 96 25 96 27 93Z" fill="#242222"/>
<path d="M44 49C44 49.66 44 50.32 44 51C43.34 51 42.68 51 42 51C41.67 52.65 41.34 54.3 41 56C40.67 55.34 40.34 54.68 40 54C38.68 54.33 37.36 54.66 36 55C36.25 53.125 36.25 53.125 37 51C39.5815 49.279 40.8492 49 44 49Z" fill="#DCE5EA"/>
<path d="M115 23C116.296 23.9314 117.587 24.8704 118.875 25.8125C119.594 26.3346 120.314 26.8566 121.055 27.3945C123 29 123 29 125 32C124.34 32.66 123.68 33.32 123 34C121.796 32.4701 120.591 30.9401 119.387 29.4102C117.943 27.7284 117.943 27.7284 115 27C115 25.68 115 24.36 115 23Z" fill="#292B2C"/>
<path d="M82 164C82.33 164 82.66 164 83 164C83.8125 166.688 83.8125 166.688 84 170C81.5625 172.875 81.5625 172.875 79 175C78.34 174.34 77.68 173.68 77 173C77.6806 172.165 77.6806 172.165 78.375 171.312C80.0373 168.947 81.0214 166.71 82 164Z" fill="#1E1618"/>
<path d="M70 160C70.33 160 70.66 160 71 160C71.3094 160.949 71.6188 161.897 71.9375 162.875C72.8739 165.861 72.8739 165.861 74 168C71.625 168.125 71.625 168.125 69 168C67 166 67 166 67 163C67.66 163 68.32 163 69 163C69.33 162.01 69.66 161.02 70 160Z" fill="#282527"/>
<path d="M72 151C73.65 151 75.3 151 77 151C76.01 151.33 75.02 151.66 74 152C74 152.99 74 153.98 74 155C74.66 155 75.32 155 76 155C77.4294 157.354 78.0866 158.48 77.625 161.25C77.4188 161.827 77.2125 162.405 77 163C76.34 161.02 75.68 159.04 75 157C74.01 157 73.02 157 72 157C72 155.02 72 153.04 72 151Z" fill="#1D1719"/>
<path d="M129 48C132.225 50.1501 132.731 51.0615 134.188 54.5C134.532 55.2941 134.876 56.0881 135.23 56.9062C136 59 136 59 136 61C135.01 61 134.02 61 133 61C132.329 59.2098 131.664 57.4178 131 55.625C130.629 54.6273 130.257 53.6295 129.875 52.6016C129 50 129 50 129 48Z" fill="#3D1916"/>
<path d="M124 32C125.65 33.65 127.3 35.3 129 37C128.01 37.99 127.02 38.98 126 40C124.624 38.7103 123.292 37.3731 122 36C122 35.34 122 34.68 122 34C122.66 34 123.32 34 124 34C124 33.34 124 32.68 124 32Z" fill="#151110"/>
<path d="M70 147C70.66 147 71.32 147 72 147C72.1947 148.791 72.3805 150.583 72.5625 152.375C72.6669 153.373 72.7713 154.37 72.8789 155.398C73 158 73 158 72 160C71.34 160 70.68 160 70 160C70 155.71 70 151.42 70 147Z" fill="#716A6D"/>
<path d="M53 123C53 123.99 53 124.98 53 126C49.6427 129.259 46.4778 130.75 42 132C41.67 131.34 41.34 130.68 41 130C41.6987 129.662 42.3973 129.325 43.1172 128.977C44.0273 128.531 44.9373 128.085 45.875 127.625C46.7799 127.184 47.6848 126.743 48.6172 126.289C51.0953 125.095 51.0953 125.095 53 123Z" fill="#1D1213"/>
<path d="M90 104C90 105.32 90 106.64 90 108C87.36 108 84.72 108 82 108C83 105 83 105 85.4375 103.75C88 103 88 103 90 104Z" fill="#763A2F"/>
<path d="M60 64C60.99 64.33 61.98 64.66 63 65C62.67 70.28 62.34 75.56 62 81C61.67 81 61.34 81 61 81C60.67 75.39 60.34 69.78 60 64Z" fill="#E8AE89"/>
<path d="M63 52C61.125 55.875 61.125 55.875 60 57C59.9592 58.9996 59.9575 61.0005 60 63C59.67 63 59.34 63 59 63C58.34 59.37 57.68 55.74 57 52C60 51 60 51 63 52Z" fill="#EAAC86"/>
<path d="M47 47C51.5202 48.9085 54.0444 50.3985 56 55C55.67 55.99 55.34 56.98 55 58C54.4638 57.0512 53.9275 56.1025 53.375 55.125C50.7208 51.6326 49.1916 50.9526 45 50C45.66 49.01 46.32 48.02 47 47Z" fill="#333C3C"/>
<path d="M57 108C57.66 108.33 58.32 108.66 59 109C58.01 111.31 57.02 113.62 56 116C55.34 116 54.68 116 54 116C53.34 117.32 52.68 118.64 52 120C51.34 119.67 50.68 119.34 50 119C51.6553 115.453 53.0971 112.639 56 110C56.33 109.34 56.66 108.68 57 108Z" fill="#C37D64"/>
<path d="M55 106C55.33 106.66 55.66 107.32 56 108C55.0642 110.36 54.0665 112.696 53 115C52.34 115 51.68 115 51 115C51 114.34 51 113.68 51 113C50.34 112.67 49.68 112.34 49 112C49.66 112 50.32 112 51 112C51.2887 111.196 51.5775 110.391 51.875 109.562C53 107 53 107 55 106Z" fill="#252326"/>
<path d="M25 92C25.2227 93.4353 25.4276 94.8735 25.625 96.3125C25.741 97.113 25.857 97.9135 25.9766 98.7383C26 101 26 101 24 104C23.611 102.378 23.2392 100.752 22.875 99.125C22.5618 97.7676 22.5618 97.7676 22.2422 96.3828C22.1623 95.5965 22.0823 94.8102 22 94C24 92 24 92 25 92Z" fill="#B97452"/>
<path d="M70.9999 73C71.9899 73.33 72.9799 73.66 73.9999 74C73.6699 76.31 73.3399 78.62 72.9999 81C72.3399 81 71.6799 81 70.9999 81C70.6699 81.99 70.3399 82.98 69.9999 84C69.8571 76.5714 69.8571 76.5714 70.9999 73Z" fill="#BC7D60"/>
<path d="M53 48C53.66 48 54.32 48 55 48C55.6731 49.6015 56.3382 51.2063 57 52.8125C57.3713 53.7058 57.7425 54.5991 58.125 55.5195C59 58 59 58 59 61C58.34 61 57.68 61 57 61C57 60.34 57 59.68 57 59C56.34 58.67 55.68 58.34 55 58C54.3672 55.7148 54.3672 55.7148 53.875 52.9375C53.7074 52.0184 53.5398 51.0993 53.3672 50.1523C53.246 49.4421 53.1248 48.7318 53 48Z" fill="#796353"/>
<path d="M109 29C110.98 29.99 110.98 29.99 113 31C113 31.99 113 32.98 113 34C113.66 34 114.32 34 115 34C114.67 35.32 114.34 36.64 114 38C111.5 35.75 111.5 35.75 109 33C109 31.68 109 30.36 109 29Z" fill="#101113"/>
<path d="M100 21C104.133 21.4724 107.358 23.0517 111 25C107.629 26.1238 106.355 25.982 103 25C100.688 23.4375 100.688 23.4375 99 22C99.33 21.67 99.66 21.34 100 21Z" fill="#CD805F"/>
<path d="M59.0001 108C59.3301 108 59.6601 108 60.0001 108C60.5043 113.294 59.1893 115.814 56.0001 120C55.0001 118 55.0001 118 55.7774 115.617C56.1603 114.712 56.5431 113.807 56.9376 112.875C57.3178 111.965 57.6981 111.055 58.0899 110.117C58.3903 109.419 58.6906 108.72 59.0001 108Z" fill="#8D4530"/>
<path d="M126 112C124.63 115.161 124.011 115.993 121 118C121 117.01 121 116.02 121 115C119.68 115.33 118.36 115.66 117 116C116.67 115.34 116.34 114.68 116 114C122.625 112 122.625 112 126 112Z" fill="#0F2B43"/>
<path d="M135 73C135 76 135 76 133.469 77.6055C132.819 78.1275 132.169 78.6496 131.5 79.1875C130.85 79.7173 130.201 80.2471 129.531 80.793C129.026 81.1913 128.521 81.5896 128 82C127.67 80.68 127.34 79.36 127 78C129.64 76.35 132.28 74.7 135 73Z" fill="#D29577"/>
<path d="M56 59C56.33 59.66 56.66 60.32 57 61C57.66 61 58.32 61 59 61C59.33 64.3 59.66 67.6 60 71C59.34 71 58.68 71 58 71C57.34 67.04 56.68 63.08 56 59Z" fill="#393D3C"/>
<path d="M68 39C71.6742 39.3062 72.7814 39.7577 75.3125 42.5625C76.1478 43.7691 76.1478 43.7691 77 45C76.67 45.66 76.34 46.32 76 47C75.34 47 74.68 47 74 47C72.6273 45.0268 71.2957 43.0246 70 41C69.34 40.34 68.68 39.68 68 39Z" fill="#352D25"/>
<path d="M83 21C83.66 21.33 84.32 21.66 85 22C83.7103 23.3756 82.3731 24.7077 81 26C80.34 26 79.68 26 79 26C79 26.66 79 27.32 79 28C77.35 28.33 75.7 28.66 74 29C76.8528 26.068 79.6508 23.3568 83 21Z" fill="#EAE1D2"/>
<path d="M66 95C66.33 95 66.66 95 67 95C66.8589 96.4588 66.712 97.917 66.5625 99.375C66.4813 100.187 66.4001 100.999 66.3164 101.836C66 104 66 104 65 106C64.34 106 63.68 106 63 106C63.468 101.944 63.8795 98.5341 66 95Z" fill="#24120D"/>
<path d="M68 90C68.99 90.33 69.98 90.66 71 91C70.7189 92.6477 70.4248 94.2931 70.125 95.9375C69.9626 96.854 69.8002 97.7705 69.6328 98.7148C69.424 99.4689 69.2152 100.223 69 101C68.01 101.495 68.01 101.495 67 102C67.33 98.04 67.66 94.08 68 90Z" fill="#90523F"/>
<path d="M72.0001 84C72.9901 84 73.9801 84 75.0001 84C74.2501 91.625 74.2501 91.625 72.0001 95C70.7143 87.5714 70.7143 87.5714 72.0001 84Z" fill="#502823"/>
<path d="M36 84C38.3015 86.3015 38.7577 87.8488 39.6875 90.9375C39.9595 91.8128 40.2315 92.688 40.5117 93.5898C41 96 41 96 40 99C39.35 97.5852 38.7052 96.1681 38.0625 94.75C37.7029 93.9611 37.3432 93.1722 36.9727 92.3594C36.0909 90.2206 35.3848 88.2797 35 86C35.33 85.34 35.66 84.68 36 84Z" fill="#25383C"/>
<path d="M23 67C23.66 67.66 24.32 68.32 25 69C24.7578 72.2578 24.7578 72.2578 24.125 76.125C23.9213 77.4063 23.7177 78.6877 23.5078 80.0078C23.3402 80.9952 23.1727 81.9827 23 83C22.67 83 22.34 83 22 83C21.9729 81.0834 21.9535 79.1667 21.9375 77.25C21.9259 76.1827 21.9143 75.1153 21.9023 74.0156C21.9849 71.4663 22.2538 69.4207 23 67Z" fill="#C89D83"/>
<path d="M122 37C123.875 37.5625 123.875 37.5625 126 39C127.25 42.625 127.25 42.625 128 46C125.352 43.4222 123.056 41.0835 121 38C121.33 37.67 121.66 37.34 122 37Z" fill="#AD5E47"/>
<path d="M62 147C63.98 147 65.96 147 68 147C68 148.65 68 150.3 68 152C66.02 151.34 64.04 150.68 62 150C62 149.01 62 148.02 62 147Z" fill="#110D0C"/>
<path d="M71 68C72.98 68.495 72.98 68.495 75 69C74.67 70.65 74.34 72.3 74 74C73.34 74 72.68 74 72 74C71.34 74.99 70.68 75.98 70 77C70.33 74.03 70.66 71.06 71 68Z" fill="#CA8D6C"/>
<path d="M27 61C27.66 61 28.32 61 29 61C29.9342 64.0103 30.0445 64.8665 29 68C27.68 68 26.36 68 25 68C25.66 65.69 26.32 63.38 27 61Z" fill="#342D29"/>
<path d="M21 100C21.33 100 21.66 100 22 100C22.33 103.3 22.66 106.6 23 110C22.34 110 21.68 110 21 110C21 108.68 21 107.36 21 106C20.01 106.33 19.02 106.66 18 107C18.3094 106.402 18.6188 105.804 18.9375 105.188C20.1021 102.91 20.1021 102.91 21 100Z" fill="#905544"/>
<path d="M36 69C35.67 69.66 35.34 70.32 35 71C33.02 71 31.04 71 29 71C28.67 71.66 28.34 72.32 28 73C28 71.35 28 69.7 28 68C31.4025 66.7848 32.9325 67.1376 36 69Z" fill="#A2CAD2"/>
<path d="M22.9999 59C22.6699 62.3 22.3399 65.6 21.9999 69C19.7059 65.5589 19.737 64.0316 19.9999 60C20.9999 59 20.9999 59 22.9999 59Z" fill="#E79761"/>
<path d="M45 42C48.3437 42.5573 51.0331 43.3517 54 45C54 45.99 54 46.98 54 48C51.525 47.01 51.525 47.01 49 46C49 45.34 49 44.68 49 44C47.68 43.34 46.36 42.68 45 42Z" fill="#A76E46"/>
<path d="M49 25C49.66 25.33 50.32 25.66 51 26C50.01 26.33 49.02 26.66 48 27C47.2979 28.652 46.6303 30.3192 46 32C45.01 32.495 45.01 32.495 44 33C43.67 31.35 43.34 29.7 43 28C44.9647 26.9322 46.9686 25.9345 49 25Z" fill="#EFD9B1"/>
<path d="M69 19C69 20.32 69 21.64 69 23C66.69 23.33 64.38 23.66 62 24C63 21 63 21 64.9375 19.8125C67 19 67 19 69 19Z" fill="#312724"/>
<path d="M17 104C19.1251 107.188 19.5021 109.265 20 113C19.01 113.33 18.02 113.66 17 114C16.0498 110.305 16.0498 107.695 17 104Z" fill="#130E0B"/>
<path d="M16 100C17.6195 102.572 18.0441 103.677 17.625 106.75C17.4188 107.493 17.2125 108.235 17 109C16.34 109 15.68 109 15 109C14.1904 106.085 13.7816 104.539 14.9375 101.688C15.2882 101.131 15.6388 100.574 16 100Z" fill="#26211E"/>
<path d="M41 61C43 64 43 64 42.75 67.0625C42 70 42 70 40 72C39.875 64.375 39.875 64.375 41 61Z" fill="#CADFE3"/>
<path d="M33 47C33.66 47.33 34.32 47.66 35 48C33.02 50.31 31.04 52.62 29 55C28.34 54.01 27.68 53.02 27 52C27.66 50.68 28.32 49.36 29 48C29.99 48 30.98 48 32 48C32.33 47.67 32.66 47.34 33 47Z" fill="#9B5E45"/>
<path d="M55 28C56 31 56 31 56 34C53.69 34 51.38 34 49 34C52.75 29.125 52.75 29.125 55 28Z" fill="#C0D6DC"/>
<path d="M84 20C86.97 20.495 86.97 20.495 90 21C85.375 25 85.375 25 82 25C82.66 23.35 83.32 21.7 84 20Z" fill="#D5A884"/>
<path d="M81 12C83.31 12 85.62 12 88 12C88 12.66 88 13.32 88 14C89.32 14.33 90.64 14.66 92 15C88.04 14.67 84.08 14.34 80 14C80.33 13.34 80.66 12.68 81 12Z" fill="#171414"/>
<path d="M32 116C35.4422 118.66 35.995 121.903 37 126C32.0769 121.692 32.0769 121.692 31.6875 118.188C31.7906 117.466 31.8937 116.744 32 116Z" fill="#24120F"/>
<path d="M65.9999 100C67.1874 101.562 67.1874 101.562 67.9999 104C66.6249 107.75 66.6249 107.75 64.9999 111C63.3991 106.998 64.7071 103.954 65.9999 100Z" fill="#7D4839"/>
<path d="M116.98 83.668C118.99 83.6858 120.997 83.8358 123 84C119.636 86.9605 116.308 87.9229 112 89C113.928 84.1797 113.928 84.1797 116.98 83.668Z" fill="#D28B5B"/>
<path d="M102 81C102.66 81.33 103.32 81.66 104 82C99.8141 85.1892 97.2944 86.5042 92 86C95.2347 83.8435 98.3715 82.3854 102 81Z" fill="#4F7A8E"/>
<path d="M39 69C41.0235 72.0353 41.3212 73.1943 41.625 76.6875C41.6998 77.4957 41.7745 78.304 41.8516 79.1367C41.9005 79.7516 41.9495 80.3665 42 81C40.096 79.096 39.0648 77.6657 38.8008 74.9531C38.8113 72.9677 38.9008 70.983 39 69Z" fill="#99AFB4"/>
<path d="M71 55C71.33 55 71.66 55 72 55C72 56.65 72 58.3 72 60C72.66 60 73.32 60 74 60C74 61.98 74 63.96 74 66C71.1055 63.6089 70.3719 61.7186 70 58C70.33 57.01 70.66 56.02 71 55Z" fill="#E6A97E"/>
<path d="M42 56C43.5625 57.625 43.5625 57.625 45 60C44.6875 63.25 44.6875 63.25 44 66C41.8196 63.8196 41.4376 62.9757 41 60C41.4375 57.75 41.4375 57.75 42 56Z" fill="#BCD5DC"/>
<path d="M51 41C52.3147 41.2815 53.6268 41.5755 54.9375 41.875C55.6684 42.0374 56.3993 42.1998 57.1523 42.3672C59 43 59 43 60 45C57.69 45 55.38 45 53 45C52.34 43.68 51.68 42.36 51 41Z" fill="#E4A97F"/>
<path d="M64 38C69.6615 39.4769 69.6615 39.4769 71.375 42.125C71.6844 43.0531 71.6844 43.0531 72 44C66.3385 42.5231 66.3385 42.5231 64.625 39.875C64.4188 39.2563 64.2125 38.6375 64 38Z" fill="#DDC6A5"/>
<path d="M107 30C103.205 32.214 99.2437 33.0098 95 34C98.798 29.8222 101.426 28.4517 107 30Z" fill="#23130B"/>
<path d="M28 38C28.66 38.66 29.32 39.32 30 40C28.35 41.98 26.7 43.96 25 46C24.25 44.25 24.25 44.25 24 42C25.9375 39.75 25.9375 39.75 28 38Z" fill="#211E19"/>
<path d="M63 150C64.32 150.33 65.64 150.66 67 151C66.67 152.32 66.34 153.64 66 155C65.34 155 64.68 155 64 155C63.67 155.66 63.34 156.32 63 157C63 154.69 63 152.38 63 150Z" fill="#2D3134"/>
<path d="M36 130C37.98 131.65 39.96 133.3 42 135C41.01 135.66 40.02 136.32 39 137C37.5 135.75 37.5 135.75 36 134C36 132.68 36 131.36 36 130Z" fill="#130808"/>
<path d="M119 127C119.66 127.33 120.32 127.66 121 128C115.25 133 115.25 133 113 133C113 132.01 113 131.02 113 130C114.965 128.932 116.969 127.934 119 127Z" fill="#43252A"/>
<path d="M27 126C28.9375 126.312 28.9375 126.312 31 127C31.33 127.99 31.66 128.98 32 130C30.02 130.99 30.02 130.99 28 132C27 131 27 131 26.9375 128.438C26.9581 127.633 26.9787 126.829 27 126Z" fill="#272221"/>
<path d="M58 119C58.66 119.33 59.32 119.66 60 120C57.25 126.875 57.25 126.875 55 128C55.75 121.25 55.75 121.25 58 119Z" fill="#4E3330"/>
<path d="M34 117C34.9075 117.784 35.815 118.567 36.75 119.375C39.0519 121.301 41.2158 122.822 44 124C42.35 124.33 40.7 124.66 39 125C34 119.25 34 119.25 34 117Z" fill="#72534A"/>
<path d="M27 117C27.66 117 28.32 117 29 117C30.0678 118.965 31.0655 120.969 32 123C31 125 31 125 29 126C28.34 123.03 27.68 120.06 27 117Z" fill="#371614"/>
<path d="M21 114C25.4211 116.947 25.4211 116.947 27 119C26.6875 121.188 26.6875 121.188 26 123C22.7458 120.166 21.4793 118.314 21 114Z" fill="#4B312F"/>
<path d="M39 115C41.64 115.99 44.28 116.98 47 118C47 118.33 47 118.66 47 119C43.625 119.188 43.625 119.188 40 119C39.34 118.01 38.68 117.02 38 116C38.33 115.67 38.66 115.34 39 115Z" fill="#344E59"/>
<path d="M17 91C17.33 92.32 17.66 93.64 18 95C18.66 95 19.32 95 20 95C19.34 97.31 18.68 99.62 18 102C15.2136 97.8204 16.2044 95.8533 17 91Z" fill="#B87655"/>
<path d="M78 78C78.33 78 78.66 78 79 78C79.1444 79.0725 79.2887 80.145 79.4375 81.25C79.8375 83.9166 80.2759 86.414 81 89C80.01 89 79.02 89 78 89C78 85.37 78 81.74 78 78Z" fill="#202428"/>
<path d="M62 54C62.66 54.33 63.32 54.66 64 55C63.67 56.98 63.34 58.96 63 61C61.68 59.68 60.36 58.36 59 57C60 55 60 55 62 54Z" fill="#E99E73"/>
<path d="M73 21C74.98 21 76.96 21 79 21C77.35 22.65 75.7 24.3 74 26C73.67 24.35 73.34 22.7 73 21Z" fill="#9CBABB"/>
<path d="M79 168C79.33 168.99 79.66 169.98 80 171C78 173 78 173 74.875 173.125C73.4519 173.063 73.4519 173.063 72 173C74.2972 171.257 76.5987 169.601 79 168Z" fill="#5C4142"/>
<path d="M68 158C68.66 158 69.32 158 70 158C69.67 159.65 69.34 161.3 69 163C66 164 66 164 64 163C64 162.34 64 161.68 64 161C65.32 161 66.64 161 68 161C68 160.01 68 159.02 68 158Z" fill="#1F1919"/>
<path d="M96 139C96 139.33 96 139.66 96 140C92.7 140.33 89.4 140.66 86 141C88.1427 136.715 92.0429 138.209 96 139Z" fill="#4C2627"/>
<path d="M46 124C45.01 124.33 44.02 124.66 43 125C43 125.66 43 126.32 43 127C44.32 127.33 45.64 127.66 47 128C45.35 128 43.7 128 42 128C41.34 126.68 40.68 125.36 40 124C43.75 122.875 43.75 122.875 46 124Z" fill="#9E5843"/>
<path d="M37 78C37.99 78.33 38.98 78.66 40 79C40 80.32 40 81.64 40 83C38.68 83 37.36 83 36 83C36.33 81.35 36.66 79.7 37 78Z" fill="#BAC7C9"/>
<path d="M114 75C114.66 75.33 115.32 75.66 116 76C114.35 77.98 112.7 79.96 111 82C110.67 81.34 110.34 80.68 110 80C111.32 78.35 112.64 76.7 114 75Z" fill="#32526E"/>
<path d="M135 73C133.71 74.3756 132.373 75.7077 131 77C130.34 77 129.68 77 129 77C129.375 75.0625 129.375 75.0625 130 73C132 72 132 72 135 73Z" fill="#1E1614"/>
<path d="M116 50C116.66 50.33 117.32 50.66 118 51C117.67 54.96 117.34 58.92 117 63C116.67 63 116.34 63 116 63C116 59.37 116 55.74 116 52C115.34 51.67 114.68 51.34 114 51C114.66 50.67 115.32 50.34 116 50Z" fill="#76A6AE"/>
<path d="M59 37C60.98 37 62.96 37 65 37C63.515 38.98 63.515 38.98 62 41C61.01 40.67 60.02 40.34 59 40C59 39.01 59 38.02 59 37Z" fill="#DDAB81"/>
<path d="M61 22C61.66 22.99 62.32 23.98 63 25C61.02 25.66 59.04 26.32 57 27C56.34 26.34 55.68 25.68 55 25C56.98 24.01 58.96 23.02 61 22Z" fill="#463A36"/>
<path d="M49 22C49.66 22.99 50.32 23.98 51 25C48.6875 26.125 48.6875 26.125 46 27C45.01 26.34 44.02 25.68 43 25C44.98 24.01 46.96 23.02 49 22Z" fill="#353436"/>
</svg>
