<svg width="52" height="76" viewBox="0 0 52 76" fill="none" xmlns="http://www.w3.org/2000/svg">
<g clip-path="url(#clip0_116_190)">
<path d="M48.9806 66.9604C48.0658 68.7862 46.465 70.3918 44.6193 71.3128C44.7369 71.5545 44.8546 71.7961 44.9757 72.0452C45.3252 73.0913 45.2537 73.6168 44.9548 74.6608C44.7334 74.5503 44.5119 74.4398 44.2838 74.326C44.2838 74.105 44.2838 73.8841 44.2838 73.6564C43.1842 73.908 43.1842 73.908 42.6064 74.9956C42.1591 74.7724 41.7118 74.5492 41.2645 74.326C40.9462 74.2086 40.6279 74.0912 40.2999 73.9703C37.8749 72.4698 36.6516 69.2906 35.3516 66.8348C33.7223 63.8025 31.959 60.8906 30.0926 57.9992C29.1199 56.4901 28.2202 54.9484 27.3419 53.3826C26.4467 51.9262 25.7697 50.8521 24.0919 50.3458C21.9279 49.467 20.7739 47.7221 19.458 45.8678C19.2725 45.6218 19.087 45.3758 18.8958 45.1224C17.4565 42.9617 17.4566 40.6887 17.7806 38.1674C18.2006 36.7673 18.772 35.8182 19.8354 34.8194C20.4645 34.4846 20.4645 34.4846 21.1354 34.4846C18.9929 31.2508 16.9042 28.4349 13.95 25.9079C12.8075 24.8556 12.129 23.7966 11.4064 22.4317C10.2439 22.5974 10.2439 22.5974 9.05801 22.7665C9.07185 22.4558 9.08569 22.145 9.09995 21.8249C9.14905 20.7048 9.14905 20.7048 8.38704 19.7533C8.31014 19.2881 8.24927 18.8201 8.19833 18.3513C7.84668 16.323 6.83123 14.7418 5.70702 13.0485C4.77155 11.5475 4.52292 10.4924 4.83014 8.73811C5.13225 7.68723 5.61264 6.91738 6.2693 6.04736C6.60338 5.58708 6.60338 5.58708 6.9442 5.1175C8.0374 4.03394 9.12122 3.78391 10.6096 3.53634C11.4064 3.68282 11.4064 3.68282 12.1193 4.4152C12.7483 5.35683 12.7483 5.35683 13.2096 6.21476C13.7152 7.0967 13.7152 7.0967 14.6852 7.5932C16 8.53675 16.6814 9.54832 17.529 10.902C17.6743 11.1271 17.8196 11.3521 17.9693 11.584C18.2381 12.0009 18.5054 12.4189 18.7703 12.8383C19.1038 13.3626 19.4483 13.8798 19.7935 14.3965C19.8973 14.9765 19.8973 14.9765 20.0032 15.5683C20.4744 17.6151 21.896 19.1216 23.1483 20.7577C24.8258 23.0653 24.8258 23.0653 24.8258 24.3778C24.4706 25.1531 24.1632 25.5993 23.4838 26.1145C23.2624 26.1145 23.041 26.1145 22.8128 26.1145C24.3837 29.5301 26.2497 32.4946 28.5161 35.489C28.7133 35.3259 28.9105 35.1627 29.1137 34.9946C30.1812 34.2631 30.9396 34.3491 32.2064 34.4846C33.0032 34.8612 33.0032 34.8612 33.5483 35.489C33.6817 36.1546 33.7958 36.8247 33.8838 37.4978C34.2159 37.6635 34.2159 37.6635 34.5548 37.8326C34.3678 38.9521 34.1013 39.8525 33.5483 40.8458C34.1918 40.7422 34.1918 40.7422 34.8483 40.6366C35.5796 40.5189 35.5796 40.5189 36.2322 40.511C36.5643 40.8425 36.5643 40.8425 36.9032 41.1806C36.8822 41.9967 36.8822 41.9967 36.5677 42.8546C35.708 43.4615 35.708 43.4615 34.8903 43.859C35.1972 45.6497 35.7331 47.1333 36.9032 48.5463C37.7166 48.9954 38.5154 49.2779 39.3957 49.5729C40.8172 50.0881 41.9171 50.7832 42.9419 51.8943C43.2146 52.6171 43.2146 52.6171 43.4058 53.4257C43.9312 55.3371 44.7875 56.9411 45.7725 58.6531C45.9327 58.9377 46.093 59.2223 46.2581 59.5156C46.8447 60.5556 47.4313 61.5947 48.0483 62.6172C49.0371 64.2676 49.2205 65.0752 48.9806 66.9604Z" fill="#0B0B0D"/>
<path d="M33.724 36.2135C33.4416 37.7404 32.3658 38.5316 31.2629 39.5694C30.9395 39.885 30.9395 39.885 30.6096 40.2069C29.7153 41.0717 28.885 41.828 27.8452 42.5198C28.3434 42.6855 28.3434 42.6855 28.8516 42.8546C29.4203 42.5362 29.9801 42.2014 30.529 41.8502C30.7505 41.8502 30.9719 41.8502 31.2 41.8502C30.7333 43.0158 30.3134 43.4063 29.1661 43.9009C28.1194 44.3104 28.1194 44.3104 27.5097 45.1982C27.2883 45.1982 27.0668 45.1982 26.8387 45.1982C26.8387 45.6402 26.8387 46.0821 26.8387 46.5374C26.6173 46.5374 26.3959 46.5374 26.1677 46.5374C26.057 46.8689 25.9463 47.2003 25.8323 47.5418C25.6108 47.3209 25.3894 47.0999 25.1613 46.8722C24.7807 46.8722 24.4002 46.8722 24.0081 46.8722C22.8129 46.8722 22.8129 46.8722 21.8065 46.2026C21.6343 44.8771 21.5861 44.1574 22.3936 43.0639C23.1484 42.5198 23.1484 42.5198 24.4903 42.185C24.601 40.9697 24.7117 39.7544 24.8258 38.5022C24.6044 38.5022 24.383 38.5022 24.1548 38.5022C24.0441 39.2756 23.9334 40.049 23.8194 40.8458C23.3084 39.8624 22.8797 38.8648 22.4774 37.8326C21.8132 37.9983 21.8132 37.9983 21.1355 38.1674C21.2462 39.0513 21.3569 39.9351 21.471 40.8458C22.2459 41.0668 23.0209 41.2877 23.8194 41.5154C23.4629 42.0176 23.4629 42.0176 22.8129 42.5198C21.6387 42.6872 21.6387 42.6872 20.4645 42.5198C19.5677 41.5959 19.3914 40.7525 19.3323 39.5066C19.3889 38.2615 19.6022 37.44 20.4645 36.4934C21.429 36.1586 21.429 36.1586 22.4774 36.1586C23.4419 36.6399 23.4419 36.6399 24.1548 37.163C22.2426 33.0011 19.6761 29.3201 16.8555 25.7326C14.4258 22.6405 14.4258 22.6405 14.4258 21.7621C14.0729 21.7966 13.72 21.8312 13.3565 21.8667C12.0774 21.7621 12.0774 21.7621 11.1548 21.0088C10.9058 20.705 10.6567 20.4011 10.4 20.0881C10.2132 19.874 10.0264 19.66 9.83388 19.4394C9.39356 18.7489 9.39356 18.7489 9.12884 17.9001C8.79691 16.9523 8.43259 16.1171 7.98479 15.223C7.84921 14.9515 7.71364 14.6801 7.57395 14.4004C7.29053 13.8382 7.00394 13.2776 6.71427 12.7185C6.11183 11.5006 5.69923 10.6579 5.71896 9.2842C6.06024 8.30851 6.46978 7.50581 7.0242 6.63325C7.20022 6.3523 7.37623 6.07134 7.55757 5.78186C8.69881 4.02666 8.69881 4.02666 9.32804 3.78744C10.0503 3.67865 10.6784 3.61059 11.4065 3.68281C12.2497 4.45608 12.6719 5.21457 13.2097 6.21475C13.7153 7.09669 13.7153 7.09669 14.6853 7.59319C16 8.53674 16.6814 9.54832 17.529 10.902C17.6743 11.127 17.8197 11.3521 17.9694 11.584C18.2382 12.0009 18.5054 12.4189 18.7704 12.8383C19.1038 13.3626 19.4484 13.8798 19.7936 14.3965C19.8628 14.7832 19.9319 15.1699 20.0032 15.5683C20.4745 17.6151 21.8961 19.1216 23.1484 20.7577C24.8258 23.0653 24.8258 23.0653 24.8258 24.3777C24.4706 25.1531 24.1632 25.5993 23.4839 26.1145C23.2625 26.1145 23.041 26.1145 22.8129 26.1145C24.3837 29.5301 26.2498 32.4946 28.5161 35.489C28.7133 35.3258 28.9105 35.1627 29.1137 34.9946C30.1812 34.2631 30.9396 34.3491 32.2065 34.4846C33.159 34.9477 33.4739 35.1817 33.724 36.2135Z" fill="#1D1C1D"/>
<path d="M44.9549 74.6608C44.7335 74.5503 44.5121 74.4398 44.2839 74.326C44.2839 74.105 44.2839 73.8841 44.2839 73.6564C43.1843 73.908 43.1843 73.908 42.6065 74.9956C42.1592 74.7724 41.7119 74.5492 41.2646 74.326C40.9463 74.2086 40.628 74.0912 40.3001 73.9703C37.875 72.4698 36.6517 69.2906 35.3517 66.8348C33.7224 63.8025 31.9591 60.8906 30.0927 57.9992C29.12 56.4901 28.2203 54.9484 27.342 53.3826C26.4468 51.9262 25.7699 50.8521 24.092 50.3458C21.928 49.467 20.7741 47.7221 19.4581 45.8678C19.2726 45.6218 19.0871 45.3758 18.8959 45.1224C17.4566 42.9617 17.4567 40.6887 17.7807 38.1674C18.2007 36.7673 18.7721 35.8182 19.8355 34.8194C20.4646 34.4846 20.4646 34.4846 21.1355 34.4846C18.993 31.2508 16.9044 28.4349 13.9502 25.9079C12.8076 24.8556 12.1291 23.7966 11.4065 22.4317C10.2441 22.5974 10.2441 22.5974 9.05813 22.7665C9.07197 22.4558 9.0858 22.145 9.10006 21.8249C9.14917 20.7048 9.14917 20.7048 8.38716 19.7533C8.31025 19.2881 8.24938 18.8201 8.19845 18.3513C7.8468 16.323 6.83135 14.7418 5.70714 13.0485C4.77314 11.5499 4.52005 10.4918 4.82584 8.73959C5.13867 7.67248 5.65294 6.90064 6.33232 6.02643C6.68391 5.56033 6.68391 5.56033 7.0426 5.0848C7.71619 4.35242 7.71619 4.35242 8.72264 4.01762C8.35688 4.77615 7.9666 5.49912 7.53403 6.22261C7.26094 6.68483 7.26094 6.68483 6.98232 7.15639C6.79766 7.46281 6.613 7.76923 6.42274 8.08494C5.87035 9.4584 6.0861 10.339 6.63562 11.6919C6.96014 12.4131 7.30289 13.1225 7.65329 13.8315C7.89912 14.3375 8.14463 14.8436 8.38978 15.3499C8.50665 15.5903 8.62352 15.8308 8.74394 16.0785C9.12166 16.8739 9.4588 17.683 9.792 18.4978C10.349 19.7448 10.9609 20.5981 12.0775 21.4273C12.458 21.4549 12.8386 21.4826 13.2307 21.511C14.4259 21.7621 14.4259 21.7621 14.9055 22.2957C15.2342 22.8073 15.5526 23.3255 15.8635 23.8481C16.514 24.8966 17.2625 25.8436 18.0323 26.8051C19.9458 29.2347 21.5631 31.8338 23.1484 34.4846C23.3497 34.8097 23.3497 34.8097 23.555 35.1414C23.8876 35.6917 24.1917 36.2589 24.4904 36.8282C24.3797 37.0492 24.269 37.2701 24.1549 37.4978C23.9196 37.3252 23.6844 37.1525 23.442 36.9747C22.2542 36.382 21.7139 36.4126 20.4646 36.8282C19.6148 37.7919 19.6979 38.9797 19.7255 40.2076C19.8079 40.9794 20.0338 41.5401 20.4646 42.185C22.0248 42.2752 22.0248 42.2752 23.4839 41.8502C23.0065 41.7259 23.0065 41.7259 22.5194 41.5991C21.471 41.1806 21.471 41.1806 21.0097 40.5738C20.7655 39.7208 20.707 39.0501 20.8001 38.1674C21.0215 37.9464 21.2429 37.7255 21.471 37.4978C22.142 37.5187 22.142 37.5187 22.813 37.8326C23.2323 38.6905 23.2323 38.6905 23.4839 39.5066C23.7054 39.0647 23.9268 38.6227 24.1549 38.1674C24.6673 38.5754 24.6673 38.5754 25.1614 39.1718C25.1946 40.2507 24.9348 41.2045 24.4904 42.185C23.463 42.8337 23.463 42.8337 22.4775 43.1894C21.9815 44.1793 22.1218 45.112 22.142 46.2026C22.9093 46.5855 23.3473 46.572 24.1968 46.5584C24.6258 46.5515 25.0548 46.5446 25.4968 46.5374C25.566 46.7446 25.6352 46.9518 25.7065 47.1652C25.8587 47.4 26.011 47.6348 26.1678 47.8767C26.6148 47.966 26.6148 47.966 27.0707 48.0571C28.7783 48.8096 29.3845 50.1548 30.2984 51.7269C30.4786 52.0152 30.6587 52.3035 30.8443 52.6005C31.7061 54.0495 32.2861 55.1912 32.3559 56.8888C32.4673 59.0972 33.5974 60.7062 34.7436 62.5452C34.9563 62.8965 35.1689 63.2478 35.388 63.6098C35.809 64.3036 36.2326 64.9958 36.659 65.6862C37.154 66.4882 37.6412 67.2937 38.1233 68.1034C39.0867 69.9791 39.0867 69.9791 40.5936 71.3128C41.202 71.2938 41.8101 71.2645 42.4178 71.2291C44.181 71.2129 44.181 71.2129 45.0388 72.0452C45.3134 73.073 45.2719 73.6541 44.9549 74.6608Z" fill="#77B6BD"/>
<path d="M42.271 52.5639C41.7321 55.0344 40.7276 56.539 38.5807 57.9207C37.2327 58.3752 35.9656 58.3225 34.5549 58.2555C34.2227 58.0345 33.8906 57.8136 33.5484 57.5859C33.775 57.5453 34.0016 57.5048 34.2351 57.463C34.684 57.3788 34.684 57.3788 35.142 57.293C35.4378 57.2386 35.7336 57.1842 36.0383 57.1282C36.8595 56.927 37.5091 56.6552 38.2452 56.2467C37.8979 56.3114 37.5507 56.3762 37.1929 56.4429C35.8968 56.2467 35.8968 56.2467 35.3679 55.6611C34.8519 54.8271 34.3926 53.9813 33.9468 53.1079C33.6308 52.519 33.3141 51.9305 32.9967 51.3424C32.8606 51.0794 32.7244 50.8164 32.5841 50.5454C32.2178 49.838 32.2178 49.838 31.5355 49.2159C31.6371 49.3932 31.7388 49.5705 31.8435 49.7531C32.3022 50.5563 32.7576 51.3612 33.2129 52.1663C33.3729 52.4453 33.533 52.7243 33.6978 53.0118C33.8492 53.2805 34.0005 53.5491 34.1565 53.8259C34.297 54.0731 34.4376 54.3204 34.5824 54.5751C34.8904 55.2423 34.8904 55.2423 34.8904 56.2467C34.5582 56.2467 34.2261 56.2467 33.8839 56.2467C33.7135 55.8988 33.5431 55.551 33.3676 55.1926C32.1787 52.7832 30.9815 50.4194 29.5331 48.1513C29.1871 47.5418 29.1871 47.5418 29.1871 46.8722C28.1907 47.3142 27.1944 47.7561 26.1678 48.2115C25.8323 47.5418 25.8323 47.5418 26.1678 46.5374C26.3892 46.5374 26.6106 46.5374 26.8387 46.5374C26.8387 46.0955 26.8387 45.6536 26.8387 45.1982C27.0602 45.1982 27.2816 45.1982 27.5097 45.1982C27.6758 44.7011 27.6758 44.7011 27.8452 44.1938C28.5266 43.7531 28.5266 43.7531 29.3549 43.3359C30.4964 42.8157 30.4964 42.8157 31.2 41.8502C30.8402 42.085 30.4804 42.3198 30.1097 42.5617C29.4964 42.9619 29.4964 42.9619 28.8516 43.1894C28.102 42.8939 28.102 42.8939 27.5097 42.5198C28.1382 41.9403 28.7673 41.3615 29.3968 40.783C29.5719 40.6214 29.7471 40.4598 29.9275 40.2933C31.1056 39.2119 32.3115 38.1768 33.5484 37.163C34.0466 37.4944 34.0466 37.4944 34.5549 37.8326C34.3679 38.9521 34.1014 39.8525 33.5484 40.8458C33.9774 40.7768 34.4064 40.7077 34.8484 40.6366C35.5797 40.5189 35.5797 40.5189 36.2323 40.511C36.4537 40.732 36.6751 40.953 36.9033 41.1806C36.8823 41.9967 36.8823 41.9967 36.5678 42.8546C35.7081 43.4615 35.7081 43.4615 34.8904 43.859C35.1966 45.6458 35.7284 47.1409 36.9033 48.5463C37.7558 48.9954 38.5913 49.2894 39.5072 49.586C40.5401 49.9979 40.8292 50.5627 41.2645 51.5595C41.591 51.9031 41.9253 52.2396 42.271 52.5639Z" fill="#4C3E41"/>
<path d="M33.724 36.2135C33.4416 37.7404 32.3658 38.5316 31.2629 39.5694C30.9395 39.885 30.9395 39.885 30.6096 40.2069C29.7153 41.0717 28.885 41.828 27.8452 42.5198C28.3434 42.6855 28.3434 42.6855 28.8516 42.8546C29.4203 42.5362 29.9801 42.2014 30.529 41.8502C30.7505 41.8502 30.9719 41.8502 31.2 41.8502C30.7333 43.0158 30.3134 43.4063 29.1661 43.9009C28.1194 44.3104 28.1194 44.3104 27.5097 45.1982C27.2883 45.1982 27.0668 45.1982 26.8387 45.1982C26.8387 45.6402 26.8387 46.0821 26.8387 46.5374C26.6173 46.5374 26.3959 46.5374 26.1677 46.5374C26.057 46.8689 25.9463 47.2003 25.8323 47.5418C25.6108 47.3209 25.3894 47.0999 25.1613 46.8722C24.7807 46.8722 24.4002 46.8722 24.0081 46.8722C22.8129 46.8722 22.8129 46.8722 21.8065 46.2026C21.6343 44.8771 21.5861 44.1574 22.3936 43.0639C23.1484 42.5198 23.1484 42.5198 24.4903 42.185C24.601 40.9697 24.7118 39.7544 24.8258 38.5022C24.6044 38.5022 24.383 38.5022 24.1548 38.5022C24.0441 39.2756 23.9334 40.049 23.8194 40.8458C23.3084 39.8624 22.8797 38.8648 22.4774 37.8326C22.0346 37.9431 21.5918 38.0536 21.1355 38.1674C21.2462 39.0513 21.3569 39.9351 21.471 40.8458C22.2459 41.0668 23.0209 41.2877 23.8194 41.5154C23.4629 42.0176 23.4629 42.0176 22.8129 42.5198C21.6387 42.6872 21.6387 42.6872 20.4645 42.5198C19.5677 41.5959 19.3914 40.7525 19.3323 39.5066C19.3889 38.2615 19.6022 37.44 20.4645 36.4934C21.429 36.1586 21.429 36.1586 22.4774 36.1586C23.4419 36.6399 23.4419 36.6399 24.1548 37.163C24.0415 36.9407 23.9282 36.7185 23.8115 36.4895C23.6619 36.1938 23.5122 35.8982 23.3581 35.5936C23.2102 35.3023 23.0623 35.011 22.9099 34.7108C22.502 33.8659 22.1444 33.0157 21.8065 32.141C22.8129 32.141 22.8129 32.141 23.379 32.6013C23.8194 33.1454 23.8194 33.1454 23.8194 33.815C24.0408 33.815 24.2622 33.815 24.4903 33.815C25.1113 34.7278 25.6583 35.6752 26.2175 36.6268C26.8357 37.4935 27.1967 37.8083 28.1807 38.1674C28.6544 36.7913 28.6544 36.7913 29.0194 35.3844C29.0747 35.1979 29.1301 35.0115 29.1871 34.8194C30.2127 34.3076 31.0758 34.4068 32.2065 34.4846C33.159 34.9477 33.4739 35.1817 33.724 36.2135Z" fill="#241A1E"/>
<path d="M44.9549 74.6608C44.7335 74.5503 44.5121 74.4398 44.2839 74.326C44.2839 74.105 44.2839 73.8841 44.2839 73.6564C43.1843 73.908 43.1843 73.908 42.6065 74.9956C42.1592 74.7724 41.7119 74.5492 41.2646 74.326C40.9463 74.2086 40.628 74.0912 40.3001 73.9703C37.875 72.4698 36.6517 69.2906 35.3517 66.8348C33.7224 63.8025 31.9591 60.8906 30.0927 57.9992C29.12 56.4901 28.2203 54.9484 27.342 53.3826C26.4108 51.8676 25.6697 50.8178 23.9662 50.1993C23.0567 49.8249 22.4873 49.5594 21.7436 48.902C21.471 48.2115 21.471 48.2115 21.7436 47.2907C21.8751 47.0422 22.0065 46.7936 22.142 46.5374C23.2491 46.5374 24.3562 46.5374 25.4968 46.5374C25.7183 46.9794 25.9397 47.4213 26.1678 47.8767C26.6212 47.9854 26.6212 47.9854 27.0838 48.0964C28.7988 48.7998 29.3928 50.1691 30.2984 51.7269C30.4786 52.0152 30.6587 52.3035 30.8443 52.6005C31.7061 54.0495 32.2861 55.1912 32.3559 56.8888C32.4673 59.0972 33.5974 60.7062 34.7436 62.5452C34.9563 62.8965 35.1689 63.2478 35.388 63.6098C35.809 64.3036 36.2326 64.9958 36.659 65.6862C37.154 66.4882 37.6412 67.2937 38.1233 68.1034C39.0867 69.9791 39.0867 69.9791 40.5936 71.3128C41.202 71.2938 41.8101 71.2645 42.4178 71.2291C44.181 71.2129 44.181 71.2129 45.0388 72.0452C45.3134 73.073 45.2719 73.6541 44.9549 74.6608Z" fill="#75B9C0"/>
<path d="M47.9742 66.9604C47.095 68.4173 46.2523 69.6809 44.6194 70.3084C44.2872 70.3084 43.9551 70.3084 43.6129 70.3084C41.3314 67.5297 39.6536 64.2236 39.9226 60.5991C39.7012 60.5991 39.4798 60.5991 39.2516 60.5991C39.1468 59.6993 39.1468 59.6993 39.2516 58.5903C39.9805 57.7289 40.5868 57.0871 41.6 56.5815C41.8452 55.8067 42.0702 55.0252 42.271 54.2379C42.8777 55.1461 43.3299 56.0182 43.8016 57C44.8702 59.1591 46.094 61.2055 47.3517 63.2592C48.2619 64.7547 48.4532 65.2394 47.9742 66.9604Z" fill="#878A8C"/>
<path d="M18.7832 17.3783C18.1928 18.6265 17.2991 19.4185 16.1033 20.0881C15.355 20.3065 15.355 20.3065 14.7613 20.4229C13.967 19.2023 13.1845 17.9751 12.4129 16.7401C12.2797 16.5273 12.1465 16.3145 12.0093 16.0953C11.5724 15.3284 11.3576 14.9101 11.5952 14.0407C11.9536 13.5587 12.335 13.0936 12.7275 12.6388C13.5953 11.484 13.9624 10.4039 14.4258 9.03964C16.5029 9.72583 17.5842 12.2548 18.518 14.0994C19.0072 15.2478 19.047 16.1725 18.7832 17.3783Z" fill="#778B91"/>
<path d="M19.7936 14.3965C19.5 15.2963 19.5 15.2963 19.1226 16.0705C19.0279 15.8761 18.9332 15.6818 18.8356 15.4816C18.2183 14.2753 17.4909 13.1395 16.7742 11.9901C16.6229 11.7434 16.4715 11.4968 16.3156 11.2427C16.1694 11.0081 16.0232 10.7735 15.8726 10.5319C15.7398 10.3177 15.6071 10.1036 15.4703 9.88295C15.1171 9.32081 15.1171 9.32081 14.4258 9.03965C14.3982 9.26753 14.3705 9.4954 14.342 9.73018C13.8553 11.6323 13.028 12.9421 11.4065 14.0617C11.0273 13.6448 10.6503 13.2259 10.2742 12.8062C10.064 12.5731 9.85387 12.3401 9.63733 12.0999C9.0581 11.3833 9.0581 11.3833 8.70164 10.6404C8.59785 10.4436 8.49406 10.2468 8.38713 10.0441C7.5299 9.77229 7.5299 9.77229 6.70971 9.70926C6.82042 9.48829 6.93113 9.26732 7.04519 9.03965C7.93982 9.03965 8.83444 9.03965 9.72906 9.03965C10.5205 7.61215 10.5205 7.61215 10.7355 6.02644C10.4034 6.79983 10.0713 7.57322 9.72906 8.37005C9.39358 7.70044 9.39358 7.70044 9.39358 7.36564C9.17216 7.6971 8.95074 8.02855 8.72261 8.37005C8.50119 8.37005 8.27977 8.37005 8.05164 8.37005C8.22993 6.85772 8.81995 5.89691 9.72906 4.68723C9.95048 4.57674 10.1719 4.46626 10.4 4.35243C10.1786 4.13146 9.95719 3.91049 9.72906 3.68282C10.4839 3.5782 10.4839 3.5782 11.4065 3.68282C12.1737 4.47102 12.69 5.24826 13.2097 6.21476C13.7153 7.0967 13.7153 7.0967 14.6853 7.5932C16.0001 8.53675 16.6815 9.54833 17.5291 10.902C17.747 11.2396 17.747 11.2396 17.9694 11.584C18.2382 12.0009 18.5054 12.4189 18.7704 12.8383C19.1039 13.3626 19.4484 13.8798 19.7936 14.3965Z" fill="#1C2121"/>
<path d="M18.4517 29.1278C16.9896 29.1278 16.3187 28.2365 15.3065 27.2863C15.0125 27.0136 15.0125 27.0136 14.7126 26.7354C13.3297 25.4208 12.2915 24.1328 11.4065 22.4317C10.244 22.5974 10.244 22.5974 9.05811 22.7665C9.07887 22.3004 9.07887 22.3004 9.10005 21.8249C9.14915 20.7048 9.14915 20.7048 8.38714 19.7533C8.31024 19.2881 8.24937 18.8201 8.19843 18.3513C7.84678 16.323 6.83133 14.7418 5.70712 13.0485C4.77312 11.5499 4.52003 10.4918 4.82582 8.73959C5.13865 7.67248 5.65292 6.90064 6.3323 6.02643C6.5667 5.7157 6.80109 5.40496 7.04259 5.0848C7.71618 4.35243 7.71618 4.35243 8.72263 4.01762C8.35686 4.77615 7.96658 5.49912 7.53402 6.22261C7.26092 6.68483 7.26092 6.68483 6.9823 7.15639C6.79764 7.46281 6.61298 7.76923 6.42273 8.08494C5.87034 9.4584 6.08608 10.339 6.6356 11.6919C6.96012 12.4131 7.30287 13.1225 7.65327 13.8315C7.89911 14.3375 8.14461 14.8436 8.38976 15.3499C8.50664 15.5903 8.62351 15.8308 8.74392 16.0785C9.12165 16.8739 9.45878 17.683 9.79198 18.4978C10.3489 19.7448 10.9609 20.5981 12.0775 21.4273C12.458 21.4549 12.8386 21.4826 13.2307 21.511C14.4259 21.7621 14.4259 21.7621 14.9527 22.3663C15.2924 22.8936 15.6211 23.428 15.9395 23.9684C16.4219 24.748 16.9389 25.3495 17.571 26.0099C18.4938 27.0364 18.6568 27.7287 18.4517 29.1278Z" fill="#69B1BB"/>
<path d="M39.9226 53.9031C39.1386 55.2362 38.3903 55.8281 36.9033 56.2467C36.5711 56.2467 36.239 56.2467 35.8968 56.2467C35.4651 55.6946 35.4651 55.6946 35.0384 54.9258C34.8812 54.6479 34.724 54.3699 34.5621 54.0836C34.4005 53.7892 34.239 53.4949 34.0726 53.1916C33.7521 52.6185 33.4311 52.0456 33.1094 51.4731C32.9568 51.1998 32.8042 50.9265 32.647 50.645C32.2615 49.9804 31.8557 49.3478 31.4189 48.7163C30.8645 47.8766 30.8645 47.8766 30.8645 47.207C30.6431 47.0966 30.4217 46.9861 30.1936 46.8722C31.2296 46.2814 31.6137 46.2026 32.8774 46.2026C32.8774 45.6502 32.8774 45.0978 32.8774 44.5286C33.0989 44.5286 33.3203 44.5286 33.5484 44.5286C33.9835 45.122 33.9835 45.122 34.471 45.9463C34.6474 46.2424 34.8239 46.5384 35.0057 46.8435C35.189 47.1568 35.3724 47.4701 35.5613 47.7929C35.7447 48.1011 35.928 48.4092 36.117 48.7267C38.27 52.3605 38.27 52.3605 38.1403 53.4218C37.9675 54.0333 37.7756 54.6395 37.5742 55.2423C38.5715 54.2903 38.8998 53.8622 38.9791 52.4383C38.9219 51.3349 38.8284 50.7949 38.2452 49.8855C40.1862 50.5311 40.2084 52.1 39.9226 53.9031Z" fill="#6B7679"/>
<path d="M29.8581 38.5022C29.1032 39.2973 29.1032 39.2973 28.1807 39.8414C27.2504 39.7766 26.6606 39.5851 25.8323 39.1718C25.8323 39.7242 25.8323 40.2766 25.8323 40.8458C25.6108 40.8458 25.3894 40.8458 25.1613 40.8458C25.0506 40.0724 24.9399 39.299 24.8258 38.5022C24.6044 38.5022 24.383 38.5022 24.1548 38.5022C24.0441 39.2756 23.9334 40.049 23.8194 40.8458C23.3084 39.8624 22.8797 38.8648 22.4774 37.8326C22.0346 37.9431 21.5918 38.0536 21.1355 38.1674C21.3016 39.4932 21.3016 39.4932 21.471 40.8458C22.6334 41.1773 22.6334 41.1773 23.8194 41.5154C23.4629 42.0176 23.4629 42.0176 22.8129 42.5198C21.6387 42.6872 21.6387 42.6872 20.4645 42.5198C19.5677 41.5959 19.3914 40.7525 19.3323 39.5066C19.3889 38.2615 19.6022 37.44 20.4645 36.4934C21.429 36.1586 21.429 36.1586 22.4774 36.1586C23.4419 36.6399 23.4419 36.6399 24.1548 37.163C24.0415 36.9407 23.9282 36.7185 23.8115 36.4895C23.6619 36.1938 23.5122 35.8982 23.3581 35.5936C23.2102 35.3023 23.0623 35.011 22.9099 34.7108C22.502 33.866 22.1444 33.0157 21.8065 32.141C22.8129 32.141 22.8129 32.141 23.379 32.6013C23.8194 33.1454 23.8194 33.1454 23.8194 33.815C24.0408 33.815 24.2622 33.815 24.4903 33.815C25.1113 34.7278 25.6583 35.6752 26.2175 36.6268C26.8357 37.4935 27.1967 37.8083 28.1807 38.1674C28.2844 37.8497 28.3882 37.5321 28.4952 37.2048C28.8516 36.1586 28.8516 36.1586 29.1871 35.489C30.2516 36.5514 30.3321 37.0831 29.8581 38.5022Z" fill="#100C0D"/>
<path d="M28.3865 37.9009C28.3186 38.0994 28.2507 38.2978 28.1807 38.5022C26.8936 38.002 26.3483 37.2848 25.5807 36.1586C25.3748 35.8617 25.169 35.5647 24.9569 35.2588C24.4903 34.4846 24.4903 34.4846 24.4903 33.815C24.2689 33.815 24.0475 33.815 23.8194 33.815C23.3489 33.1179 23.3489 33.1179 22.8339 32.2037C22.2317 31.1386 21.664 30.3199 20.8 29.4626C20.6893 29.1311 20.5786 28.7996 20.4645 28.4581C20.9468 27.5584 20.9468 27.5584 21.471 26.7841C20.8067 26.6737 20.1425 26.5632 19.4581 26.4493C19.4581 26.0074 19.4581 25.5655 19.4581 25.1101C19.3474 25.1101 19.2367 25.1101 19.1226 25.1101C18.7905 25.1101 18.4583 25.1101 18.1162 25.1101C18.0054 24.7787 17.8947 24.4472 17.7807 24.1057C18.0021 23.8848 18.2235 23.6638 18.4516 23.4361C17.7874 23.5466 17.1231 23.6571 16.4387 23.7709C16.2727 23.4395 16.2727 23.4395 16.1033 23.1013C16.3247 23.1013 16.5461 23.1013 16.7742 23.1013C16.8849 22.7699 16.9956 22.4384 17.1097 22.0969C16.8883 21.9864 16.6669 21.8759 16.4387 21.7621C16.7113 21.1134 16.7113 21.1134 17.1097 20.4229C17.6079 20.2572 17.6079 20.2572 18.1162 20.0881C19.1679 21.8232 20.2079 23.5642 21.2233 25.3207C23.2112 28.7572 25.1909 32.1757 27.4719 35.4296C28.5436 37.007 28.5436 37.007 28.3865 37.9009Z" fill="#BB7D7A"/>
<path d="M44.9548 74.6608C44.7334 74.5503 44.5119 74.4398 44.2838 74.326C44.2838 74.105 44.2838 73.884 44.2838 73.6564C43.1842 73.908 43.1842 73.908 42.6064 74.9956C42.1591 74.7724 41.7118 74.5492 41.2645 74.326C40.787 74.1499 40.787 74.1499 40.2999 73.9703C37.7991 72.4229 36.4877 69.0399 35.1209 66.5209C34.9408 66.1944 34.7607 65.8679 34.5751 65.5316C34.4036 65.2171 34.2321 64.9027 34.0555 64.5788C33.9014 64.2964 33.7473 64.014 33.5885 63.7231C33.2444 63.0083 33.0505 62.3729 32.8774 61.6035C32.7597 61.3756 32.6421 61.1478 32.5209 60.913C32.2064 60.2643 32.2064 60.2643 32.2064 59.2599C32.4278 59.2599 32.6492 59.2599 32.8774 59.2599C33.3575 59.9693 33.7921 60.6746 34.2193 61.4152C34.3504 61.6374 34.4815 61.8596 34.6166 62.0885C35.1977 63.0749 35.7717 64.0655 36.3444 65.0568C36.6429 65.5734 36.942 66.0896 37.2419 66.6054C37.5279 67.0978 37.8119 67.5914 38.0937 68.0863C39.12 69.8855 39.12 69.8855 40.5935 71.3128C41.5069 71.412 41.5069 71.412 42.4596 71.2918C43.4412 71.2552 43.4412 71.2552 44.2838 71.3128C45.405 72.4006 45.4115 73.2106 44.9548 74.6608Z" fill="#65AEB8"/>
<path d="M43.6129 70.6432C42.6785 70.7321 42.6785 70.7321 41.6 70.6432C40.9723 70.052 40.9723 70.052 40.4468 69.2203C40.2509 68.9156 40.055 68.6109 39.8531 68.2969C39.0425 66.9469 38.2361 65.5956 37.455 64.2283C36.8431 63.1739 36.1888 62.1545 35.5102 61.1419C35.2258 60.5991 35.2258 60.5991 35.2258 59.5947C35.8129 59.6156 35.8129 59.6156 36.5678 59.9295C37.1029 60.68 37.4888 61.4481 37.9097 62.2731C37.5776 61.2788 37.2454 60.2844 36.9032 59.2599C37.6782 59.0389 38.4532 58.818 39.2516 58.5903C39.2516 59.2532 39.2516 59.9161 39.2516 60.5991C39.473 60.5991 39.6945 60.5991 39.9226 60.5991C39.9849 61.0238 39.9849 61.0238 40.0484 61.457C40.5406 64.1586 41.4442 66.8231 43.1634 69.0071C43.6129 69.6388 43.6129 69.6388 43.6129 70.6432Z" fill="#5F585C"/>
<path d="M36.2323 40.511C36.2244 41.2486 36.2244 41.2486 35.8968 42.185C35.1151 42.8433 34.2401 43.2991 33.3388 43.7753C33.1039 43.9087 32.8691 44.042 32.6272 44.1794C31.1267 44.999 29.8865 45.399 28.1807 45.533C28.4021 45.4226 28.6235 45.3121 28.8517 45.1982C28.8517 44.9773 28.8517 44.7563 28.8517 44.5286C28.6302 44.4181 28.4088 44.3077 28.1807 44.1938C28.3705 44.0808 28.5604 43.9677 28.756 43.8512C29.0021 43.7019 29.2481 43.5525 29.5017 43.3987C29.8695 43.1773 29.8695 43.1773 30.2447 42.9514C30.9108 42.5609 30.9108 42.5609 31.2 41.8502C30.8402 42.085 30.4804 42.3198 30.1097 42.5617C29.4964 42.9619 29.4964 42.9619 28.8517 43.1894C28.1021 42.8939 28.1021 42.8939 27.5097 42.5198C28.1382 41.9403 28.7673 41.3615 29.3968 40.783C29.572 40.6214 29.7471 40.4598 29.9276 40.2933C31.1056 39.2119 32.3115 38.1768 33.5484 37.163C33.8806 37.384 34.2127 37.6049 34.5549 37.8326C34.3679 38.9521 34.1014 39.8525 33.5484 40.8458C34.4341 40.7353 35.3198 40.6248 36.2323 40.511Z" fill="#63484C"/>
<path d="M29.1871 36.1586C29.0764 36.49 28.9657 36.8215 28.8516 37.163C27.7194 36.7863 27.6382 36.6503 27.0576 35.6773C26.9116 35.4358 26.7656 35.1942 26.6151 34.9453C26.4606 34.6828 26.306 34.4203 26.1468 34.1498C25.9033 33.744 25.9033 33.744 25.6549 33.33C25.1516 32.4892 24.6527 31.6459 24.1549 30.8018C24.0061 30.5504 23.8572 30.2991 23.7039 30.0401C23.006 28.8612 22.3108 27.6808 21.6178 26.499C20.3566 24.3514 19.0681 22.2201 17.7807 20.0881C17.9883 19.8326 18.1958 19.5771 18.4097 19.3139C19.1414 18.4153 19.1414 18.4153 19.7936 17.4097C20.6239 18.5698 20.6239 18.5698 21.471 19.7533C21.3603 19.9743 21.2496 20.1952 21.1355 20.4229C20.9141 20.0914 20.6927 19.76 20.4646 19.4185C20.4646 19.7499 20.4646 20.0814 20.4646 20.4229C20.3618 20.8715 20.2517 21.3185 20.1291 21.7621C20.5719 21.7621 21.0147 21.7621 21.471 21.7621C21.8031 22.5355 22.1353 23.3089 22.4775 24.1057C22.8826 22.8926 22.6597 22.5517 22.142 21.4273C23.4258 22.5736 24.0619 23.4385 24.4904 25.1101C24.0291 25.6123 24.0291 25.6123 23.4839 26.1145C23.2625 26.1145 23.0411 26.1145 22.8129 26.1145C24.1201 28.9568 25.5551 31.5028 27.4421 34.0008C28.5162 35.4291 28.5162 35.4291 28.5162 36.1586C28.7376 36.1586 28.959 36.1586 29.1871 36.1586Z" fill="#2D201F"/>
<path d="M48.9806 66.9604C48.0197 68.8783 46.3487 70.6259 44.2838 71.3128C44.0624 70.9813 43.841 70.6499 43.6128 70.3084C44.0211 70.1426 44.4293 69.9769 44.8499 69.8062C46.2309 69.1147 46.9175 68.3124 47.7343 67.0257C48.1678 65.6973 47.7727 64.5596 47.1801 63.3322C46.9893 63.0125 46.7986 62.6928 46.6021 62.3634C46.3943 62.0118 46.1865 61.6603 45.9724 61.2982C45.7542 60.9363 45.536 60.5744 45.3112 60.2015C44.9859 59.6529 44.9859 59.6529 44.654 59.0932C43.8812 57.7933 43.1111 56.5 42.2709 55.2423C42.1602 55.9052 42.0495 56.5681 41.9354 57.2511C41.6033 57.1406 41.2712 57.0301 40.929 56.9163C40.7076 57.3582 40.4861 57.8002 40.258 58.2555C39.9259 58.145 39.5938 58.0345 39.2516 57.9207C39.6203 57.0928 39.9947 56.4982 40.5935 55.8073C41.4717 54.6296 41.9354 53.3765 41.9354 51.8943C41.7209 51.7976 41.5064 51.7009 41.2854 51.6013C40.5935 51.2247 40.5935 51.2247 40.258 50.5551C41.512 50.7242 42.1396 50.9098 42.9419 51.8943C43.1962 52.6048 43.1962 52.6048 43.394 53.4179C43.9281 55.3284 44.7867 56.9396 45.7725 58.6531C45.9328 58.9377 46.093 59.2223 46.2581 59.5156C46.8447 60.5556 47.4313 61.5947 48.0483 62.6172C49.0371 64.2676 49.2205 65.0752 48.9806 66.9604Z" fill="#1C181A"/>
<path d="M25.1836 39.8937C25.0087 40.7057 24.8339 41.4271 24.4903 42.185C23.4629 42.8337 23.4629 42.8337 22.4774 43.1894C21.8361 44.4694 22.0362 45.8861 22.4774 47.2071C22.1453 47.5385 21.8132 47.87 21.471 48.2115C19.5937 46.1442 18.9894 44.1618 19.0872 41.4108C19.0989 41.2244 19.1106 41.0379 19.1226 40.8458C19.344 40.8458 19.5654 40.8458 19.7936 40.8458C20.015 41.2878 20.2364 41.7297 20.4645 42.185C22.0247 42.2752 22.0247 42.2752 23.4839 41.8502C23.1656 41.7674 22.8473 41.6845 22.5194 41.5991C21.471 41.1806 21.471 41.1806 21.0097 40.5738C20.7655 39.7208 20.7069 39.0501 20.8 38.1674C21.0214 37.9464 21.2429 37.7255 21.471 37.4978C22.142 37.5187 22.142 37.5187 22.8129 37.8326C23.2323 38.6905 23.2323 38.6905 23.4839 39.5066C23.7053 39.0647 23.9267 38.6227 24.1549 38.1674C24.8633 38.7316 25.155 38.9673 25.1836 39.8937Z" fill="#64A3AA"/>
<path d="M42.2487 53.2819C41.6776 55.3861 40.396 56.7524 38.5806 57.9207C37.2327 58.3752 35.9656 58.3225 34.5548 58.2555C34.2227 58.0345 33.8906 57.8136 33.5484 57.5859C33.775 57.5453 34.0016 57.5048 34.2351 57.463C34.5343 57.4069 34.8336 57.3508 35.1419 57.293C35.4377 57.2386 35.7335 57.1842 36.0383 57.1282C36.8594 56.927 37.5091 56.6552 38.2452 56.2467C38.0791 55.9152 38.0791 55.9152 37.9097 55.5771C38.1865 55.3561 38.4632 55.1352 38.7484 54.9075C39.587 53.9032 39.719 53.7353 39.7548 52.522C39.7003 51.2607 39.7003 51.2607 39.0839 50.5551C38.9178 50.4446 38.7517 50.3341 38.5806 50.2203C38.8021 50.5517 39.0235 50.8832 39.2516 51.2247C39.4055 52.8828 39.291 53.9176 38.2452 55.2423C38.0237 55.2423 37.8023 55.2423 37.5742 55.2423C37.6503 54.8487 37.7264 54.4551 37.8048 54.0496C37.9533 52.948 37.8788 52.3037 37.3855 51.3084C36.9032 50.2203 36.9032 50.2203 37.1758 49.4042C37.3073 49.2316 37.4387 49.0589 37.5742 48.8811C38.8609 49.252 39.7375 49.515 40.5936 50.5551C40.9118 50.8451 41.2301 51.1351 41.5581 51.4339C42.271 52.5639 42.271 52.5639 42.2487 53.2819Z" fill="#272022"/>
<path d="M16.1033 21.7621C15.9926 22.0936 15.8819 22.425 15.7678 22.7665C15.3249 22.656 14.8821 22.5455 14.4259 22.4317C14.4259 22.2107 14.4259 21.9898 14.4259 21.7621C13.8965 21.8139 13.8965 21.8139 13.3565 21.8667C12.0775 21.7621 12.0775 21.7621 11.1549 21.0088C10.9058 20.705 10.6567 20.4011 10.4 20.0881C10.2132 19.874 10.0264 19.66 9.83392 19.4394C9.28544 18.5793 9.04472 17.7079 8.72263 16.7401C8.29983 15.7306 7.86184 14.7288 7.42132 13.7269C7.0434 12.7176 6.85115 11.7793 6.70972 10.7137C7.04185 10.7137 7.37398 10.7137 7.71618 10.7137C8.78841 11.96 9.57426 13.418 9.72908 15.0661C10.0612 15.0661 10.3933 15.0661 10.7355 15.0661C10.8129 15.2845 10.8904 15.5028 10.9701 15.7278C11.6745 17.6116 12.412 18.9339 13.7549 20.4229C13.7549 20.6439 13.7549 20.8648 13.7549 21.0925C14.5299 21.3135 15.3048 21.5344 16.1033 21.7621Z" fill="#131E27"/>
<path d="M11.4065 13.7269C11.2958 14.0583 11.1851 14.3898 11.071 14.7313C10.3791 14.9614 10.3791 14.9614 9.72907 15.0661C9.64604 14.8313 9.56301 14.5965 9.47746 14.3546C9.06993 13.3416 9.06993 13.3416 8.3452 12.3249C7.71617 11.3833 7.71617 11.3833 7.71617 10.7137C7.38404 10.7137 7.05191 10.7137 6.70972 10.7137C6.93114 11.3766 7.15256 12.0395 7.38069 12.7225C6.59367 12.0084 6.05079 11.3904 5.70327 10.3789C5.70327 7.97632 7.43728 5.9417 8.72262 4.01762C9.77101 3.95484 9.77101 3.95484 10.7355 4.01762C10.4795 4.30073 10.2235 4.58385 9.95972 4.87555C9.04162 5.96618 8.55684 7.0433 8.05166 8.37004C8.9656 7.58233 9.33125 6.82159 9.72907 5.69163C9.83978 6.02308 9.95049 6.35453 10.0646 6.69603C10.3967 5.8674 10.3967 5.8674 10.7355 5.02202C10.8462 5.02202 10.9569 5.02202 11.071 5.02202C11.3217 7.02379 10.5085 8.14365 9.39359 9.70925C9.22753 9.37779 9.22753 9.37779 9.05811 9.03964C8.39385 9.15013 7.72959 9.26061 7.0452 9.37444C7.29992 9.45386 7.55464 9.53327 7.81708 9.61508C8.87933 10.1183 9.18969 10.558 9.79198 11.5507C10.3 12.3747 10.7192 13.041 11.4065 13.7269Z" fill="#100F0E"/>
<path d="M47.3032 66.6255C47.1925 66.957 47.0818 67.2885 46.9677 67.63C46.7463 67.63 46.5249 67.63 46.2968 67.63C46.2691 67.8233 46.2414 68.0167 46.2129 68.2159C45.8855 69.1961 45.4127 69.6563 44.6194 70.3084C44.2872 70.3084 43.9551 70.3084 43.6129 70.3084C43.0009 69.5616 43.0009 69.5616 42.3758 68.5716C42.1669 68.2492 41.958 67.9268 41.7428 67.5946C41.2521 66.6005 41.1588 66.0402 41.2645 64.9515C41.4652 65.1242 41.6658 65.2968 41.8726 65.4747C42.1148 65.6335 42.3569 65.7923 42.6064 65.9559C42.9386 65.8455 43.2707 65.735 43.6129 65.6211C43.7236 65.2897 43.8343 64.9582 43.9484 64.6167C44.5019 64.5063 45.0555 64.3958 45.6258 64.2819C45.6258 64.5029 45.6258 64.7239 45.6258 64.9515C45.8472 64.9515 46.0686 64.9515 46.2968 64.9515C46.2968 65.504 46.2968 66.0564 46.2968 66.6255C46.6289 66.6255 46.961 66.6255 47.3032 66.6255Z" fill="#7E8386"/>
<path d="M12.7483 10.044C12.4162 10.044 12.0841 10.044 11.7419 10.044C11.8526 10.3755 11.9633 10.707 12.0774 11.0485C11.9306 11.9482 11.9306 11.9482 11.7419 12.7225C11.299 12.8329 10.8562 12.9434 10.4 13.0573C10.2741 12.8436 10.1483 12.63 10.0186 12.4099C9.84691 12.1332 9.67523 11.8566 9.49834 11.5716C9.33098 11.2958 9.16361 11.02 8.99118 10.7359C8.25923 9.89767 7.79834 9.81104 6.70963 9.70924C6.82034 9.48827 6.93105 9.2673 7.04511 9.03964C7.93974 9.03964 8.83436 9.03964 9.72898 9.03964C10.4688 7.69133 10.8886 6.55024 11.0709 5.02202C11.9837 5.47746 12.1712 6.12235 12.5478 7.03475C12.8519 8.04441 12.8123 9.00075 12.7483 10.044Z" fill="#918E91"/>
<path d="M25.1613 37.8326C25.0505 38.2745 24.9398 38.7165 24.8258 39.1718C24.8258 38.9508 24.8258 38.7299 24.8258 38.5022C24.6044 38.5022 24.3829 38.5022 24.1548 38.5022C24.0441 39.2756 23.9334 40.049 23.8193 40.8458C23.3084 39.8624 22.8796 38.8648 22.4774 37.8326C22.0345 37.9431 21.5917 38.0536 21.1354 38.1674C21.2462 39.0513 21.3569 39.9351 21.4709 40.8458C22.2459 41.0668 23.0209 41.2877 23.8193 41.5154C23.4629 42.0176 23.4629 42.0176 22.8129 42.5198C21.6387 42.6872 21.6387 42.6872 20.4645 42.5198C19.5676 41.5959 19.3913 40.7525 19.3322 39.5066C19.3888 38.2615 19.6022 37.44 20.4645 36.4934C21.3661 36.1167 21.3661 36.1167 22.4774 36.1586C23.4381 36.6302 24.299 37.2014 25.1613 37.8326Z" fill="#111616"/>
<path d="M22.4774 32.4758C22.1453 32.4758 21.8132 32.4758 21.471 32.4758C20.8682 31.6296 20.8682 31.6296 20.2129 30.4879C19.217 28.7775 18.1505 27.2614 16.8253 25.7797C16.4387 25.1101 16.4387 25.1101 16.5449 24.1894C16.6584 23.8165 16.6584 23.8165 16.7742 23.4361C17.5492 23.3256 18.3241 23.2152 19.1226 23.1013C18.7905 23.5433 18.4583 23.9852 18.1161 24.4405C18.3376 24.6615 18.559 24.8825 18.7871 25.1101C19.2299 24.7787 19.6728 24.4472 20.129 24.1057C19.9076 24.7686 19.6862 25.4315 19.4581 26.1145C19.6795 26.1145 19.9009 26.1145 20.129 26.1145C20.129 26.3355 20.129 26.5565 20.129 26.7841C20.5719 26.7841 21.0147 26.7841 21.471 26.7841C21.3464 27.088 21.2219 27.3918 21.0936 27.7048C20.6982 28.7531 20.6982 28.7531 21.0936 29.5881C21.2181 29.7676 21.3427 29.9472 21.471 30.1322C21.6924 30.0217 21.9138 29.9112 22.1419 29.7974C22.8548 31.3458 22.8548 31.3458 22.4774 32.4758Z" fill="#1D1213"/>
<path d="M18.4516 29.1278C17.2904 29.1278 17.1952 29.01 16.3928 28.2489C16.1993 28.0676 16.0058 27.8864 15.8064 27.6996C15.6068 27.508 15.4072 27.3164 15.2016 27.1189C14.9981 26.9273 14.7947 26.7357 14.585 26.5383C14.0825 26.0644 13.5829 25.5876 13.0839 25.1101C13.3053 24.3367 13.5267 23.5633 13.7548 22.7665C13.4227 22.656 13.0906 22.5456 12.7484 22.4317C12.7484 22.3212 12.7484 22.2108 12.7484 22.0969C13.5137 22.0106 13.5137 22.0106 14.4258 22.0969C15.0443 22.6854 15.0443 22.6854 15.6 23.478C16.2831 24.4311 16.9551 25.3244 17.7597 26.1773C18.5594 27.2657 18.609 27.8086 18.4516 29.1278Z" fill="#63ACB8"/>
<path d="M38.2451 53.9031C37.2387 53.9031 37.2387 53.9031 36.7708 53.4466C35.4024 51.5694 34.2782 49.6042 33.2129 47.5418C33.0805 47.3036 32.9482 47.0654 32.8119 46.8199C32.4393 45.968 32.6337 45.4042 32.8774 44.5286C33.0988 44.5286 33.3202 44.5286 33.5483 44.5286C33.9834 45.122 33.9834 45.122 34.4709 45.9463C34.6474 46.2424 34.8238 46.5384 35.0056 46.8435C35.189 47.1568 35.3723 47.4701 35.5612 47.7929C35.7446 48.1011 35.928 48.4092 36.1169 48.7267C36.6085 49.5564 37.0982 50.386 37.5741 51.2247C37.7039 51.4509 37.8336 51.6772 37.9673 51.9103C38.2451 52.5639 38.2451 52.5639 38.2451 53.9031Z" fill="#A1B0B2"/>
<path d="M47.8916 65.2667C47.7664 65.6079 47.7664 65.6079 47.6387 65.9559C46.6383 65.0323 45.9933 64.1721 45.3742 62.9637C44.8068 61.8736 44.2245 60.8239 43.5342 59.8079C43.4083 59.619 43.2823 59.4302 43.1526 59.2356C42.7903 58.698 42.4207 58.1654 42.0508 57.633C41.4645 56.2656 41.739 55.5923 42.2709 54.2379C42.8776 55.1461 43.3298 56.0182 43.8016 57C44.4076 58.2352 45.0381 59.4167 45.7699 60.5821C45.9089 60.8041 46.0479 61.026 46.1912 61.2547C46.4672 61.6901 46.7473 62.1229 47.032 62.5527C47.65 63.5289 47.9897 64.096 47.8916 65.2667Z" fill="#B9C3C8"/>
<path d="M42.9419 69.9736C42.9419 70.1945 42.9419 70.4155 42.9419 70.6432C42.174 70.5778 42.174 70.5778 41.2645 70.3084C40.6695 69.5995 40.6695 69.5995 40.1322 68.6762C39.9337 68.3439 39.7352 68.0116 39.5307 67.6692C39.2265 67.1526 39.2265 67.1526 38.9161 66.6255C38.5061 65.9823 38.0939 65.3405 37.679 64.7004C35.2258 60.8406 35.2258 60.8406 35.2258 59.5947C35.843 59.6601 35.843 59.6601 36.5677 59.9295C37.0303 60.6593 37.0303 60.6593 37.4274 61.5617C37.9313 62.7455 37.9313 62.7455 38.7156 63.7405C39.6977 64.7326 40.2769 66.046 40.9421 67.2638C41.5213 68.305 42.0782 69.1547 42.9419 69.9736Z" fill="#2C2932"/>
<path d="M37.5742 48.8811C37.4635 49.323 37.3528 49.7649 37.2387 50.2203C36.1826 49.2362 35.4088 48.2162 34.6387 46.9978C34.4329 46.6758 34.227 46.3539 34.0149 46.0222C33.5484 45.1982 33.5484 45.1982 33.5484 44.5286C33.3132 44.6417 33.0779 44.7548 32.8355 44.8713C30.9596 45.7514 29.2045 46.4517 27.1742 46.8722C27.1742 46.6513 27.1742 46.4303 27.1742 46.2026C27.5228 46.0568 27.8713 45.9109 28.2305 45.7606C32.9344 44.0173 32.9344 44.0173 36.5678 40.8458C36.6785 41.3982 36.7892 41.9507 36.9033 42.5198C36.239 42.9618 35.5747 43.4037 34.8903 43.859C35.0859 45.0957 35.4268 46.0348 36.0436 47.1233C36.1884 47.384 36.3333 47.6447 36.4826 47.9133C36.8589 48.5936 36.8589 48.5936 37.5742 48.8811Z" fill="#1E1719"/>
<path d="M14.4258 7.36564C14.2751 7.86182 14.1206 8.35684 13.9645 8.85133C13.8789 9.12711 13.7932 9.40289 13.705 9.68702C13.4193 10.3789 13.4193 10.3789 12.7484 10.7137C12.5269 11.0451 12.3055 11.3766 12.0774 11.7181C11.856 11.1656 11.6346 10.6132 11.4064 10.0441C11.6278 9.93357 11.8493 9.82309 12.0774 9.70926C12.2988 9.81974 12.5202 9.93022 12.7484 10.0441C12.282 7.63594 12.282 7.63594 11.4064 5.35683C11.185 5.24635 10.9636 5.13586 10.7355 5.02203C10.6948 5.23566 10.6542 5.4493 10.6123 5.6694C10.5279 6.08437 10.5279 6.08437 10.4419 6.50771C10.3874 6.78349 10.3329 7.05927 10.2768 7.34341C10.2067 7.57172 10.1367 7.80002 10.0645 8.03525C9.84307 8.14573 9.62165 8.25622 9.39352 8.37005C9.39352 8.03859 9.39352 7.70714 9.39352 7.36564C9.1721 7.6971 8.95068 8.02855 8.72256 8.37005C8.50114 8.37005 8.27972 8.37005 8.05159 8.37005C8.22987 6.85772 8.8199 5.89691 9.72901 4.68723C9.95043 4.57674 10.1718 4.46626 10.4 4.35243C10.1786 4.13146 9.95714 3.91049 9.72901 3.68282C10.4838 3.5782 10.4838 3.5782 11.4064 3.68282C12.1895 4.4873 12.7228 5.31368 13.2935 6.27754C13.6881 7.07151 13.6881 7.07151 14.4258 7.36564Z" fill="#333130"/>
<path d="M39.9226 53.9031C39.1386 55.2362 38.3903 55.8281 36.9033 56.2467C36.5711 56.2467 36.239 56.2467 35.8968 56.2467C35.8319 56.0447 35.7671 55.8427 35.7002 55.6346C35.6129 55.3671 35.5255 55.0995 35.4355 54.8238C35.3499 54.5597 35.2643 54.2955 35.176 54.0234C34.9101 53.2327 34.9101 53.2327 34.5208 52.5273C34.2194 51.8943 34.2194 51.8943 34.2194 50.8899C34.4408 50.8899 34.6622 50.8899 34.8903 50.8899C35.0011 50.6689 35.1118 50.4479 35.2258 50.2203C35.3711 50.4689 35.5164 50.7174 35.6662 50.9736C36.2029 51.8831 36.2029 51.8831 36.7984 52.6267C37.2387 53.2335 37.2387 53.2335 37.2387 53.9031C37.4602 54.0136 37.6816 54.1241 37.9097 54.2379C37.799 54.5693 37.6883 54.9008 37.5742 55.2423C38.5715 54.2903 38.8998 53.8622 38.9791 52.4383C38.9219 51.3349 38.8284 50.7949 38.2452 49.8855C40.1862 50.5311 40.2084 52.1 39.9226 53.9031Z" fill="#757D7F"/>
<path d="M24.4904 24.7753C23.6116 25.36 23.1356 25.5746 22.142 25.7797C21.513 24.8635 20.8936 23.9413 20.2758 23.0176C20.097 22.7574 19.9182 22.4971 19.734 22.229C19.4826 21.8503 19.4826 21.8503 19.2261 21.4639C19.0698 21.2325 18.9134 21.0011 18.7523 20.7626C18.4516 20.0881 18.4516 20.0881 18.5382 19.3796C18.8411 18.6122 19.271 18.0445 19.7936 17.4097C20.3471 18.1831 20.9007 18.9565 21.471 19.7533C21.3603 19.9743 21.2496 20.1952 21.1355 20.4229C20.9141 20.0914 20.6927 19.76 20.4646 19.4185C20.4646 19.7499 20.4646 20.0814 20.4646 20.4229C20.3618 20.8715 20.2517 21.3185 20.1291 21.7621C20.5719 21.7621 21.0147 21.7621 21.471 21.7621C21.8031 22.5355 22.1353 23.3089 22.4775 24.1057C22.8826 22.8926 22.6597 22.5517 22.142 21.4273C23.2807 22.474 24.0228 23.2906 24.4904 24.7753Z" fill="#918D85"/>
<path d="M41.9565 53.9659C41.324 55.7748 40.1786 56.8923 38.5807 57.9207C37.2327 58.3752 35.9656 58.3225 34.5549 58.2555C34.2227 58.0345 33.8906 57.8136 33.5484 57.5859C33.7634 57.5531 33.9783 57.5203 34.1997 57.4865C36.1555 57.1491 37.6418 56.7574 39.2516 55.5771C40.1015 54.2766 40.4107 53.0927 40.5936 51.5595C41.2436 51.685 41.2436 51.685 41.9355 51.8943C42.3682 52.7578 42.2233 53.0503 41.9565 53.9659Z" fill="#A76976"/>
<path d="M38.5807 55.9119C37.8019 57.0777 37.5469 57.1951 36.2323 57.5859C33.4693 58.0486 33.4693 58.0486 32.542 57.5859C32.4313 57.9174 32.3206 58.2488 32.2065 58.5903C32.2065 57.7064 32.2065 56.8225 32.2065 55.9119C32.4279 56.2433 32.6493 56.5748 32.8775 56.9163C33.0989 56.9163 33.3203 56.9163 33.5484 56.9163C33.5484 56.3639 33.5484 55.8114 33.5484 55.2423C33.6591 55.5737 33.7698 55.9052 33.8839 56.2467C34.216 56.2467 34.5482 56.2467 34.8904 56.2467C34.4649 55.3883 34.0384 54.5305 33.6113 53.6729C33.4918 53.4314 33.3722 53.19 33.249 52.9412C32.731 51.9027 32.2151 50.9034 31.5945 49.9208C31.3992 49.5718 31.3992 49.5718 31.2 49.2159C31.3108 48.9949 31.4215 48.7739 31.5355 48.5462C32.0116 49.2781 32.4867 50.0106 32.9613 50.7434C33.0941 50.9473 33.2269 51.1512 33.3637 51.3613C35.8968 55.2777 35.8968 55.2777 35.8968 56.2467C36.7825 56.1362 37.6682 56.0257 38.5807 55.9119Z" fill="#151011"/>
<path d="M18.7871 16.7401C18.3442 16.8506 17.9014 16.9611 17.4451 17.0749C16.4387 15.8612 16.4387 15.8612 16.4387 14.7313C16.6601 14.7313 16.8815 14.7313 17.1096 14.7313C17.1096 14.3998 17.1096 14.0684 17.1096 13.7269C16.909 13.6578 16.7083 13.5888 16.5016 13.5176C15.495 12.8862 15.2491 12.1107 14.7613 11.0485C14.5398 10.8275 14.3184 10.6065 14.0903 10.3788C14.2161 9.6674 14.2161 9.6674 14.4258 9.03964C15.9959 9.54277 16.5704 10.7971 17.3613 12.1366C17.4992 12.3562 17.6372 12.5759 17.7793 12.8022C18.5975 14.1668 18.9601 15.1043 18.7871 16.7401Z" fill="#BFD2D3"/>
<path d="M21.4709 25.7797C20.8629 26.1355 20.8629 26.1355 20.129 26.4493C19.7969 26.3389 19.4648 26.2284 19.1226 26.1145C19.2333 25.6726 19.344 25.2307 19.458 24.7753C18.9599 25.1068 18.9599 25.1068 18.4516 25.4449C18.1195 24.782 18.1195 24.782 17.7806 24.1057C18.002 23.8848 18.2235 23.6638 18.4516 23.4361C17.7873 23.5466 17.1231 23.6571 16.4387 23.7709C16.2726 23.4395 16.2726 23.4395 16.1032 23.1013C16.3246 23.1013 16.546 23.1013 16.7742 23.1013C16.8849 22.7699 16.9956 22.4384 17.1097 22.0969C16.8882 21.9864 16.6668 21.8759 16.4387 21.7621C16.7113 21.1134 16.7113 21.1134 17.1097 20.4229C17.4418 20.3124 17.7739 20.2019 18.1161 20.0881C19.2564 21.9734 20.3852 23.8626 21.4709 25.7797Z" fill="#A77169"/>
<path d="M25.1482 39.9173C25.0834 40.1823 25.0185 40.4472 24.9517 40.7203C24.892 40.987 24.8323 41.2537 24.7708 41.5285C24.6783 41.7452 24.5857 41.9618 24.4904 42.185C24.1582 42.2955 23.8261 42.406 23.4839 42.5198C23.4839 42.2989 23.4839 42.0779 23.4839 41.8502C23.1656 41.7674 22.8473 41.6845 22.5194 41.5991C21.471 41.1806 21.471 41.1806 21.0097 40.5738C20.7655 39.7208 20.7069 39.0501 20.8 38.1674C21.0215 37.9464 21.2429 37.7255 21.471 37.4978C22.142 37.5187 22.142 37.5187 22.8129 37.8326C23.2323 38.6905 23.2323 38.6905 23.4839 39.5066C23.7053 39.0647 23.9268 38.6227 24.1549 38.1674C25.165 38.9606 25.165 38.9606 25.1482 39.9173Z" fill="#56767F"/>
<path d="M14.4258 21.7621C13.9829 21.9831 13.5401 22.204 13.0838 22.4317C13.3053 22.5422 13.5267 22.6527 13.7548 22.7665C13.5887 23.5951 13.5887 23.5951 13.4193 24.4405C12.5397 24.0894 12.1466 23.8883 11.658 23.0595C11.575 22.8523 11.492 22.6451 11.4064 22.4317C10.6315 22.5422 9.85649 22.6527 9.05804 22.7665C9.07188 22.4558 9.08572 22.145 9.09997 21.8249C9.14908 20.7048 9.14908 20.7048 8.38707 19.7533C8.36055 18.9725 8.35755 18.1903 8.38707 17.4097C9.24586 18.2032 9.86485 18.9699 10.4629 19.9625C11.1875 21.0245 11.7686 21.3015 13.0209 21.5738C13.4879 21.646 13.956 21.7121 14.4258 21.7621Z" fill="#60B3BB"/>
<path d="M17.1096 13.7269C17.1096 14.0583 17.1096 14.3898 17.1096 14.7313C16.8882 14.7313 16.6668 14.7313 16.4387 14.7313C16.2172 15.1732 15.9958 15.6152 15.7677 16.0705C14.5913 15.11 13.4687 14.1515 12.4128 13.0573C12.8557 12.2839 13.2985 11.5105 13.7548 10.7137C14.3419 10.7346 14.3419 10.7346 15.0967 11.0485C15.6099 11.7982 16.0081 12.59 16.4387 13.3921C16.6601 13.5026 16.8815 13.613 17.1096 13.7269Z" fill="#7F9397"/>
<path d="M23.1484 34.4846C22.8163 34.5951 22.4842 34.7055 22.142 34.8194C22.142 34.5984 22.142 34.3774 22.142 34.1498C21.8605 34.1258 21.8605 34.1258 21.5732 34.1014C20.4368 33.6804 19.8715 32.8466 19.1646 31.9108C19.021 31.7375 18.8774 31.5642 18.7295 31.3857C18.3285 30.8606 18.3285 30.8606 17.7807 29.7974C18.0297 28.6609 18.0297 28.6609 18.4517 27.7885C19.7907 28.975 20.6345 30.3786 21.5549 31.8899C21.7088 32.1393 21.8628 32.3888 22.0214 32.6458C22.3988 33.2577 22.7738 33.871 23.1484 34.4846Z" fill="#7CBBC0"/>
<path d="M32.542 36.1586C32.4274 37.6529 31.9117 38.2832 30.8017 39.2555C29.6229 40.2552 28.7769 40.8458 27.1743 40.8458C27.1743 40.6248 27.1743 40.4039 27.1743 40.1762C26.8421 40.1762 26.51 40.1762 26.1678 40.1762C26.1678 39.9552 26.1678 39.7343 26.1678 39.5066C26.4653 39.5342 26.7629 39.5618 27.0694 39.5903C28.4122 39.4892 28.8947 39.0723 29.8581 38.1674C29.7647 37.6806 29.7647 37.6806 29.6694 37.1839C29.621 36.8456 29.5725 36.5072 29.5226 36.1586C29.8581 35.8238 29.8581 35.8238 31.0323 35.7819C32.2065 35.8238 32.2065 35.8238 32.542 36.1586Z" fill="#423538"/>
<path d="M41.9354 71.6476C40.929 72.3172 40.929 72.3172 39.933 72.3028C38.6034 71.8839 38.3862 71.4189 37.7419 70.2037C37.5481 69.8425 37.3544 69.4813 37.1548 69.1091C36.961 68.7315 36.7673 68.3538 36.5677 67.9648C36.2667 67.4138 36.2667 67.4138 35.9596 66.8518C34.4562 64.0282 34.4562 64.0282 34.8903 62.6079C35.0154 62.824 35.1404 63.0402 35.2693 63.2628C35.8397 64.2455 36.4133 65.2263 36.987 66.207C37.1838 66.5471 37.3806 66.8872 37.5833 67.2376C37.7758 67.5656 37.9682 67.8936 38.1665 68.2315C38.3422 68.5331 38.5178 68.8347 38.6989 69.1454C39.4211 70.2277 40.0879 71.1446 41.3483 71.5639C41.5421 71.5915 41.7358 71.6191 41.9354 71.6476Z" fill="#4D97A7"/>
<path d="M24.4904 36.8282C24.3796 37.0492 24.2689 37.2701 24.1549 37.4978C23.9196 37.3252 23.6844 37.1525 23.442 36.9747C22.2542 36.382 21.7139 36.4126 20.4646 36.8282C19.9827 37.4816 19.9827 37.4816 19.7936 38.1674C19.5722 38.1674 19.3507 38.1674 19.1226 38.1674C19.0119 38.4989 18.9012 38.8303 18.7871 39.1718C18.9773 37.236 19.3953 36.039 20.6323 34.5474C21.1355 34.1498 21.1355 34.1498 22.142 34.1498C22.142 34.3707 22.142 34.5917 22.142 34.8194C22.5848 34.8194 23.0276 34.8194 23.4839 34.8194C23.8421 35.4772 24.1769 36.1481 24.4904 36.8282Z" fill="#70AAB2"/>
<path d="M27.5096 41.5154C26.8387 42.8546 26.8387 42.8546 26.1363 43.1083C25.8699 43.1489 25.6035 43.1895 25.329 43.2313C24.0971 43.4062 24.0971 43.4062 23.1484 44.1938C22.9311 45.0545 22.9311 45.0545 22.8129 45.8678C23.3664 45.8678 23.92 45.8678 24.4903 45.8678C24.4903 45.9783 24.4903 46.0888 24.4903 46.2026C23.7099 46.3301 22.9267 46.4413 22.1419 46.5374C21.8064 46.2026 21.8064 46.2026 21.7016 45.0936C21.8064 43.859 21.8064 43.859 22.3935 43.0639C23.1241 42.5373 23.6068 42.311 24.4903 42.185C24.4903 41.8536 24.4903 41.5221 24.4903 41.1806C25.4867 41.2911 26.4831 41.4016 27.5096 41.5154Z" fill="#0F0B0C"/>
<path d="M27.8452 38.1674C26.6278 37.6814 26.116 37.0826 25.413 35.9912C25.2382 35.7253 25.0635 35.4595 24.8835 35.1856C24.4904 34.4846 24.4904 34.4846 24.4904 33.815C24.269 33.815 24.0475 33.815 23.8194 33.815C23.3489 33.1179 23.3489 33.1179 22.8339 32.2037C22.2318 31.1386 21.664 30.3199 20.8001 29.4626C20.6893 29.1311 20.5786 28.7996 20.4646 28.4581C21.9169 28.9068 22.487 29.4246 23.2978 30.6958C23.4998 31.0063 23.7018 31.3169 23.9098 31.6368C24.1153 31.962 24.3207 32.2872 24.5323 32.6222C24.9446 33.2641 25.3578 33.9054 25.772 34.546C25.9529 34.8311 26.1337 35.1161 26.32 35.4098C26.803 36.1616 26.803 36.1616 27.4087 36.6988C27.8452 37.163 27.8452 37.163 27.8452 38.1674Z" fill="#884E51"/>
<path d="M18.4517 17.0749C18.3668 18.2181 18.0291 18.4971 17.1726 19.3139C15.8072 20.3025 15.8072 20.3025 14.7613 20.4229C13.8811 19.398 13.7549 19.1735 13.7549 17.7445C14.2791 17.3469 14.2791 17.3469 15.0968 17.0749C16.3549 17.5352 16.3549 17.5352 17.4452 18.0793C17.4452 17.7478 17.4452 17.4164 17.4452 17.0749C17.7773 17.0749 18.1095 17.0749 18.4517 17.0749Z" fill="#748B92"/>
<path d="M34.8904 56.2467C34.5583 56.2467 34.2261 56.2467 33.8839 56.2467C33.7096 55.895 33.5354 55.5432 33.3558 55.1808C33.1196 54.706 32.8833 54.2313 32.6468 53.7566C32.5253 53.5123 32.4038 53.2679 32.2787 53.0162C31.4938 51.4477 30.6715 49.9142 29.7625 48.4129C29.6833 48.2359 29.6042 48.059 29.5226 47.8766C29.6333 47.6557 29.7441 47.4347 29.8581 47.207C31.263 48.9326 32.409 50.7393 33.5065 52.6685C33.7105 53.0229 33.7105 53.0229 33.9186 53.3845C34.8904 55.1192 34.8904 55.1192 34.8904 56.2467Z" fill="#59545B"/>
<path d="M11.4065 13.7269C11.2958 14.0583 11.1851 14.3898 11.071 14.7313C10.3791 14.9614 10.3791 14.9614 9.72907 15.0661C9.64604 14.8313 9.56301 14.5965 9.47746 14.3546C9.06993 13.3416 9.06993 13.3416 8.3452 12.3249C7.71617 11.3833 7.71617 11.3833 7.71617 10.7136C7.27333 10.4927 6.83049 10.2717 6.37424 10.044C7.03849 9.93356 7.70275 9.82308 8.38714 9.70924C8.57699 9.97121 8.76684 10.2332 8.96244 10.5031C9.20851 10.8419 9.45458 11.1807 9.70811 11.5297C9.95331 11.8677 10.1985 12.2056 10.4512 12.5538C10.9949 13.3328 10.9949 13.3328 11.4065 13.7269Z" fill="#0E0C0C"/>
<path d="M11.6581 12.5341C11.575 12.7068 11.492 12.8794 11.4065 13.0573C10.7866 12.9736 10.7866 12.9736 10.0645 12.7225C9.6255 12.1156 9.6255 12.1156 9.24677 11.3833C8.61821 10.245 8.61821 10.245 7.44355 9.70925C7.20137 9.70925 6.95919 9.70925 6.70968 9.70925C6.82039 9.48828 6.9311 9.26731 7.04516 9.03965C9.61234 8.98142 9.61234 8.98142 10.4 9.37445C11.1805 10.3644 11.7897 11.2534 11.6581 12.5341Z" fill="#564E50"/>
<path d="M25.1613 37.8326C25.0505 38.2745 24.9398 38.7165 24.8258 39.1718C24.8258 38.9508 24.8258 38.7299 24.8258 38.5022C24.6044 38.5022 24.3829 38.5022 24.1548 38.5022C24.0441 39.2756 23.9334 40.049 23.8193 40.8458C23.4294 40.0953 23.1256 39.4254 22.8967 38.6068C22.7584 38.3513 22.62 38.0958 22.4774 37.8326C21.4532 37.5318 21.4532 37.5318 20.4645 37.4978C20.4645 37.1663 20.4645 36.8349 20.4645 36.4934C21.5116 36.1537 22.1977 36.0245 23.2086 36.5091C23.876 36.931 24.5243 37.3663 25.1613 37.8326Z" fill="#1F222B"/>
<path d="M30.8645 52.5639C30.6431 52.5639 30.4217 52.5639 30.1935 52.5639C29.5707 51.5627 29.0246 50.5287 28.4663 49.4905C27.8527 48.5577 27.5382 48.2361 26.5032 47.8766C28.0548 46.8722 28.0548 46.8722 29.1871 46.8722C30.0133 48.3152 30.2302 49.245 30.1935 50.8899C30.8645 51.8943 30.8645 51.8943 30.8645 52.5639Z" fill="#0D1114"/>
<path d="M36.2323 40.511C36.0524 40.5939 35.8725 40.6767 35.6871 40.7621C34.7011 41.28 33.7975 41.8938 32.8775 42.5198C32.656 42.4093 32.4346 42.2989 32.2065 42.185C32.2065 41.2922 32.2065 40.3994 32.2065 39.5066C32.6493 39.2856 33.0922 39.0647 33.5484 38.837C33.5484 38.5055 33.5484 38.1741 33.5484 37.8326C33.8806 37.8326 34.2127 37.8326 34.5549 37.8326C34.3679 38.9521 34.1014 39.8525 33.5484 40.8458C34.4341 40.7353 35.3198 40.6248 36.2323 40.511Z" fill="#181B1E"/>
<path d="M36.2323 40.8458C36.1891 41.4356 36.1891 41.4356 35.8968 42.185C35.007 42.8402 35.007 42.8402 33.9049 43.4614C33.542 43.6708 33.1792 43.8801 32.8054 44.0957C32.497 44.2386 32.1887 44.3814 31.871 44.5286C31.6496 44.4181 31.4282 44.3077 31.2 44.1938C31.6844 42.9984 32.2667 42.4703 33.3388 41.7665C33.5974 41.5922 33.856 41.4178 34.1224 41.2382C34.8904 40.8458 34.8904 40.8458 36.2323 40.8458Z" fill="#8F5867"/>
<path d="M31.871 39.1718C32.0178 39.8833 32.0178 39.8833 31.871 40.8458C30.873 41.9927 29.7408 43.0221 28.1807 43.1894C27.9593 42.9685 27.7378 42.7475 27.5097 42.5198C28.109 41.9598 28.7102 41.4022 29.3129 40.8458C29.5685 40.6063 29.5685 40.6063 29.8293 40.3619C31.124 39.1718 31.124 39.1718 31.871 39.1718Z" fill="#965060"/>
<path d="M45.1645 73.8866C45.0953 74.1421 45.0261 74.3976 44.9548 74.6608C44.7334 74.5503 44.5119 74.4398 44.2838 74.326C44.2838 74.105 44.2838 73.8841 44.2838 73.6564C43.1842 73.908 43.1842 73.908 42.6064 74.9956C41.6387 74.5627 40.9719 74.1052 40.258 73.3216C40.5417 73.2871 40.8254 73.2525 41.1177 73.217C42.4099 72.959 43.4252 72.5305 44.6193 71.9824C45.2903 72.9868 45.2903 72.9868 45.1645 73.8866Z" fill="#82C3C8"/>
<path d="M31.2 41.8502C30.7332 43.0158 30.3133 43.4063 29.1661 43.9009C28.1193 44.3104 28.1193 44.3104 27.5096 45.1982C27.2882 45.1982 27.0668 45.1982 26.8387 45.1982C26.8387 45.6402 26.8387 46.0821 26.8387 46.5374C26.6172 46.5374 26.3958 46.5374 26.1677 46.5374C26.057 46.8689 25.9463 47.2004 25.8322 47.5418C25.6016 46.4328 25.6016 46.4328 25.4967 45.1982C26.2641 44.1554 27.4328 43.598 28.537 42.9593C28.8938 42.7508 29.2506 42.5423 29.6182 42.3276C30.529 41.8502 30.529 41.8502 31.2 41.8502Z" fill="#211319"/>
<path d="M48.3097 64.9515C48.2125 66.8924 47.3283 68.3001 45.9613 69.6388C45.2235 69.8833 45.2235 69.8833 44.6194 69.9736C44.8339 69.7733 45.0484 69.5731 45.2694 69.3667C46.0294 68.6651 46.0294 68.6651 46.2968 67.6299C46.821 67.065 46.821 67.065 47.3032 66.6255C46.9711 66.6255 46.639 66.6255 46.2968 66.6255C46.2968 66.0731 46.2968 65.5207 46.2968 64.9515C46.0754 64.9515 45.854 64.9515 45.6258 64.9515C45.6258 64.3991 45.6258 63.8467 45.6258 63.2775C45.8472 63.388 46.0687 63.4985 46.2968 63.6123C46.2968 63.9438 46.2968 64.2752 46.2968 64.6167C46.6289 64.7272 46.961 64.8377 47.3032 64.9515C47.414 65.1725 47.5247 65.3935 47.6387 65.6211C47.8601 65.4002 48.0816 65.1792 48.3097 64.9515Z" fill="#929899"/>
<path d="M22.8758 23.9174C22.7443 24.09 22.6128 24.2627 22.4774 24.4405C22.1607 23.8411 21.844 23.2417 21.5273 22.6423C21.1387 21.9889 21.1387 21.9889 20.129 21.7621C19.9193 20.9879 19.9193 20.9879 19.7935 20.0881C20.0149 19.7566 20.2364 19.4252 20.4645 19.0837C21.8426 20.3103 23.5393 21.9309 22.8758 23.9174Z" fill="#332F31"/>
<path d="M25.1482 39.9173C25.0834 40.1823 25.0185 40.4472 24.9517 40.7203C24.892 40.987 24.8323 41.2537 24.7708 41.5285C24.6783 41.7452 24.5857 41.9618 24.4904 42.185C24.1582 42.2955 23.8261 42.406 23.4839 42.5198C23.4839 42.2989 23.4839 42.0779 23.4839 41.8502C23.2071 41.6845 22.9304 41.5188 22.6452 41.348C22.3684 41.1823 22.0917 41.0166 21.8065 40.8458C21.8065 40.6248 21.8065 40.4039 21.8065 40.1762C22.0694 40.0934 22.3324 40.0105 22.6033 39.9251C23.5923 39.4551 23.7867 39.1695 24.1549 38.1674C25.165 38.9606 25.165 38.9606 25.1482 39.9173Z" fill="#303E45"/>
<path d="M33.5483 35.489C33.2162 36.3176 33.2162 36.3176 32.8774 37.163C32.656 36.8315 32.4345 36.5001 32.2064 36.1586C31.4702 35.9644 31.4702 35.9644 30.6548 35.9284C30.3806 35.9064 30.1064 35.8844 29.8239 35.8617C29.6138 35.8492 29.4036 35.8367 29.187 35.8238C29.187 35.4923 29.187 35.1609 29.187 34.8194C30.2126 34.3077 31.0758 34.4068 32.2064 34.4846C33.0241 34.9868 33.0241 34.9868 33.5483 35.489Z" fill="#3C2B32"/>
<path d="M32.2064 42.5198C31.4299 44.7222 31.4299 44.7222 30.3822 45.3656C29.5003 45.5374 29.0153 45.5067 28.1806 45.1982C28.402 45.1982 28.6235 45.1982 28.8516 45.1982C28.8516 44.9773 28.8516 44.7563 28.8516 44.5286C28.6302 44.4181 28.4087 44.3077 28.1806 44.1938C29.4022 43.0763 30.625 42.8618 32.2064 42.5198Z" fill="#713A49"/>
<path d="M35.8967 56.5815C34.8903 56.2467 34.8903 56.2467 34.2403 55.101C34.0062 54.6196 33.7757 54.1365 33.5483 53.652C33.3183 53.1721 33.0877 52.6926 32.8564 52.2134C32.7474 51.9853 32.6384 51.7572 32.5262 51.5222C32.1833 50.8199 32.1833 50.8199 31.5983 49.9221C31.4669 49.689 31.3354 49.456 31.2 49.2159C31.3107 48.9949 31.4214 48.7739 31.5354 48.5462C32.0115 49.2781 32.4866 50.0106 32.9612 50.7434C33.094 50.9473 33.2268 51.1512 33.3636 51.3613C35.8967 55.2777 35.8967 55.2777 35.8967 56.5815Z" fill="#1C1A1C"/>
<path d="M13.7549 20.4229C13.4228 20.5334 13.0906 20.6439 12.7484 20.7577C11.2884 19.0396 10.1584 17.6386 9.72908 15.4009C10.0612 15.2904 10.3933 15.1799 10.7355 15.0661C10.8129 15.2845 10.8903 15.5028 10.9701 15.7278C11.6694 17.5982 12.3779 18.9724 13.7549 20.4229Z" fill="#5F7E86"/>
<path d="M17.7806 13.0573C17.4485 13.1677 17.1164 13.2782 16.7742 13.3921C16.6367 13.2307 16.4991 13.0692 16.3575 12.9029C16.1767 12.6915 15.9959 12.48 15.8097 12.2621C15.6306 12.0524 15.4516 11.8426 15.2671 11.6265C14.8907 11.1963 14.495 10.7827 14.0903 10.3788C14.2161 9.6674 14.2161 9.6674 14.4258 9.03964C15.7381 9.53501 16.1795 10.2247 16.8581 11.4251C17.0328 11.7298 17.2075 12.0345 17.3875 12.3484C17.5172 12.5823 17.647 12.8163 17.7806 13.0573Z" fill="#BDD6D6"/>
<path d="M17.1096 25.4449C16.7775 25.6659 16.4454 25.8869 16.1032 26.1145C15.9925 25.7831 15.8817 25.4516 15.7677 25.1101C15.1191 24.7446 15.1191 24.7446 14.4257 24.4405C13.7548 23.7709 13.7548 23.7709 13.7548 22.7665C13.4227 22.656 13.0905 22.5455 12.7483 22.4317C12.7483 22.3212 12.7483 22.2107 12.7483 22.0969C13.5084 22.0041 13.5084 22.0041 14.4257 22.0969C15.0915 22.7443 15.0915 22.7443 15.6838 23.5826C15.8827 23.8584 16.0817 24.1342 16.2866 24.4183C16.4475 24.6466 16.6084 24.8749 16.7741 25.1101C16.8848 25.2206 16.9956 25.3311 17.1096 25.4449Z" fill="#5895A1"/>
<path d="M10.0646 15.0661C9.73245 15.0661 9.40032 15.0661 9.05812 15.0661C8.94741 14.6241 8.8367 14.1822 8.72264 13.7269C8.2798 13.7269 7.83696 13.7269 7.3807 13.7269C7.15928 12.7325 6.93787 11.7381 6.70974 10.7137C7.04187 10.7137 7.37399 10.7137 7.71619 10.7137C8.15782 11.2407 8.15782 11.2407 8.57587 11.9482C8.71944 12.1912 8.86302 12.4342 9.01095 12.6845C9.42959 13.4586 9.77796 14.234 10.0646 15.0661Z" fill="#323C41"/>
<path d="M11.0709 4.68722C10.9204 5.23913 10.7659 5.78997 10.6096 6.3403C10.524 6.64716 10.4384 6.95401 10.3502 7.27016C10.0645 8.03524 10.0645 8.03524 9.3935 8.37004C9.3935 8.03858 9.3935 7.70713 9.3935 7.36563C9.17208 7.69709 8.95066 8.02854 8.72254 8.37004C8.50112 8.37004 8.2797 8.37004 8.05157 8.37004C8.22983 6.85791 8.80107 5.88561 9.72899 4.68722C10.0611 4.57673 10.3932 4.46625 10.7354 4.35242C10.8461 4.4629 10.9569 4.57339 11.0709 4.68722Z" fill="#95675C"/>
<path d="M19.5288 15.3551C19.3947 15.5912 19.2607 15.8273 19.1225 16.0705C19.0334 15.8892 18.9444 15.708 18.8526 15.5212C18.3878 14.6056 17.8971 13.7064 17.4032 12.8062C17.2224 12.4764 17.0416 12.1467 16.8554 11.807C16.7179 11.5567 16.5803 11.3064 16.4387 11.0485C16.7708 10.938 17.1029 10.8275 17.4451 10.7137C17.8579 11.2874 18.2616 11.8676 18.6612 12.4504C18.887 12.7728 19.1127 13.0952 19.3453 13.4274C19.7935 14.3965 19.7935 14.3965 19.5288 15.3551Z" fill="#282C2F"/>
<path d="M11.0709 5.02202C11.3217 7.02379 10.5084 8.14364 9.39351 9.70924C8.83996 9.37779 8.28641 9.04634 7.71609 8.70484C7.8268 8.37338 7.93751 8.04193 8.05158 7.70043C8.05158 7.9214 8.05158 8.14237 8.05158 8.37004C8.96552 7.58232 9.33117 6.82159 9.72899 5.69162C9.8397 6.02308 9.95041 6.35453 10.0645 6.69603C10.3966 5.86739 10.3966 5.86739 10.7354 5.02202C10.8462 5.02202 10.9569 5.02202 11.0709 5.02202Z" fill="#1E141B"/>
<path d="M21.4709 19.7533C21.3602 19.9743 21.2495 20.1952 21.1355 20.4229C20.914 20.0914 20.6926 19.76 20.4645 19.4185C20.1324 20.2471 20.1324 20.2471 19.7935 21.0925C19.5721 21.0925 19.3507 21.0925 19.1226 21.0925C18.4516 20.0881 18.4516 20.0881 18.5145 19.4394C18.8278 18.6457 19.2528 18.0666 19.7935 17.4097C20.3471 18.1831 20.9006 18.9565 21.4709 19.7533Z" fill="#5C5453"/>
<path d="M39.2516 57.5859C37.593 58.248 36.3154 58.3707 34.5548 58.2555C34.0566 57.924 34.0566 57.924 33.5484 57.5859C33.7711 57.5453 33.9938 57.5048 34.2233 57.463C35.7405 57.1756 37.1714 56.903 38.5806 56.2467C39.2516 56.9163 39.2516 56.9163 39.2516 57.5859Z" fill="#7C5562"/>
<path d="M44.2838 71.3128C44.2838 71.6442 44.2838 71.9757 44.2838 72.3172C44.0624 72.3172 43.841 72.3172 43.6128 72.3172C43.5021 72.5381 43.3914 72.7591 43.2774 72.9868C42.04 73.4919 40.9237 73.8727 39.587 73.6564C38.979 72.9868 38.979 72.9868 38.5806 72.3172C39.577 72.5381 40.5734 72.7591 41.5999 72.9868C41.7107 72.5448 41.8214 72.1029 41.9354 71.6476C42.7104 71.5371 43.4854 71.4266 44.2838 71.3128Z" fill="#6EB5BD"/>
<path d="M13.0839 18.4141C12.9732 18.6351 12.8624 18.856 12.7484 19.0837C11.2602 17.9058 10.8964 16.4877 10.4 14.7313C10.7321 14.6208 11.0642 14.5103 11.4064 14.3965C12.4129 16.3216 12.4129 16.3216 12.4129 17.0749C12.5305 17.2959 12.6482 17.5168 12.7693 17.7445C12.8731 17.9655 12.9769 18.1864 13.0839 18.4141Z" fill="#252528"/>
<path d="M35.8967 54.5727C35.5646 54.5727 35.2325 54.5727 34.8903 54.5727C34.4403 53.8139 33.9935 53.0535 33.5483 52.2919C33.3563 51.9691 33.3563 51.9691 33.1604 51.6399C32.2064 49.9992 32.2064 49.9992 32.2064 48.8811C34.0644 50.408 34.8979 52.425 35.8967 54.5727Z" fill="#616364"/>
<path d="M40.2581 54.5727C39.7517 55.2865 39.2764 55.6986 38.5807 56.2467C38.3593 56.0257 38.1378 55.8048 37.9097 55.5771C38.1865 55.3561 38.4633 55.1352 38.7484 54.9075C39.8842 53.5473 39.7269 52.954 39.5871 51.2247C39.5871 50.8932 39.5871 50.5618 39.5871 50.2203C39.9193 50.2203 40.2514 50.2203 40.5936 50.2203C41.1013 51.7403 40.7566 53.0707 40.2581 54.5727Z" fill="#382329"/>
<path d="M24.1548 33.1454C22.8964 32.7268 22.7367 32.1664 22.1353 31.0398C21.7709 30.4051 21.3282 29.9646 20.7999 29.4626C20.6892 29.1311 20.5785 28.7996 20.4645 28.4581C21.8683 28.8997 22.4665 29.378 23.2532 30.6134C23.4249 30.8754 23.5965 31.1374 23.7734 31.4073C24.1548 32.141 24.1548 32.141 24.1548 33.1454Z" fill="#724D4C"/>
<path d="M24.4904 45.8678C24.4904 45.9783 24.4904 46.0888 24.4904 46.2026C23.71 46.3301 22.9268 46.4413 22.142 46.5374C21.8065 46.2026 21.8065 46.2026 21.7436 45.0727C21.8065 43.859 21.8065 43.859 22.4775 42.8546C22.9203 42.9651 23.3631 43.0756 23.8194 43.1894C23.4873 43.6866 23.4873 43.6866 23.1484 44.1938C23.0193 44.7481 22.9042 45.3061 22.8129 45.8678C23.3665 45.8678 23.92 45.8678 24.4904 45.8678Z" fill="#151214"/>
<path d="M39.9225 53.9031C39.2708 55.0353 38.9182 55.4775 37.658 55.8491C37.4089 55.8698 37.1598 55.8906 36.9032 55.9119C37.173 55.6495 37.4429 55.3871 37.7209 55.1167C38.7422 54.0727 38.8985 53.8843 38.979 52.4383C38.9218 51.3349 38.8283 50.7949 38.2451 49.8855C40.1865 50.5313 40.2078 52.0999 39.9225 53.9031Z" fill="#9E7171"/>
<path d="M18.7871 21.0925C17.571 23.3943 17.571 23.3943 16.4387 23.7709C16.2727 23.4395 16.2727 23.4395 16.1032 23.1013C16.3247 23.1013 16.5461 23.1013 16.7742 23.1013C16.8849 22.7699 16.9956 22.4384 17.1097 22.0969C16.8883 21.9864 16.6669 21.8759 16.4387 21.7621C16.7113 21.1134 16.7113 21.1134 17.1097 20.4229C17.4418 20.3124 17.7739 20.2019 18.1161 20.0881C18.3376 20.4196 18.559 20.751 18.7871 21.0925Z" fill="#6F3F41"/>
<path d="M10.1065 21.1971C9.98196 21.3836 9.85741 21.57 9.72909 21.7621C8.52726 20.1977 8.35001 19.4117 8.38716 17.4097C9.56657 18.469 10.7318 19.5479 10.1065 21.1971Z" fill="#98DBE0"/>
<path d="M29.1871 36.1586C29.0764 36.49 28.9657 36.8215 28.8516 37.163C27.5889 36.7429 27.4257 36.3172 26.7549 35.196C26.4824 34.7519 26.4824 34.7519 26.2045 34.2989C25.8323 33.4802 25.8323 33.4802 26.1678 32.4758C26.5611 32.9625 26.9521 33.4511 27.342 33.9405C27.6689 34.3484 27.6689 34.3484 28.0025 34.7645C28.5162 35.489 28.5162 35.489 28.5162 36.1586C28.7376 36.1586 28.959 36.1586 29.1871 36.1586Z" fill="#241D1C"/>
<path d="M30.8645 38.5022C29.4606 40.4389 29.4606 40.4389 28.0758 40.804C27.6295 40.8247 27.6295 40.8247 27.1742 40.8458C27.1742 40.6248 27.1742 40.4039 27.1742 40.1762C26.8421 40.1762 26.5099 40.1762 26.1677 40.1762C26.1677 39.9552 26.1677 39.7343 26.1677 39.5066C26.6244 39.5377 26.6244 39.5377 27.0903 39.5694C28.3133 39.499 28.5989 39.2396 29.5226 38.5022C29.9654 38.5022 30.4082 38.5022 30.8645 38.5022Z" fill="#614E51"/>
<path d="M33.8839 56.9163C33.5518 57.0268 33.2197 57.1373 32.8775 57.2511C32.0666 55.8351 31.7541 54.8662 31.871 53.2335C32.8775 53.5683 32.8775 53.5683 33.2549 54.1333C33.6035 55.0526 33.7511 55.9443 33.8839 56.9163Z" fill="#070505"/>
<path d="M34.8904 56.2467C34.5583 56.2467 34.2261 56.2467 33.8839 56.2467C33.0536 54.4237 33.0536 54.4237 32.2065 52.5639C32.5386 52.4534 32.8708 52.3429 33.213 52.2291C33.4952 52.7088 33.7741 53.1905 34.0517 53.6729C34.2074 53.9409 34.363 54.2089 34.5234 54.4851C34.8904 55.2423 34.8904 55.2423 34.8904 56.2467Z" fill="#50494E"/>
<path d="M43.9484 58.5903C43.6162 58.7008 43.2841 58.8113 42.9419 58.9251C41.5674 56.9482 41.5674 56.9482 41.6603 55.904C41.8516 55.2632 41.8516 55.2632 42.2709 54.2379C42.9109 55.1959 43.0856 55.6953 43.2984 56.7907C43.4354 57.786 43.4354 57.786 43.9484 58.5903Z" fill="#AAB0B4"/>
<path d="M28.8516 44.5286C28.8516 44.9706 28.8516 45.4125 28.8516 45.8678C28.298 45.9783 27.7445 46.0888 27.1741 46.2026C27.1741 46.7551 27.1741 47.3075 27.1741 47.8767C26.842 47.9871 26.5099 48.0976 26.1677 48.2115C25.8322 47.5418 25.8322 47.5418 26.1677 46.5374C26.3891 46.5374 26.6105 46.5374 26.8387 46.5374C26.8387 46.0955 26.8387 45.6536 26.8387 45.1982C27.0601 45.1982 27.2815 45.1982 27.5096 45.1982C27.6203 44.8668 27.731 44.5353 27.8451 44.1938C28.1772 44.3043 28.5094 44.4148 28.8516 44.5286Z" fill="#42272F"/>
<path d="M37.9097 53.9031C37.799 54.4555 37.6882 55.0079 37.5742 55.5771C37.3528 55.5771 37.1313 55.5771 36.9032 55.5771C36.9032 55.7981 36.9032 56.019 36.9032 56.2467C36.5711 56.2467 36.239 56.2467 35.8968 56.2467C35.7861 55.9152 35.6753 55.5838 35.5613 55.2423C36.1148 55.2423 36.6684 55.2423 37.2387 55.2423C36.7461 54.3996 36.2676 53.6111 35.6452 52.8568C35.5068 52.6497 35.3684 52.4425 35.2258 52.2291C35.3365 51.8976 35.4472 51.5662 35.5613 51.2247C37.2387 53.1498 37.2387 53.1498 37.2387 53.9031C37.4601 53.9031 37.6815 53.9031 37.9097 53.9031Z" fill="#5F6568"/>
<path d="M21.4709 26.7841C21.2495 27.2261 21.0281 27.668 20.8 28.1233C20.1919 28.1024 20.1919 28.1024 19.458 27.7885C18.8709 26.5958 18.8709 26.5958 18.4516 25.4449C19.0051 25.003 19.5587 24.5611 20.129 24.1057C19.9076 24.7686 19.6862 25.4315 19.458 26.1145C19.6795 26.1145 19.9009 26.1145 20.129 26.1145C20.129 26.3355 20.129 26.5565 20.129 26.7841C20.5719 26.7841 21.0147 26.7841 21.4709 26.7841Z" fill="#583033"/>
<path d="M11.7419 21.4273C11.6312 21.7588 11.5205 22.0902 11.4065 22.4317C10.6315 22.5422 9.85652 22.6527 9.05807 22.7665C9.05807 22.4351 9.05807 22.1036 9.05807 21.7621C9.3902 21.5411 9.72233 21.3202 10.0645 21.0925C10.3074 20.4031 10.3074 20.4031 10.4 19.7533C11.0919 20.5275 11.0919 20.5275 11.7419 21.4273Z" fill="#73C4C8"/>
<path d="M15.4322 14.0617C14.4258 13.7269 14.4258 13.7269 14.0274 13.0782C13.6924 12.2295 13.7548 11.6347 13.7548 10.7137C14.3838 10.7974 14.3838 10.7974 15.0967 11.0485C15.8913 12.1057 15.7763 12.8253 15.4322 14.0617Z" fill="#778C8F"/>
<path d="M24.4904 36.8282C24.3796 37.0492 24.2689 37.2701 24.1549 37.4978C23.6567 37.1663 23.6567 37.1663 23.1484 36.8282C23.1484 36.3863 23.1484 35.9443 23.1484 35.489C22.152 35.3785 21.1556 35.268 20.1291 35.1542C21.1355 34.1498 21.1355 34.1498 22.142 34.1498C22.142 34.3707 22.142 34.5917 22.142 34.8194C22.5848 34.8194 23.0276 34.8194 23.4839 34.8194C23.8421 35.4772 24.1769 36.1481 24.4904 36.8282Z" fill="#6BA6A7"/>
<path d="M24.4904 24.7753C23.4839 25.4449 23.4839 25.4449 22.8129 25.4449C22.8129 25.224 22.8129 25.003 22.8129 24.7753C22.5915 24.7753 22.3701 24.7753 22.142 24.7753C22.2527 24.5544 22.3634 24.3334 22.4775 24.1057C22.8826 22.8926 22.6597 22.5518 22.142 21.4273C23.2807 22.474 24.0228 23.2906 24.4904 24.7753Z" fill="#77706C"/>
<path d="M25.4968 43.1894C25.2754 43.8523 25.054 44.5152 24.8259 45.1982C24.2723 45.3087 23.7188 45.4192 23.1484 45.533C23.0436 44.7588 23.0436 44.7588 23.1484 43.859C23.9452 43.2313 23.9452 43.2313 24.8259 42.8546C25.0473 42.9651 25.2687 43.0756 25.4968 43.1894Z" fill="#52323E"/>
<path d="M38.9161 58.9251C38.8227 59.3912 38.8227 59.3912 38.7274 59.8667C38.4997 60.9384 38.4997 60.9384 38.9161 61.9383C38.6947 62.1593 38.4733 62.3803 38.2452 62.6079C38.0199 62.1763 37.7966 61.7437 37.5742 61.3106C37.4497 61.0698 37.3251 60.8289 37.1968 60.5808C36.9032 59.9295 36.9032 59.9295 36.9032 59.2599C37.5675 59.1494 38.2318 59.0389 38.9161 58.9251Z" fill="#696469"/>
<path d="M19.1226 23.1013C18.9427 23.2809 18.7628 23.4604 18.5774 23.6454C17.985 24.4537 17.985 24.4537 18.3887 25.5286C18.5202 25.8325 18.6516 26.1363 18.7871 26.4493C18.5657 26.3389 18.3442 26.2284 18.1161 26.1145C18.1161 25.8936 18.1161 25.6726 18.1161 25.4449C17.784 25.5554 17.4518 25.6659 17.1097 25.7797C16.4387 24.7753 16.4387 24.7753 16.5645 24.0429C16.6337 23.8427 16.7029 23.6424 16.7742 23.4361C17.5491 23.3256 18.3241 23.2152 19.1226 23.1013Z" fill="#2F1114"/>
<path d="M41.6 71.9824C41.6 72.3138 41.6 72.6453 41.6 72.9868C40.3682 73.1011 39.7279 73.068 38.6435 72.4427C37.7732 71.4997 37.6603 70.8994 37.5742 69.6388C38.2451 69.9736 38.2451 69.9736 38.6226 70.9989C38.7679 71.4857 38.7679 71.4857 38.9161 71.9824C39.8018 71.9824 40.6875 71.9824 41.6 71.9824Z" fill="#5AA8B5"/>
<path d="M11.7419 12.0529C11.6312 12.3843 11.5205 12.7158 11.4065 13.0573C10.8194 13.0154 10.8194 13.0154 10.0645 12.7225C8.72259 10.9741 8.72259 10.9741 8.72259 10.0441C8.94401 10.0441 9.16543 10.0441 9.39356 10.0441C9.39356 10.3755 9.39356 10.707 9.39356 11.0485C9.61498 11.0485 9.8364 11.0485 10.0645 11.0485C10.1752 10.8275 10.2859 10.6065 10.4 10.3789C10.5592 10.6551 10.7183 10.9313 10.8823 11.2159C11.1417 11.6302 11.1417 11.6302 11.4065 12.0529C11.5172 12.0529 11.6279 12.0529 11.7419 12.0529Z" fill="#6E6C6D"/>
<path d="M48.9807 66.2908C48.7593 66.2908 48.5379 66.2908 48.3097 66.2908C48.0847 65.7473 47.8613 65.2031 47.6388 64.6586C47.452 64.2041 47.452 64.2041 47.2614 63.7405C46.9678 62.9427 46.9678 62.9427 46.9678 62.2731C47.2999 62.2731 47.6321 62.2731 47.9743 62.2731C48.7851 63.6892 49.0976 64.658 48.9807 66.2908Z" fill="#121213"/>
<path d="M9.0581 18.4141C8.71148 17.8797 8.36995 17.342 8.03068 16.8029C7.74461 16.3542 7.74461 16.3542 7.45276 15.8965C7.0452 15.0661 7.0452 15.0661 7.38068 14.0617C8.77089 15.2509 9.63325 16.6185 9.0581 18.4141Z" fill="#48919C"/>
<path d="M35.5613 47.8766C35.2292 47.9871 34.897 48.0976 34.5548 48.2115C33.8839 47.6674 33.8839 47.6674 33.2129 46.8722C33.129 45.7841 33.129 45.7841 33.2129 44.8634C34.2057 45.7859 34.9027 46.6936 35.5613 47.8766Z" fill="#BFCACA"/>
<path d="M46.2968 67.63C46.1153 68.8973 45.6004 69.5021 44.6193 70.3084C44.2872 70.3084 43.9551 70.3084 43.6129 70.3084C43.3915 69.756 43.17 69.2035 42.9419 68.6344C43.263 68.6098 43.263 68.6098 43.5906 68.5847C43.8678 68.5596 44.145 68.5346 44.4306 68.5088C44.707 68.4855 44.9833 68.4622 45.268 68.4382C45.4968 68.3924 45.7256 68.3467 45.9613 68.2996C46.072 68.0786 46.1827 67.8576 46.2968 67.63Z" fill="#7F8184"/>
<path d="M16.4387 27.7885C15.4599 28.4398 14.887 28.6097 13.7548 28.7929C13.7548 28.2405 13.7548 27.6881 13.7548 27.1189C14.3419 26.8888 14.3419 26.8888 15.0968 26.7841C15.8516 27.2654 15.8516 27.2654 16.4387 27.7885Z" fill="#B4D6D4"/>
<path d="M37.5742 63.2775C37.076 62.4489 37.076 62.4489 36.5678 61.6035C36.3464 61.714 36.1249 61.8245 35.8968 61.9383C35.4068 61.052 35.2258 60.6344 35.2258 59.5947C35.8483 59.6797 35.8483 59.6797 36.5678 59.9295C37.0042 60.5246 37.0042 60.5246 37.3436 61.2478C37.4599 61.4856 37.5762 61.7234 37.6961 61.9684C37.9097 62.6079 37.9097 62.6079 37.5742 63.2775Z" fill="#49474F"/>
<path d="M40.2581 62.2731C39.4486 61.95 38.9865 61.6961 38.4548 60.9967C38.1699 60.0015 38.4629 59.4949 38.9161 58.5903C39.0268 58.5903 39.1375 58.5903 39.2516 58.5903C39.2516 59.2532 39.2516 59.9161 39.2516 60.5991C39.473 60.5991 39.6944 60.5991 39.9226 60.5991C40.2581 61.2687 40.2581 61.2687 40.2581 62.2731Z" fill="#453F46"/>
<path d="M42.9419 70.6432C41.997 70.6162 41.4359 70.4839 40.7678 69.7996C39.9017 68.6496 39.9017 68.6496 39.5871 67.9648C39.6978 67.6333 39.8085 67.3019 39.9225 66.9604C40.1163 67.278 40.31 67.5956 40.5096 67.9229C41.2178 68.9044 41.5174 69.2265 42.6064 69.6388C42.9419 69.9736 42.9419 69.9736 42.9419 70.6432Z" fill="#403A41"/>
<path d="M7.38062 12.0529C7.26991 12.2738 7.1592 12.4948 7.04513 12.7225C5.68255 10.6621 5.68255 10.6621 5.78707 9.22797C5.8701 8.94485 5.95313 8.66174 6.03868 8.37004C6.54191 8.74669 6.54191 8.74669 7.04513 9.37445C7.08707 10.3998 7.08707 10.3998 7.04513 11.3833C7.15584 11.6042 7.26655 11.8252 7.38062 12.0529Z" fill="#151F23"/>
<path d="M28.1807 42.8546C28.07 43.1861 27.9592 43.5175 27.8452 43.859C26.8178 44.2566 26.8178 44.2566 25.8323 44.5286C25.7216 44.4182 25.6109 44.3077 25.4968 44.1938C24.9378 44.1802 24.3783 44.1795 23.8194 44.1938C25.2132 43.4449 26.5833 42.8546 28.1807 42.8546Z" fill="#48202F"/>
<path d="M32.2064 44.5286C31.1988 45.6874 30.4241 46.1 28.9355 46.4537C28.6051 46.5349 28.2747 46.616 27.9342 46.6996C27.558 46.7851 27.558 46.7851 27.1742 46.8722C27.1742 46.6513 27.1742 46.4303 27.1742 46.2026C27.8232 45.9214 28.4734 45.643 29.1242 45.3656C29.4861 45.2103 29.8481 45.0549 30.221 44.8948C31.2 44.5286 31.2 44.5286 32.2064 44.5286Z" fill="#130B10"/>
<path d="M21.1355 37.4978C21.0248 38.2712 20.9141 39.0446 20.8 39.8414C20.5786 39.7309 20.3572 39.6204 20.129 39.5066C19.9076 39.7276 19.6862 39.9485 19.4581 40.1762C19.3342 38.3219 19.3342 38.3219 19.9613 37.5396C20.1274 37.4154 20.2934 37.2911 20.4645 37.163C20.6859 37.2735 20.9074 37.384 21.1355 37.4978Z" fill="#080B0D"/>
<path d="M27.1742 44.1938C27.0635 44.9672 26.9528 45.7406 26.8387 46.5374C26.6173 46.5374 26.3959 46.5374 26.1677 46.5374C26.057 46.8689 25.9463 47.2004 25.8323 47.5418C25.6016 46.4328 25.6016 46.4328 25.4968 45.1982C25.9371 44.5496 25.9371 44.5496 26.5032 44.1938C26.7246 44.1938 26.9461 44.1938 27.1742 44.1938Z" fill="#10090A"/>
<path d="M37.5742 48.8811C37.4635 49.323 37.3528 49.7649 37.2387 50.2203C36.2051 49.2919 35.6661 48.5251 35.2258 47.207C35.558 47.207 35.8901 47.207 36.2323 47.207C36.3292 47.4211 36.426 47.6352 36.5258 47.8557C36.8456 48.5972 36.8456 48.5972 37.5742 48.8811Z" fill="#151516"/>
<path d="M45.1645 73.8866C45.0953 74.1421 45.0261 74.3976 44.9548 74.6608C44.7334 74.5503 44.5119 74.4398 44.2838 74.326C44.2838 74.105 44.2838 73.8841 44.2838 73.6564C43.9517 73.5459 43.6196 73.4354 43.2774 73.3216C43.3881 72.9901 43.4988 72.6587 43.6128 72.3172C43.945 72.2067 44.2771 72.0962 44.6193 71.9824C45.2903 72.9868 45.2903 72.9868 45.1645 73.8866Z" fill="#9CCDCE"/>
<path d="M8.72253 4.01762C8.21913 5.06103 7.69534 6.07046 7.04511 7.03084C6.71299 7.14132 6.38086 7.25181 6.03866 7.36564C6.49723 6.03088 7.09609 5.06055 8.05157 4.01762C8.27299 4.01762 8.49441 4.01762 8.72253 4.01762Z" fill="#65A0AA"/>
<path d="M19.7936 28.4581C18.3824 27.9552 17.8682 27.0234 17.1097 25.7797C17.4418 25.6692 17.774 25.5588 18.1162 25.4449C19.7936 27.4969 19.7936 27.4969 19.7936 28.4581Z" fill="#222121"/>
<path d="M35.8967 46.5374C35.786 46.7584 35.6753 46.9794 35.5612 47.207C34.5548 46.8722 34.5548 46.8722 33.9887 45.8469C33.8434 45.5224 33.6981 45.1978 33.5483 44.8634C33.8805 44.532 34.2126 44.2005 34.5548 43.859C34.7887 44.2897 35.0186 44.7226 35.2467 45.1564C35.3752 45.3972 35.5036 45.638 35.6359 45.8861C35.722 46.1011 35.8081 46.316 35.8967 46.5374Z" fill="#282725"/>
<path d="M41.9355 53.9031C41.4927 53.7926 41.0498 53.6821 40.5936 53.5683C40.5936 52.9054 40.5936 52.2425 40.5936 51.5595C41.2436 51.685 41.2436 51.685 41.9355 51.8943C42.3533 52.7282 42.1961 53.0362 41.9355 53.9031Z" fill="#BF8484"/>
<path d="M48.3097 64.9515C48.199 65.504 48.0883 66.0564 47.9742 66.6255C46.9678 66.2907 46.9678 66.2907 46.5694 65.6002C46.4794 65.3862 46.3895 65.1721 46.2968 64.9515C46.0754 64.9515 45.854 64.9515 45.6258 64.9515C45.6258 64.3991 45.6258 63.8467 45.6258 63.2775C45.8472 63.388 46.0687 63.4985 46.2968 63.6123C46.2968 63.9438 46.2968 64.2752 46.2968 64.6167C46.6289 64.7272 46.961 64.8377 47.3032 64.9515C47.414 65.1725 47.5247 65.3935 47.6387 65.6211C47.8601 65.4002 48.0816 65.1792 48.3097 64.9515Z" fill="#9EA8AC"/>
<path d="M23.8193 41.5154C23.4629 42.0176 23.4629 42.0176 22.8129 42.5198C21.5758 42.5826 21.5758 42.5826 20.4645 42.5198C20.2984 42.1884 20.2984 42.1884 20.129 41.8502C20.5719 41.8502 21.0147 41.8502 21.4709 41.8502C21.5817 41.6293 21.6924 41.4083 21.8064 41.1806C22.4707 41.2911 23.1349 41.4016 23.8193 41.5154Z" fill="#19252A"/>
<path d="M23.1484 35.489C23.1484 35.8204 23.1484 36.1519 23.1484 36.4934C22.2628 36.3829 21.3771 36.2724 20.4646 36.1586C20.4646 35.8271 20.4646 35.4957 20.4646 35.1542C21.5088 35.1542 22.1781 35.2123 23.1484 35.489Z" fill="#6AB2B5"/>
<path d="M24.8258 40.8458C24.6044 40.9563 24.383 41.0668 24.1548 41.1806C23.6589 40.1907 23.7991 39.2581 23.8194 38.1674C25.4228 38.7008 25.2441 39.3659 24.8258 40.8458Z" fill="#4B7A82"/>
<path d="M31.5355 34.4846C31.5355 34.816 31.5355 35.1475 31.5355 35.489C30.7606 35.5995 29.9856 35.7099 29.1871 35.8238C29.1871 35.4923 29.1871 35.1609 29.1871 34.8194C29.9621 34.7089 30.7371 34.5984 31.5355 34.4846Z" fill="#2D2629"/>
<path d="M17.1096 18.4141C16.2838 20.0211 16.2838 20.0211 15.3693 20.3601C15.1686 20.3808 14.968 20.4016 14.7612 20.4229C14.4291 19.76 14.4291 19.76 14.0903 19.0837C16.3548 18.4141 16.3548 18.4141 17.1096 18.4141Z" fill="#5A6B71"/>
<path d="M18.4517 17.0749C18.2697 18.3458 17.7132 18.907 16.7742 19.7533C16.5528 19.6428 16.3314 19.5323 16.1033 19.4185C16.3247 19.1975 16.5461 18.9766 16.7742 18.7489C16.4421 18.2517 16.4421 18.2517 16.1033 17.7445C16.5461 17.855 16.989 17.9655 17.4452 18.0793C17.4452 17.7478 17.4452 17.4164 17.4452 17.0749C17.7773 17.0749 18.1095 17.0749 18.4517 17.0749Z" fill="#718082"/>
<path d="M20.4645 22.4317C20.1323 22.6527 19.8002 22.8737 19.458 23.1013C18.6277 21.4441 18.6277 21.4441 17.7806 19.7533C18.002 19.6428 18.2234 19.5323 18.4516 19.4185C19.1158 20.4129 19.7801 21.4072 20.4645 22.4317Z" fill="#2F2322"/>
<path d="M25.4968 32.4758C25.3861 32.6967 25.2754 32.9177 25.1613 33.1454C24.8259 32.8106 24.4904 32.4758 24.1549 32.141C23.8747 31.9131 23.8747 31.9131 23.5888 31.6806C22.9845 30.934 23.0727 30.3948 23.1484 29.4626C24.1372 30.3812 24.8902 31.2649 25.4968 32.4758Z" fill="#CA838A"/>
<path d="M32.2064 42.5198C31.985 42.7891 31.7636 43.0584 31.5355 43.3359C30.8301 44.0564 30.8301 44.0564 30.8645 44.5286C30.3109 44.5286 29.7574 44.5286 29.1871 44.5286C29.2978 44.0867 29.4085 43.6448 29.5226 43.1894C30.4082 42.9685 31.2939 42.7475 32.2064 42.5198Z" fill="#542533"/>
<path d="M9.729 15.4009C9.50758 15.5114 9.28617 15.6219 9.05804 15.7357C8.94733 16.0671 8.83662 16.3986 8.72255 16.7401C7.67417 14.522 7.67417 14.522 8.05158 13.3921C8.97545 13.8531 9.23075 14.5194 9.729 15.4009Z" fill="#142B35"/>
<path d="M15.7677 24.7753C14.7612 24.7753 14.7612 24.7753 14.1951 24.3359C13.7548 23.7709 13.7548 23.7709 13.7548 22.7665C13.4227 22.656 13.0905 22.5455 12.7483 22.4317C13.1912 22.3212 13.634 22.2107 14.0903 22.0969C14.6438 22.9808 15.1974 23.8647 15.7677 24.7753Z" fill="#469DAB"/>
<path d="M16.1033 21.7621C15.9926 22.0936 15.8819 22.425 15.7678 22.7665C15.3249 22.656 14.8821 22.5456 14.4259 22.4317C14.4259 22.2108 14.4259 21.9898 14.4259 21.7621C13.6509 21.7621 12.8759 21.7621 12.0775 21.7621C12.0775 21.6516 12.0775 21.5412 12.0775 21.4273C12.6226 21.4183 13.1678 21.4118 13.7129 21.4064C14.0165 21.4025 14.3201 21.3986 14.6329 21.3946C15.4323 21.4273 15.4323 21.4273 16.1033 21.7621Z" fill="#262F31"/>
<path d="M25.8323 45.8678C25.7216 46.3098 25.6109 46.7517 25.4968 47.2071C25.3861 47.0966 25.2754 46.9861 25.1613 46.8722C24.3786 46.8585 23.5956 46.858 22.8129 46.8722C22.6469 46.5408 22.6469 46.5408 22.4774 46.2026C23.5845 46.0922 24.6916 45.9817 25.8323 45.8678Z" fill="#202C2F"/>
<path d="M45.6259 64.2819C45.4162 64.9097 45.4162 64.9097 44.9549 65.6211C43.9065 66.0396 43.9065 66.0396 42.942 66.2907C42.942 66.0698 42.942 65.8488 42.942 65.6211C43.1634 65.6211 43.3848 65.6211 43.613 65.6211C43.7237 65.2897 43.8344 64.9582 43.9484 64.6167C44.502 64.5063 45.0555 64.3958 45.6259 64.2819Z" fill="#433E42"/>
<path d="M10.7355 18.4141C10.0855 18.2049 10.0855 18.2049 9.39354 17.7445C9.14193 16.6982 9.14193 16.6982 9.05805 15.7357C9.39018 15.8462 9.72231 15.9567 10.0645 16.0705C10.4621 16.885 10.7355 17.5035 10.7355 18.4141Z" fill="#13181D"/>
<path d="M14.7612 7.70044C14.5516 10.2533 14.5516 10.2533 13.4193 11.3833C13.53 10.2784 13.6407 9.17357 13.7548 8.03524C14.0869 7.92476 14.419 7.81427 14.7612 7.70044Z" fill="#16151A"/>
<path d="M18.4516 17.0749C18.1195 17.0749 17.7874 17.0749 17.4452 17.0749C16.8791 16.2379 16.8791 16.2379 16.4387 15.4009C17.103 15.4009 17.7672 15.4009 18.4516 15.4009C18.7871 16.0705 18.7871 16.0705 18.4516 17.0749Z" fill="#A3BDBC"/>
<path d="M33.5483 43.1894C32.9948 43.6314 32.4412 44.0733 31.8709 44.5286C31.6495 44.4182 31.4281 44.3077 31.2 44.1938C31.4214 43.7519 31.6428 43.31 31.8709 42.8546C33.2129 42.8546 33.2129 42.8546 33.5483 43.1894Z" fill="#935A6C"/>
<path d="M10.0646 5.69164C9.73245 7.3489 9.73245 7.3489 9.39361 9.03965C8.84006 8.92917 8.28651 8.81868 7.71619 8.70485C7.8269 8.3734 7.93761 8.04194 8.05167 7.70045C8.05167 7.92141 8.05167 8.14238 8.05167 8.37005C8.96562 7.58234 9.33127 6.8216 9.72909 5.69164C9.8398 5.69164 9.95051 5.69164 10.0646 5.69164Z" fill="#3E2226"/>
<path d="M17.1096 13.7269C17.1096 14.0583 17.1096 14.3898 17.1096 14.7313C16.8882 14.7313 16.6668 14.7313 16.4387 14.7313C16.3279 14.9522 16.2172 15.1732 16.1032 15.4009C15.745 14.7431 15.4102 14.0722 15.0967 13.3921C15.2074 13.1711 15.3181 12.9501 15.4322 12.7225C16.2709 13.1619 16.2709 13.1619 17.1096 13.7269Z" fill="#92A9AD"/>
<path d="M22.8129 36.4934C22.5984 36.5901 22.3839 36.6867 22.1629 36.7863C21.4199 37.1055 21.4199 37.1055 21.1354 37.8326C20.8033 37.5011 20.4712 37.1697 20.129 36.8282C21.1354 36.1586 21.1354 36.1586 22.0371 36.2841C22.2931 36.3532 22.5491 36.4222 22.8129 36.4934Z" fill="#172121"/>
<path d="M22.4774 32.4758C22.1453 32.4758 21.8132 32.4758 21.471 32.4758C21.1388 31.8129 21.1388 31.8129 20.8 31.1366C21.0214 31.0261 21.2428 30.9156 21.471 30.8018C21.6924 30.4703 21.9138 30.1388 22.1419 29.7973C22.8548 31.3458 22.8548 31.3458 22.4774 32.4758Z" fill="#23191C"/>
<path d="M27.5096 32.4758C27.1775 32.6967 26.8454 32.9177 26.5032 33.1454C25.979 32.3502 25.979 32.3502 25.4967 31.4714C25.6075 31.2504 25.7182 31.0294 25.8322 30.8018C26.8387 31.1366 26.8387 31.1366 27.2371 31.8271C27.327 32.0412 27.417 32.2552 27.5096 32.4758Z" fill="#97A8A4"/>
<path d="M33.5483 41.1806C33.3269 41.4016 33.1055 41.6225 32.8774 41.8502C32.656 41.7397 32.4345 41.6292 32.2064 41.5154C32.2064 40.8525 32.2064 40.1896 32.2064 39.5066C32.5385 39.3961 32.8707 39.2856 33.2129 39.1718C33.2025 39.5758 33.2025 39.5758 33.1919 39.9879C33.1134 40.8236 33.1134 40.8236 33.5483 41.1806Z" fill="#222523"/>
<path d="M11.7419 5.35682C11.5205 6.46167 11.2991 7.56651 11.071 8.70484C10.7388 8.81532 10.4067 8.92581 10.0645 9.03964C10.5627 7.05092 10.5627 7.05092 11.071 5.02202C11.2924 5.1325 11.5138 5.24299 11.7419 5.35682Z" fill="#898487"/>
<path d="M19.1226 18.0793C18.663 19.1377 18.4553 19.4161 17.4451 20.0881C17.2237 19.8671 17.0023 19.6462 16.7742 19.4185C17.3822 18.7489 17.3822 18.7489 18.1161 18.0793C18.4482 18.0793 18.7804 18.0793 19.1226 18.0793Z" fill="#161917"/>
<path d="M23.4839 34.4846C23.2625 34.4846 23.041 34.4846 22.8129 34.4846C22.2468 33.7104 22.2468 33.7104 21.8065 32.8106C21.9172 32.4791 22.0279 32.1477 22.142 31.8062C22.4741 31.9167 22.8062 32.0271 23.1484 32.141C23.4839 33.7313 23.4839 33.7313 23.4839 34.4846Z" fill="#121313"/>
<path d="M27.5096 41.5154C27.1775 41.8469 26.8454 42.1783 26.5032 42.5198C25.4338 42.4152 25.4338 42.4152 24.4903 42.185C24.4903 41.8536 24.4903 41.5221 24.4903 41.1806C25.4867 41.2911 26.4831 41.4016 27.5096 41.5154Z" fill="#060606"/>
<path d="M31.871 39.5066C31.7871 40.3018 31.7871 40.3018 31.5355 41.1806C30.8436 41.62 30.8436 41.62 30.1936 41.8502C30.1936 41.5188 30.1936 41.1873 30.1936 40.8458C31.0323 40.1134 31.0323 40.1134 31.871 39.5066Z" fill="#AD5F6F"/>
<path d="M36.2323 40.511C36.0524 40.5939 35.8725 40.6767 35.6871 40.7621C34.7011 41.28 33.7975 41.8938 32.8775 42.5198C32.656 42.4093 32.4346 42.2989 32.2065 42.185C32.8042 41.4145 33.2676 40.9127 34.2351 40.6823C34.8986 40.6037 35.5656 40.5554 36.2323 40.511Z" fill="#2C141D"/>
<path d="M39.2516 57.5859C38.5873 57.6964 37.9231 57.8069 37.2387 57.9207C37.2387 57.5892 37.2387 57.2578 37.2387 56.9163C37.6815 56.6953 38.1244 56.4744 38.5806 56.2467C39.2516 56.9163 39.2516 56.9163 39.2516 57.5859Z" fill="#935763"/>
<path d="M40.5935 58.2555C40.5382 58.5662 40.4828 58.877 40.4258 59.1971C40.232 60.2497 40.232 60.2497 40.258 61.2687C40.092 60.9373 40.092 60.9373 39.9225 60.5991C39.7011 60.5991 39.4797 60.5991 39.2516 60.5991C39.2516 59.9362 39.2516 59.2733 39.2516 58.5903C39.6944 58.4798 40.1372 58.3693 40.5935 58.2555Z" fill="#7B7376"/>
<path d="M11.0709 4.68722C10.9204 5.23913 10.7659 5.78997 10.6096 6.3403C10.524 6.64716 10.4384 6.95401 10.3502 7.27016C10.0645 8.03524 10.0645 8.03524 9.3935 8.37004C9.42285 7.88839 9.45914 7.40716 9.49834 6.92621C9.5178 6.65819 9.53726 6.39018 9.55731 6.11405C9.75652 5.23538 10.0503 4.91883 10.7354 4.35242C10.8461 4.4629 10.9569 4.57339 11.0709 4.68722Z" fill="#826159"/>
<path d="M12.7484 7.70043C12.7484 8.47382 12.7484 9.24722 12.7484 10.044C12.4163 9.93356 12.0842 9.82308 11.742 9.70924C11.742 8.93585 11.742 8.16246 11.742 7.36563C12.0741 7.47612 12.4062 7.5866 12.7484 7.70043Z" fill="#858089"/>
<path d="M19.1226 23.1013C18.569 23.3223 18.0155 23.5433 17.4451 23.7709C17.6343 22.6763 17.9482 22.1552 18.7871 21.4273C19.1226 21.7621 19.1226 21.7621 19.1226 23.1013Z" fill="#B16665"/>
<path d="M18.4517 20.7577C18.2302 21.0892 18.0088 21.4206 17.7807 21.7621C17.3379 21.7621 16.895 21.7621 16.4388 21.7621C16.7113 21.1134 16.7113 21.1134 17.1097 20.4229C17.4419 20.3124 17.774 20.2019 18.1162 20.0881C18.2269 20.3091 18.3376 20.53 18.4517 20.7577Z" fill="#935F60"/>
<path d="M28.8516 34.8194C28.7409 35.2613 28.6301 35.7033 28.5161 36.1586C27.6858 34.8328 27.6858 34.8328 26.8387 33.4802C28.1806 33.815 28.1806 33.815 28.8516 34.8194Z" fill="#ACC8C4"/>
<path d="M12.0774 20.7577C11.856 20.9787 11.6346 21.1996 11.4064 21.4273C10.8529 20.6539 10.2993 19.8805 9.72901 19.0837C10.0611 19.0837 10.3933 19.0837 10.7355 19.0837C11.4693 19.9207 11.4693 19.9207 12.0774 20.7577Z" fill="#1D373F"/>
<path d="M18.1161 13.3921C18.0054 13.7235 17.8947 14.055 17.7806 14.3965C17.5592 14.3965 17.3378 14.3965 17.1096 14.3965C17.1096 14.1755 17.1096 13.9545 17.1096 13.7269C16.8951 13.6371 16.6806 13.5473 16.4596 13.4548C15.7677 13.0573 15.7677 13.0573 15.4322 12.0529C15.6536 11.9424 15.8751 11.8319 16.1032 11.7181C16.3246 12.2705 16.546 12.8229 16.7742 13.3921C17.217 13.3921 17.6598 13.3921 18.1161 13.3921Z" fill="#AFCACE"/>
<path d="M19.7936 19.7533C19.7936 20.1952 19.7936 20.6372 19.7936 21.0925C19.5722 21.0925 19.3507 21.0925 19.1226 21.0925C18.4516 20.0881 18.4516 20.0881 18.5355 19.3766C18.7871 18.7489 18.7871 18.7489 19.4581 18.4141C19.3474 18.856 19.2367 19.298 19.1226 19.7533C19.344 19.7533 19.5655 19.7533 19.7936 19.7533Z" fill="#746E67"/>
<path d="M23.1484 34.4846C22.8163 34.5951 22.4842 34.7055 22.142 34.8194C22.142 34.5984 22.142 34.3774 22.142 34.1498C21.9275 34.1152 21.713 34.0807 21.492 34.0451C21.1495 33.9312 21.1495 33.9312 20.8001 33.815C20.6893 33.4835 20.5786 33.1521 20.4646 32.8106C20.7967 32.8106 21.1288 32.8106 21.471 32.8106C21.471 33.142 21.471 33.4735 21.471 33.815C21.9139 33.815 22.3567 33.815 22.813 33.815C22.9237 34.0359 23.0344 34.2569 23.1484 34.4846Z" fill="#75B7B7"/>
<path d="M29.5226 41.1806C29.5226 41.733 29.5226 42.2855 29.5226 42.8546C28.8936 43.0639 28.8936 43.0639 28.1806 43.1894C27.9592 42.9685 27.7378 42.7475 27.5097 42.5198C28.1739 42.0779 28.8382 41.6359 29.5226 41.1806Z" fill="#783B4A"/>
<path d="M32.8774 45.1982C32.8774 45.5297 32.8774 45.8611 32.8774 46.2026C31.5896 46.6992 30.8437 46.9473 29.5226 46.5374C29.9551 46.3126 30.3886 46.0898 30.8226 45.8678C31.0639 45.7436 31.3052 45.6193 31.5539 45.4912C32.2065 45.1982 32.2065 45.1982 32.8774 45.1982Z" fill="#231621"/>
<path d="M32.542 36.1586C32.446 36.7195 32.3347 37.2781 32.2065 37.8326C31.9851 37.8326 31.7637 37.8326 31.5355 37.8326C31.6463 37.2802 31.757 36.7278 31.871 36.1586C31.3175 36.2691 30.7639 36.3796 30.1936 36.4934C30.3043 36.2724 30.415 36.0515 30.5291 35.8238C31.088 35.8095 31.6475 35.8102 32.2065 35.8238C32.3172 35.9343 32.4279 36.0448 32.542 36.1586Z" fill="#7B5454"/>
<path d="M34.2194 50.8899C34.1087 51.1108 33.9979 51.3318 33.8839 51.5595C33.0452 50.7852 33.0452 50.7852 32.2065 49.8855C32.2065 49.554 32.2065 49.2226 32.2065 48.8811C32.8774 49.5507 33.5484 50.2203 34.2194 50.8899Z" fill="#696C6F"/>
<path d="M12.413 4.68723C12.0808 4.9082 11.7487 5.12917 11.4065 5.35683C11.3166 5.14277 11.2266 4.9287 11.1339 4.70815C10.7736 3.9067 10.7736 3.9067 9.72909 3.68282C11.2568 3.5592 11.2568 3.5592 12.0146 4.18503C12.146 4.35075 12.2775 4.51648 12.413 4.68723Z" fill="#322929"/>
<path d="M13.7549 20.4229C13.4228 20.5334 13.0906 20.6439 12.7484 20.7577C12.3056 20.2053 11.8628 19.6529 11.4065 19.0837C11.7386 18.9732 12.0708 18.8627 12.4129 18.7489C12.8558 19.3013 13.2986 19.8537 13.7549 20.4229Z" fill="#67818C"/>
<path d="M16.1033 20.7577C15.7711 21.2549 15.7711 21.2549 15.4323 21.7621C14.768 21.6516 14.1038 21.5411 13.4194 21.4273C13.5301 21.2063 13.6408 20.9853 13.7549 20.7577C15.2563 20.3351 15.2563 20.3351 16.1033 20.7577Z" fill="#0A0B0C"/>
<path d="M24.1548 33.1454C23.8227 33.0349 23.4905 32.9244 23.1483 32.8106C23.0376 32.1477 22.9269 31.4848 22.8128 30.8018C24.1548 32.0154 24.1548 32.0154 24.1548 33.1454Z" fill="#754244"/>
<path d="M26.5032 48.2115C26.2818 48.3219 26.0603 48.4324 25.8322 48.5463C25.6246 48.3184 25.6246 48.3184 25.4129 48.0859C24.8043 47.5219 24.2377 47.2095 23.4838 46.8722C24.1481 46.7618 24.8123 46.6513 25.4967 46.5374C25.8289 47.0899 26.161 47.6423 26.5032 48.2115Z" fill="#82C4C9"/>
<path d="M34.8904 41.1806C34.669 41.8435 34.4475 42.5064 34.2194 43.1894C33.7766 43.0789 33.3337 42.9685 32.8775 42.8546C32.8775 42.6337 32.8775 42.4127 32.8775 42.185C33.5417 41.8536 34.206 41.5221 34.8904 41.1806Z" fill="#944C61"/>
<path d="M44.2838 70.978C44.1731 71.1989 44.0624 71.4199 43.9483 71.6476C43.2841 71.6476 42.6198 71.6476 41.9354 71.6476C41.9354 71.3161 41.9354 70.9847 41.9354 70.6432C42.6062 70.6289 43.2775 70.6295 43.9483 70.6432C44.059 70.7537 44.1697 70.8641 44.2838 70.978Z" fill="#101214"/>
<path d="M45.9613 70.6432C45.4078 70.8641 44.8542 71.0851 44.2839 71.3128C43.9518 70.8156 43.9518 70.8156 43.6129 70.3084C44.2772 70.0874 44.9414 69.8664 45.6258 69.6388C45.9613 69.9736 45.9613 69.9736 45.9613 70.6432Z" fill="#211E1E"/>
<path d="M47.6387 61.9383C47.3065 62.1593 46.9744 62.3803 46.6322 62.6079C46.3001 61.945 45.968 61.2821 45.6258 60.5991C46.0686 60.5991 46.5114 60.5991 46.9677 60.5991C47.1891 61.0411 47.4105 61.483 47.6387 61.9383Z" fill="#1D1E1F"/>
</g>
<defs>
<clipPath id="clip0_116_190">
<rect width="76" height="52" fill="white" transform="translate(52) rotate(90)"/>
</clipPath>
</defs>
</svg>
